<?xml version="1.0" encoding="UTF-8" standalone="no"?>
<svg
   width="60.067585mm"
   height="131.89787mm"
   viewBox="0 0 60.067585 131.89787"
   version="1.1"
   id="svg5"
   inkscape:version="1.2.1 (9c6d41e410, 2022-07-14)"
   sodipodi:docname="client1.svg"
   xmlns:inkscape="http://www.inkscape.org/namespaces/inkscape"
   xmlns:sodipodi="http://sodipodi.sourceforge.net/DTD/sodipodi-0.dtd"
   xmlns:xlink="http://www.w3.org/1999/xlink"
   xmlns="http://www.w3.org/2000/svg"
   xmlns:svg="http://www.w3.org/2000/svg"
   xmlns:rdf="http://www.w3.org/1999/02/22-rdf-syntax-ns#"
   xmlns:cc="http://creativecommons.org/ns#"
   xmlns:dc="http://purl.org/dc/elements/1.1/">
  <metadata
     id="metadata847">
    <rdf:RDF>
      <cc:Work
         rdf:about="">
        <dc:format>image/svg+xml</dc:format>
        <dc:type
           rdf:resource="http://purl.org/dc/dcmitype/StillImage" />
      </cc:Work>
    </rdf:RDF>
  </metadata>
  <sodipodi:namedview
     id="namedview7"
     pagecolor="#ffffff"
     bordercolor="#000000"
     borderopacity="0.25"
     inkscape:showpageshadow="2"
     inkscape:pageopacity="0.0"
     inkscape:pagecheckerboard="0"
     inkscape:deskcolor="#d1d1d1"
     inkscape:document-units="mm"
     showgrid="false"
     inkscape:zoom="1.0186988"
     inkscape:cx="227.7415"
     inkscape:cy="342.5939"
     inkscape:window-width="1920"
     inkscape:window-height="1017"
     inkscape:window-x="-8"
     inkscape:window-y="-8"
     inkscape:window-maximized="1"
     inkscape:current-layer="layer1"
     inkscape:document-rotation="0"
     fit-margin-top="0"
     fit-margin-left="0"
     fit-margin-right="0"
     fit-margin-bottom="0" />
  <defs
     id="defs2">
    <linearGradient
       inkscape:collect="always"
       id="linearGradient17050">
      <stop
         style="stop-color:#d3d4d5;stop-opacity:1;"
         offset="0"
         id="stop17046" />
      <stop
         style="stop-color:#ffffff;stop-opacity:0.98086131;"
         offset="1"
         id="stop17048" />
    </linearGradient>
    <inkscape:path-effect
       effect="bspline"
       id="path-effect17021"
       is_visible="true"
       lpeversion="1"
       weight="33.333333"
       steps="2"
       helper_size="0"
       apply_no_weight="true"
       apply_with_weight="true"
       only_selected="false" />
    <inkscape:path-effect
       effect="bspline"
       id="path-effect16654"
       is_visible="true"
       lpeversion="1"
       weight="33.333333"
       steps="2"
       helper_size="0"
       apply_no_weight="true"
       apply_with_weight="true"
       only_selected="false" />
    <pattern
       inkscape:collect="always"
       patternUnits="userSpaceOnUse"
       width="2"
       height="2"
       patternTransform="translate(0,0) scale(10,10)"
       id="Checkerboard"
       inkscape:stockid="Checkerboard"
       inkscape:isstock="true">
      <rect
         style="fill:black;stroke:none"
         x="0"
         y="0"
         width="1"
         height="1"
         id="rect8448" />
      <rect
         style="fill:black;stroke:none"
         x="1"
         y="1"
         width="1"
         height="1"
         id="rect8450" />
    </pattern>
    <pattern
       inkscape:collect="always"
       xlink:href="#Checkerboardwhite"
       id="pattern9369"
       patternTransform="matrix(9.9999999,0,0,9.9999999,-70.71338,-176.49605)" />
    <pattern
       inkscape:collect="always"
       patternUnits="userSpaceOnUse"
       width="2"
       height="2"
       patternTransform="translate(0,0) scale(10,10)"
       id="Checkerboardwhite"
       inkscape:stockid="Checkerboard white"
       inkscape:isstock="true">
      <rect
         style="fill:white;stroke:none"
         x="0"
         y="0"
         width="1"
         height="1"
         id="rect8453" />
      <rect
         style="fill:white;stroke:none"
         x="1"
         y="1"
         width="1"
         height="1"
         id="rect8455" />
    </pattern>
    <inkscape:path-effect
       effect="bspline"
       id="path-effect7312"
       is_visible="true"
       lpeversion="1"
       weight="33.333333"
       steps="2"
       helper_size="0"
       apply_no_weight="true"
       apply_with_weight="true"
       only_selected="false" />
    <inkscape:path-effect
       effect="bspline"
       id="path-effect7308"
       is_visible="true"
       lpeversion="1"
       weight="33.333333"
       steps="2"
       helper_size="0"
       apply_no_weight="true"
       apply_with_weight="true"
       only_selected="false" />
    <inkscape:path-effect
       effect="bspline"
       id="path-effect3523"
       is_visible="true"
       lpeversion="1"
       weight="33.333333"
       steps="2"
       helper_size="0"
       apply_no_weight="true"
       apply_with_weight="true"
       only_selected="false" />
    <inkscape:path-effect
       effect="bspline"
       id="path-effect3519"
       is_visible="true"
       lpeversion="1"
       weight="33.333333"
       steps="2"
       helper_size="0"
       apply_no_weight="true"
       apply_with_weight="true"
       only_selected="false" />
    <inkscape:path-effect
       effect="bspline"
       id="path-effect2921"
       is_visible="true"
       lpeversion="1"
       weight="33.333333"
       steps="2"
       helper_size="0"
       apply_no_weight="true"
       apply_with_weight="true"
       only_selected="false" />
    <inkscape:path-effect
       effect="bspline"
       id="path-effect2860"
       is_visible="true"
       lpeversion="1"
       weight="33.333333"
       steps="2"
       helper_size="0"
       apply_no_weight="true"
       apply_with_weight="true"
       only_selected="false" />
    <inkscape:path-effect
       effect="bspline"
       id="path-effect2856"
       is_visible="true"
       lpeversion="1"
       weight="33.333333"
       steps="2"
       helper_size="0"
       apply_no_weight="true"
       apply_with_weight="true"
       only_selected="false" />
    <inkscape:path-effect
       effect="bspline"
       id="path-effect2852"
       is_visible="true"
       lpeversion="1"
       weight="33.333333"
       steps="2"
       helper_size="0"
       apply_no_weight="true"
       apply_with_weight="true"
       only_selected="false" />
    <inkscape:path-effect
       effect="bspline"
       id="path-effect301"
       is_visible="true"
       lpeversion="1"
       weight="33.333333"
       steps="2"
       helper_size="0"
       apply_no_weight="true"
       apply_with_weight="true"
       only_selected="false" />
    <pattern
       patternUnits="userSpaceOnUse"
       width="48.864431"
       height="44.464937"
       patternTransform="translate(70.71338,176.49605)"
       id="pattern9366">
      <path
         id="path7388"
         style="fill:url(#pattern9369);fill-opacity:1;stroke:#000000;stroke-width:0.499999;stroke-linecap:round"
         inkscape:transform-center-x="-0.21573554"
         inkscape:transform-center-y="-2.2956823"
         d="M 48.676529,44.236454 0.33012138,22.766554 10.257024,0.45838471 Z"
         sodipodi:nodetypes="cccc" />
    </pattern>
    <linearGradient
       inkscape:collect="always"
       xlink:href="#linearGradient17050"
       id="linearGradient17052"
       x1="73.541832"
       y1="88.688211"
       x2="80.417067"
       y2="88.688211"
       gradientUnits="userSpaceOnUse"
       gradientTransform="matrix(0.99561952,0,0,1.1188476,2.9830403,-10.832577)" />
    <inkscape:path-effect
       effect="bspline"
       id="path-effect17021-4"
       is_visible="true"
       lpeversion="1"
       weight="33.333333"
       steps="2"
       helper_size="0"
       apply_no_weight="true"
       apply_with_weight="true"
       only_selected="false" />
    <linearGradient
       inkscape:collect="always"
       xlink:href="#linearGradient17050"
       id="linearGradient17091"
       gradientUnits="userSpaceOnUse"
       x1="73.541832"
       y1="88.688211"
       x2="80.417067"
       y2="88.688211"
       gradientTransform="matrix(0.99467915,0,0,1.1453032,14.490319,-13.8273)" />
  </defs>
  <g
     inkscape:label="Calque 1"
     inkscape:groupmode="layer"
     id="layer1"
     transform="translate(-55.12128,-65.722712)">
    <g
       id="g851"
       transform="matrix(0.67643643,0,0,0.67643643,18.10298,22.382005)">
      <ellipse
         style="fill:#ffcded;fill-opacity:1;stroke:#000000;stroke-width:0.765"
         id="path234"
         cx="99.887093"
         cy="100.95161"
         rx="30.693548"
         ry="27.854837" />
      <path
         id="rect288"
         style="fill:#ffcded;fill-opacity:1;stroke:#000000;stroke-width:0.765"
         d="m 58.716531,150.42069 c 14.235114,-26.18752 69.171539,-28.9568 80.548389,-1.40699 6.62184,16.0352 0.70968,109.31505 0.70968,109.31505 l -80.548392,0.34866 c 0,0 -8.938432,-93.11876 -0.709677,-108.25672 z"
         sodipodi:nodetypes="ssccs" />
    </g>
    <path
       id="rect288-1"
       style="fill:#c61616;fill-opacity:1;stroke:#000000;stroke-width:0.767097"
       d="m 58.60464,150.22199 c 2.11353,-3.87891 5.772789,-8.46129 11.281144,-12.19901 4.669314,-3.16839 11.207628,-5.8379 13.621344,-5.82989 7.678246,0.0255 6.995866,13.71571 19.383722,17.07307 2.16741,0.58742 7.20644,-11.26841 13.77959,-15.73491 2.97731,-2.02311 8.62714,0.67429 9.47714,1.12266 6.09374,3.2144 10.73447,7.90724 13.32228,14.15891 6.64788,16.06004 0.71246,109.48446 0.71246,109.48446 l -80.865212,0.3492 c 0,0 -8.973582,-93.26308 -0.712468,-108.42449 z"
       sodipodi:nodetypes="sssssssccs"
       transform="matrix(0.67643642,0,0,0.67643642,18.10298,22.382004)" />
    <path
       id="rect288-1-3"
       style="fill:url(#Checkerboard);fill-opacity:1;stroke:#000000;stroke-width:0.518892"
       d="m 58.097599,123.98903 c 1.429669,-2.62384 3.904925,-5.72353 7.630977,-8.25186 3.158494,-2.14321 7.581247,-3.94896 9.213973,-3.94355 5.193845,0.0172 4.732258,9.27781 13.11185,11.54885 1.466101,0.39735 4.874673,-7.62236 9.320966,-10.64367 2.013951,-1.3685 5.835695,0.45612 6.410665,0.75941 4.12203,2.17434 7.26118,5.34875 9.01167,9.5776 4.49687,10.8636 0.48194,74.05928 0.48194,74.05928 l -54.700102,0.23621 c 0,0 -6.070058,-63.08654 -0.481939,-73.34227 z"
       sodipodi:nodetypes="sssssssccs" />
    <path
       style="fill:#f39300;fill-opacity:1;stroke:#000000;stroke-width:0.499999;stroke-linecap:round;stroke-linejoin:miter;stroke-dasharray:none"
       d="m 80.194984,75.862349 c 3.306098,1.102033 6.611882,2.203961 10.560473,2.754871 3.948592,0.550911 8.539864,0.550911 9.703003,-0.397869 1.16313,-0.94878 -1.101901,-2.846509 -3.367259,-4.744511"
       id="path3521"
       inkscape:path-effect="#path-effect3523"
       inkscape:original-d="m 80.194984,75.862349 c 3.306045,1.102192 6.611829,2.204119 9.917345,3.305782 4.59172,2.64e-4 9.182992,2.64e-4 13.774091,0 -2.26485,-1.897537 -4.529883,-3.795263 -6.795219,-5.693291" />
    <path
       style="fill:#005911;fill-opacity:1;stroke:#000000;stroke-width:0.499999;stroke-linecap:round;stroke-linejoin:miter;stroke-dasharray:none"
       d="m 67.350804,84.44218 c 2.290211,-1.014776 6.987232,-4.21581 10.321204,-6.317968 3.333972,-2.102158 5.304775,-3.105376 8.263023,-3.407467 2.958247,-0.302091 6.903545,0.09692 9.330834,0.130557 2.427289,0.03364 3.336614,-0.298038 1.948036,-1.641909 -1.388578,-1.343871 -5.075146,-3.700038 -9.683046,-5.316444 -4.6079,-1.616407 -10.136788,-2.492826 -14.387102,-1.484491 -4.250314,1.008334 -7.221524,3.901301 -9.383226,7.449115 -2.161703,3.547814 -3.51377,7.750075 -3.518668,9.583671 -0.0049,1.833596 1.337219,1.298723 2.403734,0.84995 1.066515,-0.448773 1.857389,-0.811428 2.194496,-0.406705 0.337108,0.404723 0.220504,1.576467 2.510715,0.561691 z"
       id="path2919"
       inkscape:path-effect="#path-effect2921"
       inkscape:original-d="m 64.944016,86.628423 c 4.697209,-3.200711 9.39423,-6.401745 14.091063,-9.603101 1.97107,-1.002936 3.941873,-2.006153 5.912525,-3.009713 3.945644,0.399346 7.890942,0.798354 11.836129,1.197046 0.909547,-0.331368 1.818872,-0.663045 2.728023,-0.995052 C 95.825232,71.861665 92.138664,69.505497 88.45183,67.14896 82.92291,66.272828 77.394022,65.396407 71.864833,64.519648 c -2.971141,2.893404 -5.942351,5.786371 -8.913811,8.679073 -1.351932,4.202751 -2.704,8.405012 -4.056283,12.607034 1.342359,-0.534573 2.684476,-1.069444 4.02643,-1.60465 0.791094,-0.362346 1.581968,-0.725 2.372667,-1.087984 -0.11642,1.172113 -0.233024,2.343857 -0.34982,3.515302 z" />
    <path
       style="fill:#005911;fill-opacity:1;stroke:#000000;stroke-width:0.499999;stroke-linecap:round;stroke-linejoin:miter;stroke-dasharray:none"
       d="m 64.400694,83.715901 c 0.857014,-1.285521 1.714068,-2.571103 2.846666,-3.703698 1.132598,-1.132595 2.540588,-2.112066 3.948552,-3.09152"
       id="path3517"
       inkscape:path-effect="#path-effect3519"
       inkscape:original-d="m 64.400694,83.715901 c 0.857319,-1.285317 1.714374,-2.570899 2.571163,-3.856745 1.408311,-0.979246 2.816301,-1.958717 4.224055,-2.938473" />
    <path
       style="fill:#f39300;fill-opacity:1;stroke:#000000;stroke-width:0.499999;stroke-linecap:round;stroke-linejoin:miter;stroke-dasharray:none"
       d="m 78.581636,103.71258 c -0.06131,2.51011 0.489657,7.40757 2.571248,10.25411 2.081591,2.84654 5.693392,3.64236 8.356236,3.03014 2.662845,-0.61223 4.376919,-2.63239 5.050338,-5.72382 0.67342,-3.09143 0.306117,-7.25418 -0.183493,-9.39693 -0.489611,-2.142755 -1.101782,-2.265189 -2.020226,-1.65302 -0.918445,0.61218 -2.142781,1.95895 -3.642503,2.60174 -1.499722,0.64279 -3.275011,0.58157 -4.77485,0.15313 -1.49984,-0.42844 -2.724183,-1.22426 -3.673121,-1.56108 -0.948937,-0.33682 -1.622322,-0.21438 -1.683629,2.29573 z"
       id="path7306"
       inkscape:path-effect="#path-effect7308"
       inkscape:original-d="m 77.969333,101.32494 c 0.551228,4.89772 1.102192,9.79518 1.652891,14.69237 3.612209,0.79611 7.22401,1.59193 10.835617,2.38751 1.714407,-2.01998 3.428484,-4.04014 5.142328,-6.06061 -0.367051,-4.16265 -0.734354,-8.3254 -1.101929,-12.488507 -0.611928,-0.12217 -1.224097,-0.24461 -1.836544,-0.36731 -1.224124,1.347097 -2.448462,2.693867 -3.673091,4.040407 -1.775098,-0.061 -3.550389,-0.12217 -5.325981,-0.18366 -1.224124,-0.79558 -2.448463,-1.59141 -3.673091,-2.38751 -0.673149,0.12271 -1.346535,0.24514 -2.0202,0.36731 z" />
    <path
       style="fill:#f39300;fill-opacity:1;stroke:#000000;stroke-width:0.499999;stroke-linecap:round;stroke-linejoin:miter;stroke-dasharray:none"
       d="m 72.879555,100.83122 c 0.704181,0.61215 2.173422,1.34677 3.673243,1.65277 1.499822,0.306 3.030246,0.18357 4.652482,-0.2756 1.622236,-0.45916 3.336309,-1.25498 5.111754,-1.40796 1.775444,-0.15297 3.611952,0.33677 5.479083,0.45915 1.867131,0.12238 3.764858,-0.12249 4.989098,-0.61221 1.22424,-0.48972 1.775194,-1.224325 1.89767,-2.387353 0.122477,-1.163029 -0.183608,-2.754671 -0.887568,-3.397636 -0.703959,-0.642965 -1.805864,-0.33688 -2.509863,-0.15322 -0.703999,0.183659 -1.010086,0.244876 -0.734538,0.489852 0.275548,0.244975 1.132587,0.673493 1.622228,1.071497 0.48964,0.398004 0.612072,0.765301 0.642608,1.101947 0.03054,0.336646 -0.03068,0.642734 -0.367328,0.979314 -0.336646,0.336579 -0.948814,0.703879 -1.652711,0.734569 -0.703897,0.03069 -1.499718,-0.275396 -2.662913,-0.397898 -1.163196,-0.122502 -2.693616,-0.06128 -3.88742,0.09175 -1.193803,0.153029 -2.050838,0.397895 -3.275169,0.489751 -1.224331,0.09186 -2.815969,0.03064 -3.918056,0.397971 -1.102086,0.36733 -1.714253,1.16316 -2.724198,1.37744 -1.009944,0.21428 -2.417933,-0.15303 -3.275001,-0.45904 -0.857068,-0.30602 -1.163154,-0.55089 -1.316345,-1.163067 -0.15319,-0.612174 -0.15319,-1.591648 0.183621,-2.142764 0.336811,-0.551117 1.010198,-0.67355 1.622435,-0.673496 0.612236,5.4e-5 1.16319,0.122488 1.193757,-0.122279 0.03057,-0.244766 -0.45917,-0.856937 -1.224419,-1.071362 -0.765248,-0.214425 -1.805936,-0.03077 -2.387628,0.673383 -0.581691,0.704157 -0.704126,1.928498 -0.795956,2.785554 -0.09183,0.857057 -0.153047,1.346791 0.551134,1.958941 z"
       id="path7310"
       inkscape:path-effect="#path-effect7312"
       inkscape:original-d="m 72.114185,100.70859 c 1.4695,0.73488 2.938737,1.46951 4.407708,2.20386 1.53075,-0.12217 3.061174,-0.2446 4.591364,-0.36731 1.714408,-0.79559 3.428482,-1.59141 5.142326,-2.38752 1.836848,0.49002 3.673356,0.97976 5.509638,1.46925 1.898065,-0.24462 3.795792,-0.48949 5.693291,-0.73463 0.551238,-0.73437 1.102191,-1.468974 1.652889,-2.203851 -0.305832,-1.591441 -0.611918,-3.183083 -0.918274,-4.77502 -1.101682,0.306361 -2.203587,0.612447 -3.30578,0.918273 -0.305832,0.06148 -0.611918,0.122701 -0.918274,0.183653 0.857337,0.428802 1.714376,0.857319 2.571165,1.285576 0.122704,0.36759 0.245137,0.734887 0.367308,1.101934 -0.06095,0.30636 -0.122171,0.612447 -0.183652,0.918277 -0.611931,0.367577 -1.2241,0.734874 -1.836547,1.101924 -0.795587,-0.30583 -1.591408,-0.611917 -2.387508,-0.918277 -1.530223,0.0615 -3.060644,0.1227 -4.591365,0.18366 -0.856808,0.24514 -1.713843,0.490007 -2.571162,0.734617 -1.59144,-0.061 -3.18308,-0.12217 -4.775019,-0.18366 -0.611929,0.796124 -1.224099,1.591944 -1.836545,2.387524 -1.407782,-0.36706 -2.815772,-0.73436 -4.224055,-1.10194 -0.305832,-0.24461 -0.611917,-0.48948 -0.918272,-0.734617 2.64e-4,-0.979244 2.64e-4,-1.958718 0,-2.938475 0.673678,-0.122167 1.347064,-0.244607 2.0202,-0.367307 0.551239,0.1227 1.102192,0.24514 1.652891,0.367307 -0.489491,-0.611924 -0.979227,-1.224096 -1.469237,-1.836543 -1.040465,0.183922 -2.081153,0.367575 -3.122127,0.550966 -0.122174,1.22465 -0.244608,2.448991 -0.367309,3.673085 -0.06095,0.490027 -0.122172,0.979764 -0.183654,1.469244 z" />
    <path
       id="path11626"
       style="fill:#c61616;fill-opacity:1;stroke:#000000;stroke-width:1.88976;stroke-linecap:round;stroke-dasharray:none;stroke-opacity:1"
       inkscape:transform-center-x="-0.90773651"
       inkscape:transform-center-y="-2.6629914"
       transform="matrix(0.26458333,0,0,0.26458333,54.850658,64.24852)"
       d="M 122.86056,224.20315 72.803737,195.13433 78.516041,174.83557 Z"
       sodipodi:nodetypes="cccc" />
    <path
       id="path11626-3"
       style="fill:#c61616;fill-opacity:1;stroke:#000000;stroke-width:0.499999;stroke-linecap:round;stroke-dasharray:none;stroke-opacity:1"
       inkscape:transform-center-x="0.90773649"
       inkscape:transform-center-y="-2.6629914"
       d="M 87.089295,124.13534 98.86426,116.4442 98.087498,110.33887 Z"
       sodipodi:nodetypes="cccc" />
    <path
       style="fill:#501f00;stroke:#000000;stroke-width:0.499999;stroke-linecap:round"
       d="m 75.25001,87.871372 c 0.03571,0.66108 0.107126,1.982959 0.326927,2.849521 0.2198,0.866561 0.587739,1.277787 0.97734,1.483264 0.389602,0.205477 0.800828,0.205477 1.644945,0.173004 0.844118,-0.03247 2.121082,-0.0974 3.084239,-0.151514 0.963158,-0.05411 1.612462,-0.0974 2.012738,-0.71414 0.400276,-0.616741 0.551781,-1.807131 0.58428,-2.726969 0.0325,-0.919839 -0.05407,-1.569143 0.151604,-1.980553 0.205679,-0.41141 0.703479,-0.584557 1.255455,-0.681933 0.551975,-0.09737 1.157992,-0.119018 1.515021,0.140872 0.357029,0.25989 0.465246,0.800976 0.519325,1.526035 0.05408,0.72506 0.05408,1.634085 0.162384,2.294254 0.108305,0.660168 0.32474,1.071394 0.995758,1.266029 0.671019,0.194634 1.79648,0.172991 2.770454,0.129696 0.973975,-0.0433 1.796427,-0.108225 2.402437,-0.183992 0.60601,-0.07577 0.995591,-0.16234 1.125365,-1.060416 0.129775,-0.898075 -8.6e-5,-2.607908 -0.108292,-3.722566 -0.108206,-1.114657 -0.194779,-1.6341 -0.421909,-1.980479 -0.22713,-0.34638 -0.59507,-0.519528 -1.698963,-0.541254 -1.103894,-0.02173 -2.943589,0.108134 -3.89607,0.259725 -0.952482,0.151591 -1.017412,0.324738 -1.060686,0.508756 -0.04327,0.184019 -0.06492,0.378811 -0.367774,0.432825 -0.302858,0.05402 -0.887233,-0.03256 -1.482508,0.01068 -0.595274,0.04324 -1.201289,0.21639 -1.612544,0.346252 -0.411255,0.129862 -0.627691,0.216437 -0.887361,0.09756 -0.259671,-0.118881 -0.562679,-0.443533 -1.374343,-0.562718 -0.811664,-0.119186 -2.131915,-0.03261 -3.23576,0.03232 -1.103845,0.06493 -1.991228,0.108221 -2.524895,0.453824 -0.533668,0.345603 -0.713296,0.993304 -0.803088,1.317072 -0.08979,0.323769 -0.08979,0.323765 -0.05408,0.984844 z"
       id="path16652"
       inkscape:original-d="m 75.214296,87.210293 c 0.07168,1.322145 0.14309,2.644025 0.214238,3.96564 0.368218,0.411507 0.736157,0.822733 1.103838,1.233701 0.411507,2.65e-4 0.822733,2.65e-4 1.233702,0 1.27728,-0.06467 2.554244,-0.129598 3.83097,-0.194794 0.649594,-0.04302 1.298898,-0.08631 1.94795,-0.129863 0.151775,-1.190174 0.303279,-2.380564 0.454522,-3.571243 -0.08631,-0.649065 -0.172886,-1.298369 -0.259727,-1.947951 0.498084,-0.17289 0.995884,-0.346037 1.49343,-0.519453 0.606304,-0.02138 1.212321,-0.04302 1.818087,-0.06493 0.108485,0.541373 0.216702,1.082459 0.324657,1.623292 2.65e-4,0.909327 2.65e-4,1.818352 0,2.727131 0.216707,0.411507 0.433144,0.822732 0.649317,1.233702 1.12577,-0.02138 2.251231,-0.04302 3.376448,-0.06493 0.822749,-0.06467 1.645201,-0.129599 2.467404,-0.194795 0.389864,-0.08631 0.779444,-0.172886 1.16877,-0.259726 -0.1296,-1.709638 -0.259461,-3.419471 -0.389591,-5.129604 -0.08631,-0.519199 -0.172884,-1.038642 -0.259725,-1.55836 -0.367689,-0.17289 -0.735629,-0.346038 -1.103839,-0.519454 -1.839503,0.130131 -3.679198,0.259992 -5.519193,0.38959 -0.06467,0.17342 -0.129598,0.346568 -0.194796,0.519454 -0.02138,0.195063 -0.04302,0.389855 -0.06493,0.584385 -0.584131,-0.08631 -1.168506,-0.172886 -1.753155,-0.259727 -0.605777,0.17342 -1.211792,0.346567 -1.818087,0.519454 -0.216178,0.08684 -0.432613,0.173416 -0.649316,0.259727 -0.302756,-0.324401 -0.605765,-0.649053 -0.909044,-0.973976 -1.32004,0.08684 -2.640291,0.173416 -3.960833,0.259727 -0.887153,0.04355 -1.774535,0.08684 -2.662199,0.129863 -0.179371,0.647993 -0.358999,1.295694 -0.538896,1.943144 z"
       inkscape:path-effect="#path-effect16654" />
    <path
       style="fill:url(#linearGradient17052);fill-opacity:1;stroke:#000000;stroke-width:0.527717;stroke-linecap:round"
       d="m 76.578231,86.78429 c -0.03234,0.327053 -0.09698,0.98089 -0.118514,1.622645 -0.02153,0.641755 1.9e-5,1.271365 0.08631,1.719383 0.08629,0.448019 0.237129,0.714392 0.818993,0.82319 0.581864,0.108798 1.59465,0.06037 2.370416,0.01193 0.775766,-0.04844 1.314483,-0.09687 1.756144,-0.242171 0.441661,-0.145302 0.786439,-0.387459 1.012672,-0.968514 0.226232,-0.581054 0.333975,-1.501253 0.280182,-2.239811 -0.05379,-0.738558 -0.269279,-1.29552 -1.066549,-1.549967 -0.797271,-0.254448 -2.176385,-0.206016 -3.124617,-0.07284 -0.948233,0.133171 -1.465401,0.351113 -1.724048,0.46011 -0.258648,0.108998 -0.25865,0.108998 -0.290987,0.436051 z"
       id="path17019"
       inkscape:path-effect="#path-effect17021"
       inkscape:original-d="m 76.610568,86.457237 c -0.06439,0.654134 -0.129031,1.307972 -0.193942,1.961514 0.02181,0.62993 0.04336,1.25954 0.06465,1.888866 0.151109,0.266679 0.30195,0.533052 0.45253,0.799134 1.013091,-0.04813 2.025877,-0.09657 3.038422,-0.145297 0.539001,-0.04813 1.077717,-0.09657 1.616181,-0.145297 0.345056,-0.241871 0.689834,-0.484029 1.034356,-0.726486 0.108011,-0.919939 0.215754,-1.840138 0.323236,-2.760649 -0.215232,-0.556689 -0.430718,-1.113651 -0.646473,-1.67092 -1.378905,0.04873 -2.758019,0.09716 -4.137424,0.145297 -0.516925,0.218247 -1.034093,0.436188 -1.551534,0.653838 z" />
    <path
       style="fill:url(#linearGradient17091);fill-opacity:1;stroke:#000000;stroke-width:0.533668;stroke-linecap:round"
       d="m 88.015996,86.097754 c -0.03231,0.334787 -0.09689,1.004085 -0.118404,1.661014 -0.02151,0.656928 1.6e-5,1.301425 0.08622,1.760037 0.08621,0.458611 0.236903,0.731284 0.818218,0.842655 0.581314,0.111371 1.593144,0.06179 2.368177,0.01221 0.775033,-0.04958 1.31324,-0.09916 1.754481,-0.247895 0.441241,-0.148736 0.785694,-0.396619 1.011716,-0.991415 0.226023,-0.594796 0.333664,-1.536753 0.279922,-2.292776 -0.05374,-0.756023 -0.269026,-1.326155 -1.065543,-1.586617 -0.796517,-0.260463 -2.174328,-0.210886 -3.121668,-0.07457 -0.94734,0.136321 -1.464019,0.359415 -1.722419,0.470989 -0.258401,0.111574 -0.258395,0.111574 -0.290701,0.446361 z"
       id="path17019-7"
       inkscape:path-effect="#path-effect17021-4"
       inkscape:original-d="m 88.048302,85.762967 c -0.06432,0.669602 -0.128909,1.3389 -0.193758,2.007895 0.02179,0.644826 0.04332,1.289322 0.06458,1.933529 0.150967,0.272985 0.301666,0.545657 0.452103,0.81803 1.012134,-0.04927 2.023964,-0.09885 3.035552,-0.148732 0.538492,-0.04927 1.076699,-0.09885 1.614655,-0.148733 0.34473,-0.24759 0.689182,-0.495474 1.033379,-0.743665 0.107908,-0.941691 0.21555,-1.883648 0.32293,-2.825925 -0.215028,-0.569852 -0.430311,-1.139984 -0.645862,-1.710429 -1.377603,0.04988 -2.755414,0.09946 -4.133516,0.148732 -0.516437,0.223408 -1.033116,0.446502 -1.550069,0.669298 z" />
  </g>
</svg>
