<?xml version="1.0" encoding="UTF-8" standalone="no"?>
<svg
   width="59.838291mm"
   height="133.37207mm"
   viewBox="0 0 59.838291 133.37207"
   version="1.1"
   id="svg5"
   inkscape:version="1.2.1 (9c6d41e410, 2022-07-14)"
   sodipodi:docname="client0.svg"
   xmlns:inkscape="http://www.inkscape.org/namespaces/inkscape"
   xmlns:sodipodi="http://sodipodi.sourceforge.net/DTD/sodipodi-0.dtd"
   xmlns="http://www.w3.org/2000/svg"
   xmlns:svg="http://www.w3.org/2000/svg"
   xmlns:rdf="http://www.w3.org/1999/02/22-rdf-syntax-ns#"
   xmlns:cc="http://creativecommons.org/ns#"
   xmlns:dc="http://purl.org/dc/elements/1.1/">
  <metadata
     id="metadata847">
    <rdf:RDF>
      <cc:Work
         rdf:about="">
        <dc:format>image/svg+xml</dc:format>
        <dc:type
           rdf:resource="http://purl.org/dc/dcmitype/StillImage" />
      </cc:Work>
    </rdf:RDF>
  </metadata>
  <sodipodi:namedview
     id="namedview7"
     pagecolor="#ffffff"
     bordercolor="#000000"
     borderopacity="0.25"
     inkscape:showpageshadow="2"
     inkscape:pageopacity="0.0"
     inkscape:pagecheckerboard="0"
     inkscape:deskcolor="#d1d1d1"
     inkscape:document-units="mm"
     showgrid="false"
     inkscape:zoom="1.4406577"
     inkscape:cx="222.81489"
     inkscape:cy="231.83855"
     inkscape:window-width="1920"
     inkscape:window-height="1017"
     inkscape:window-x="-8"
     inkscape:window-y="-8"
     inkscape:window-maximized="1"
     inkscape:current-layer="layer1"
     inkscape:document-rotation="0"
     fit-margin-top="0"
     fit-margin-left="0"
     fit-margin-right="0"
     fit-margin-bottom="0" />
  <defs
     id="defs2">
    <inkscape:path-effect
       effect="bspline"
       id="path-effect2860"
       is_visible="true"
       lpeversion="1"
       weight="33.333333"
       steps="2"
       helper_size="0"
       apply_no_weight="true"
       apply_with_weight="true"
       only_selected="false" />
    <inkscape:path-effect
       effect="bspline"
       id="path-effect2856"
       is_visible="true"
       lpeversion="1"
       weight="33.333333"
       steps="2"
       helper_size="0"
       apply_no_weight="true"
       apply_with_weight="true"
       only_selected="false" />
    <inkscape:path-effect
       effect="bspline"
       id="path-effect2852"
       is_visible="true"
       lpeversion="1"
       weight="33.333333"
       steps="2"
       helper_size="0"
       apply_no_weight="true"
       apply_with_weight="true"
       only_selected="false" />
    <inkscape:path-effect
       effect="bspline"
       id="path-effect301"
       is_visible="true"
       lpeversion="1"
       weight="33.333333"
       steps="2"
       helper_size="0"
       apply_no_weight="true"
       apply_with_weight="true"
       only_selected="false" />
  </defs>
  <g
     inkscape:label="Calque 1"
     inkscape:groupmode="layer"
     id="layer1"
     transform="translate(-54.850658,-64.24852)">
    <g
       id="g851"
       transform="matrix(0.67643643,0,0,0.67643643,18.10298,22.382005)">
      <ellipse
         style="fill:#ffcded;fill-opacity:1;stroke:#000000;stroke-width:0.765"
         id="path234"
         cx="99.887093"
         cy="100.95161"
         rx="30.693548"
         ry="27.854837" />
      <path
         id="rect288"
         style="fill:#ffcded;fill-opacity:1;stroke:#000000;stroke-width:0.765"
         d="m 58.716531,150.42069 c 14.235114,-26.18752 69.171539,-28.9568 80.548389,-1.40699 6.62184,16.0352 0.70968,109.31505 0.70968,109.31505 l -80.548392,0.34866 c 0,0 -8.938432,-93.11876 -0.709677,-108.25672 z"
         sodipodi:nodetypes="ssccs" />
    </g>
    <path
       id="rect288-9"
       style="fill:#050505;fill-opacity:1;stroke:#000000;stroke-width:0.517474"
       d="m 57.464699,124.11108 c 2.126558,-3.91211 11.704849,-11.91834 15.748602,-12.03342 5.377622,-0.15305 6.133451,11.18211 12.850691,11.13021 4.380968,-0.0339 8.259465,-9.84354 12.246597,-10.47932 6.117941,-0.97556 11.378101,4.95351 13.639971,10.43079 4.47925,10.8468 0.48006,73.94468 0.48006,73.94468 l -54.485871,0.23585 c 0,0 -6.046277,-62.98892 -0.48005,-73.22879 z"
       sodipodi:nodetypes="sssssccs" />
    <path
       id="path2736"
       style="fill:#ffffff;stroke:#000000;stroke-width:0.132291;stroke-linecap:round"
       inkscape:transform-center-x="-0.8264452"
       inkscape:transform-center-y="3.8756402"
       d="m 86.244557,145.58137 -11.221759,-34.12195 11.043765,10.0788 11.950717,-9.41977 z"
       sodipodi:nodetypes="ccccc" />
    <path
       style="fill:#4e2d00;fill-opacity:1;stroke:#000000;stroke-width:0.5;stroke-linecap:round;stroke-linejoin:miter;stroke-dasharray:none"
       d="m 65.338614,89.413771 c 1.62238,0.336562 5.111816,-0.765365 7.835969,-2.20399 2.724153,-1.438625 4.683096,-3.213917 6.580871,-5.019866 1.897775,-1.805948 3.734284,-3.642457 4.989246,-5.019853 1.254962,-1.377395 1.928349,-2.295649 3.27524,0.214492 1.346891,2.510141 3.367051,8.448185 5.387375,11.937555 2.020324,3.489369 4.040484,4.530057 6.183134,5.907515 2.142651,1.377458 4.407671,3.091529 5.723701,2.693585 1.31604,-0.397944 1.68334,-2.907839 1.49971,-6.51972 -0.18362,-3.611881 -0.91822,-8.325586 -2.50979,-11.325356 -1.59156,-2.99977 -4.04024,-4.285328 -5.0811,-5.111859 -1.040861,-0.826531 -0.673561,-1.193833 -0.06125,-1.408106 0.612314,-0.214274 1.469348,-0.27549 2.234458,-0.673402 0.7651,-0.397911 1.43849,-1.132516 1.59159,-2.050646 0.1531,-0.918129 -0.2142,-2.020035 -1.10178,-3.030204 -0.88758,-1.010169 -2.295564,-1.928421 -3.917863,-2.601889 -1.622298,-0.673468 -3.458808,-1.101987 -4.499686,-0.153001 -1.040878,0.948987 -1.285746,3.275231 -0.979478,4.683226 0.306267,1.407995 1.163306,1.897732 -0.152918,1.560983 -1.316223,-0.336748 -4.80559,-1.49987 -8.999184,-0.948964 -4.193595,0.550906 -9.090951,2.815933 -12.396835,5.632082 -3.305884,2.816148 -5.019959,6.183081 -5.999441,8.754323 -0.979482,2.571241 -1.22435,4.346533 0.398029,4.683095 z"
       id="path299"
       inkscape:path-effect="#path-effect301"
       inkscape:original-d="m 63.471393,90.852312 c 3.489701,-1.101662 6.979137,-2.203589 10.468309,-3.305781 1.959285,-1.775098 3.918228,-3.55039 5.876945,-5.325982 1.836847,-1.836317 3.673356,-3.672826 5.509635,-5.509636 0.67368,-0.918026 1.347066,-1.836281 2.0202,-2.754818 2.020506,5.938547 4.040666,11.876591 6.060601,17.81449 2.020504,1.040994 4.040664,2.081683 6.060599,3.122127 2.265388,1.714408 4.530408,3.428482 6.795218,5.142328 0.36758,-2.509732 0.73488,-5.019627 1.10193,-7.529837 -0.73437,-4.713629 -1.46897,-9.427335 -2.20386,-14.141399 -2.44851,-1.285343 -4.89719,-2.570899 -7.346177,-3.856745 0.36758,-0.367052 0.73488,-0.734354 1.101926,-1.101928 0.857337,-0.06095 1.714371,-0.122171 2.571161,-0.183654 0.67368,-0.734368 1.34707,-1.468972 2.0202,-2.203855 -0.36705,-1.101684 -0.73435,-2.20359 -1.10192,-3.305781 -1.40779,-0.918027 -2.815777,-1.836281 -4.224059,-2.754818 -1.836317,-0.428272 -3.672827,-0.85679 -5.509636,-1.285582 -0.244613,2.326602 -0.489482,4.652846 -0.734618,6.978872 0.857334,0.49002 1.714373,0.979756 2.571162,1.469237 -3.48924,-1.162904 -6.978607,-2.326027 -10.468308,-3.489437 -4.897287,2.265383 -9.794644,4.53041 -14.692363,6.795218 -1.713878,3.367332 -3.427953,6.734265 -5.142327,10.101 -0.244613,1.775627 -0.48948,3.550919 -0.734618,5.325981 z" />
    <path
       id="path2405"
       style="fill:#ffffff;fill-opacity:1;stroke:#000000;stroke-width:0.132291;stroke-linecap:round"
       inkscape:transform-center-x="1.6928584"
       inkscape:transform-center-y="-1.5674203"
       d="m 85.877247,121.97711 -13.119407,-9.53733 4.383924,-2.78025 z"
       sodipodi:nodetypes="cccc" />
    <path
       id="path2405-6"
       style="fill:#ffffff;fill-opacity:1;stroke:#000000;stroke-width:0.132291;stroke-linecap:round"
       inkscape:transform-center-x="-1.6928616"
       inkscape:transform-center-y="-1.5674203"
       d="m 85.791887,121.95364 13.854029,-9.72098 -3.098342,-3.33122 z"
       sodipodi:nodetypes="cccc" />
    <path
       style="fill:#050505;fill-opacity:1;stroke:#000000;stroke-width:0.499999;stroke-linecap:round;stroke-linejoin:miter;stroke-dasharray:none"
       d="m 95.794591,72.11955 c -3.121836,-2.509712 -6.243964,-5.019658 -9.36638,-7.529836"
       id="path2850"
       inkscape:path-effect="#path-effect2852"
       inkscape:original-d="m 95.794591,72.11955 c -3.121861,-2.509681 -6.24399,-5.019626 -9.36638,-7.529836" />
    <path
       style="fill:#050505;fill-opacity:1;stroke:#000000;stroke-width:0.499999;stroke-linecap:round;stroke-linejoin:miter;stroke-dasharray:none"
       d="m 99.284027,73.77244 c 2.387813,1.653101 4.775323,3.305993 7.162523,4.958673"
       id="path2854"
       inkscape:path-effect="#path-effect2856"
       inkscape:original-d="m 99.284027,73.77244 c 2.387773,1.653156 4.775283,3.306047 7.162523,4.958673" />
  </g>
</svg>
