<?xml version="1.0" encoding="UTF-8" standalone="no"?>
<!-- Created with Inkscape (http://www.inkscape.org/) -->

<svg
   width="113.01871mm"
   height="175.4501mm"
   viewBox="0 0 113.01873 175.4501"
   version="1.1"
   id="svg5"
   inkscape:version="1.2.1 (9c6d41e410, 2022-07-14)"
   sodipodi:docname="cup.svg"
   xml:space="preserve"
   xmlns:inkscape="http://www.inkscape.org/namespaces/inkscape"
   xmlns:sodipodi="http://sodipodi.sourceforge.net/DTD/sodipodi-0.dtd"
   xmlns="http://www.w3.org/2000/svg"
   xmlns:svg="http://www.w3.org/2000/svg"><sodipodi:namedview
     id="namedview7"
     pagecolor="#ffffff"
     bordercolor="#000000"
     borderopacity="0.25"
     inkscape:showpageshadow="2"
     inkscape:pageopacity="0.0"
     inkscape:pagecheckerboard="0"
     inkscape:deskcolor="#d1d1d1"
     inkscape:document-units="mm"
     showgrid="false"
     inkscape:zoom="0.74564394"
     inkscape:cx="59.679959"
     inkscape:cy="426.47701"
     inkscape:window-width="1920"
     inkscape:window-height="1017"
     inkscape:window-x="-8"
     inkscape:window-y="-8"
     inkscape:window-maximized="1"
     inkscape:current-layer="layer1" /><defs
     id="defs2"><inkscape:path-effect
       effect="bspline"
       id="path-effect24043"
       is_visible="true"
       lpeversion="1"
       weight="33.333333"
       steps="2"
       helper_size="0"
       apply_no_weight="true"
       apply_with_weight="true"
       only_selected="false" /><inkscape:path-effect
       effect="bspline"
       id="path-effect24039"
       is_visible="true"
       lpeversion="1"
       weight="33.333333"
       steps="2"
       helper_size="0"
       apply_no_weight="true"
       apply_with_weight="true"
       only_selected="false" /><inkscape:path-effect
       effect="bspline"
       id="path-effect24035"
       is_visible="true"
       lpeversion="1"
       weight="33.333333"
       steps="2"
       helper_size="0"
       apply_no_weight="true"
       apply_with_weight="true"
       only_selected="false" /><inkscape:path-effect
       effect="bspline"
       id="path-effect24031"
       is_visible="true"
       lpeversion="1"
       weight="33.333333"
       steps="2"
       helper_size="0"
       apply_no_weight="true"
       apply_with_weight="true"
       only_selected="false" /><inkscape:path-effect
       effect="bspline"
       id="path-effect23973"
       is_visible="true"
       lpeversion="1"
       weight="33.333333"
       steps="2"
       helper_size="0"
       apply_no_weight="true"
       apply_with_weight="true"
       only_selected="false" /><inkscape:path-effect
       effect="bspline"
       id="path-effect23587"
       is_visible="true"
       lpeversion="1"
       weight="33.333333"
       steps="2"
       helper_size="0"
       apply_no_weight="true"
       apply_with_weight="true"
       only_selected="false" /><inkscape:path-effect
       effect="bspline"
       id="path-effect21071"
       is_visible="true"
       lpeversion="1"
       weight="33.333333"
       steps="2"
       helper_size="0"
       apply_no_weight="true"
       apply_with_weight="true"
       only_selected="false" /><inkscape:path-effect
       effect="bspline"
       id="path-effect20439"
       is_visible="true"
       lpeversion="1"
       weight="33.333333"
       steps="2"
       helper_size="0"
       apply_no_weight="true"
       apply_with_weight="true"
       only_selected="false" /><inkscape:path-effect
       effect="bspline"
       id="path-effect19760"
       is_visible="true"
       lpeversion="1"
       weight="33.333333"
       steps="2"
       helper_size="0"
       apply_no_weight="true"
       apply_with_weight="true"
       only_selected="false" /><inkscape:path-effect
       effect="bspline"
       id="path-effect19756"
       is_visible="true"
       lpeversion="1"
       weight="33.333333"
       steps="2"
       helper_size="0"
       apply_no_weight="true"
       apply_with_weight="true"
       only_selected="false" /><inkscape:path-effect
       effect="bspline"
       id="path-effect19726"
       is_visible="true"
       lpeversion="1"
       weight="33.333333"
       steps="2"
       helper_size="0"
       apply_no_weight="true"
       apply_with_weight="true"
       only_selected="false" /><inkscape:path-effect
       effect="bspline"
       id="path-effect18108"
       is_visible="true"
       lpeversion="1"
       weight="33.333333"
       steps="2"
       helper_size="0"
       apply_no_weight="true"
       apply_with_weight="true"
       only_selected="false" /><inkscape:path-effect
       effect="bend_path"
       id="path-effect11306"
       is_visible="true"
       lpeversion="1"
       bendpath="m 78.410269,197.64293 c 24.285981,10.65118 43.502971,11.68359 64.526631,-1.06451"
       prop_scale="1"
       scale_y_rel="false"
       vertical="false"
       hide_knot="false"
       bendpath-nodetypes="cc" /><inkscape:path-effect
       effect="envelope"
       id="path-effect8787"
       is_visible="true"
       lpeversion="1"
       yy="true"
       xx="true"
       bendpath1="M 53.225692,12.060246 140.28703,-2.8429798"
       bendpath2="M 144.54509,-6.3913669 134.25477,52.161251"
       bendpath3="M 53.225692,27.67738 H 139.22251"
       bendpath4="M 53.225692,12.060246 V 27.67738"
       bendpath1-nodetypes="cc"
       bendpath2-nodetypes="cc" /><inkscape:path-effect
       effect="bend_path"
       id="path-effect8755"
       is_visible="true"
       lpeversion="1"
       bendpath="M 38.661778,99.25872 C 61.019447,52.06657 133.68388,41.300587 164.33484,101.38775"
       prop_scale="1.2421005"
       scale_y_rel="false"
       vertical="false"
       hide_knot="false"
       bendpath-nodetypes="cc" /><rect
       x="211.89738"
       y="89.855217"
       width="587.41174"
       height="97.901955"
       id="rect6142" /><rect
       x="120.70104"
       y="89.855217"
       width="628.98651"
       height="88.514099"
       id="rect6136" /><inkscape:path-effect
       effect="bspline"
       id="path-effect18108-0"
       is_visible="true"
       lpeversion="1"
       weight="33.333333"
       steps="2"
       helper_size="0"
       apply_no_weight="true"
       apply_with_weight="true"
       only_selected="false" /><inkscape:path-effect
       effect="bspline"
       id="path-effect19726-3"
       is_visible="true"
       lpeversion="1"
       weight="33.333333"
       steps="2"
       helper_size="0"
       apply_no_weight="true"
       apply_with_weight="true"
       only_selected="false" /><inkscape:path-effect
       effect="bspline"
       id="path-effect24043-7"
       is_visible="true"
       lpeversion="1"
       weight="33.333333"
       steps="2"
       helper_size="0"
       apply_no_weight="true"
       apply_with_weight="true"
       only_selected="false" /></defs><g
     inkscape:label="Calque 1"
     inkscape:groupmode="layer"
     id="layer1"
     transform="translate(-40.69632,-62.74494)"><path
       id="rect111"
       style="fill:#784604;fill-opacity:1;stroke:#000000;stroke-width:0.765;stroke-dasharray:none;stroke-opacity:1"
       d="M 41.516125,81.258064 H 153.29032 c 0,0 -15.44771,147.301586 -20.10833,152.754966 -4.66062,5.45338 -63.252973,4.66327 -70.499198,0 C 55.436567,229.34976 41.516125,81.258064 41.516125,81.258064 Z"
       sodipodi:nodetypes="cczzc" /><ellipse
       style="fill:#ebebeb;fill-opacity:1;stroke:#000000;stroke-width:0.765;stroke-dasharray:none;stroke-opacity:1"
       id="path991"
       cx="96.870964"
       cy="80.193542"
       rx="55.186691"
       ry="11.709678" /><path
       id="rect4637"
       style="fill:#ebebeb;stroke:#000000;stroke-width:0.765"
       d="m 50.89423,68.966827 c 2.768341,6.895728 90.23548,6.959287 93.10498,0 0.54222,-1.315034 0,9.269086 0,9.269086 -1.54641,7.441166 -89.966377,6.861318 -93.10498,0.529167 -1.920479,-3.874578 -0.893602,-12.024148 0,-9.798253 z"
       sodipodi:nodetypes="sssss" /><path
       id="rect5372"
       style="fill:#ebebeb;stroke:#000000;stroke-width:0.765"
       d="m 41.979988,82.108221 c 1.194297,6.612155 105.095352,7.141322 108.418672,0.529167 3.32332,-6.612155 2.24645,6.97936 2.11667,11.367205 -0.12978,4.387845 -110.57989,5.452361 -111.064509,0 -0.484619,-5.452361 -0.66513,-18.508527 0.529167,-11.896372 z"
       sodipodi:nodetypes="zzzzz" /><path
       id="rect5374"
       style="fill:#ffe5bd;fill-opacity:1;stroke:#000000;stroke-width:0.765"
       d="m 44.644371,113.52071 c 3.592243,8.61766 103.669729,3.28865 105.032259,0 3.41753,-8.24867 -9.67794,99.14194 -13.12285,106.80645 -3.33951,7.43001 -64.967415,13.01155 -78.151076,0 C 52.371636,214.37483 43.755065,111.3873 44.644371,113.52071 Z"
       sodipodi:nodetypes="sssss" /><ellipse
       style="fill:#eaeaea;fill-opacity:1;stroke:#000000;stroke-width:0.765;stroke-dasharray:none;stroke-opacity:1"
       id="path11302"
       cx="97.337921"
       cy="69.159698"
       rx="46.661289"
       ry="6.032258" /><g
       inkscape:label="Calque 1"
       id="layer1-7"
       transform="matrix(0.45363587,0,0,0.45363587,46.247365,105.39586)"><ellipse
         style="fill:#288816;fill-opacity:1;stroke:#000000;stroke-width:1;stroke-dasharray:none"
         id="path234"
         cx="108.58064"
         cy="137.5"
         rx="89.774193"
         ry="91.016121" /><ellipse
         style="fill:#ffffff;fill-opacity:1;stroke:#000000;stroke-width:1;stroke-dasharray:none"
         id="path234-2"
         cx="108.36929"
         cy="137.80173"
         rx="86.598335"
         ry="87.796326" /><ellipse
         style="fill:#288816;fill-opacity:1;stroke:#000000;stroke-width:1;stroke-dasharray:none"
         id="path234-2-2"
         cx="108.1256"
         cy="137.98767"
         rx="83.661163"
         ry="84.81852" /><ellipse
         style="fill:#ffffff;fill-opacity:1;stroke:#000000;stroke-width:1;stroke-dasharray:none"
         id="path234-2-2-4"
         cx="108.45928"
         cy="138.14818"
         rx="51.200699"
         ry="51.909" /><text
         xml:space="preserve"
         transform="scale(0.26458333)"
         id="text6134"
         style="white-space:pre;shape-inside:url(#rect6136);display:inline;fill:#ffffff;fill-opacity:1;stroke:#000000;stroke-width:3.77953;stroke-dasharray:none" /><path
         id="path8706"
         style="font-size:74.6667px;font-family:Impact;-inkscape-font-specification:Impact;white-space:pre;fill:#ffffff;stroke:#000000;stroke-width:1"
         d="m 32.177579,89.861886 c -0.764372,1.339213 -1.042391,2.625925 -0.85149,3.801554 0.187694,1.166364 0.636833,2.011392 1.308237,2.5487 0.675906,0.54091 1.845572,1.196429 3.525612,1.988846 l 5.212764,2.458684 c 1.20391,0.56784 2.13278,0.96135 2.769349,1.17789 0.632079,0.21405 1.287383,0.31366 1.96359,0.30953 0.676338,-0.004 1.324082,-0.16433 1.948076,-0.47146 0.620191,-0.31646 1.07929,-0.7465 1.389125,-1.3042 0.260117,-0.468208 0.363635,-0.941772 0.309587,-1.4321 -0.05777,-0.499001 -0.271491,-1.018333 -0.641805,-1.559267 0.458229,0.138703 0.915279,0.280057 1.37113,0.424045 0.425261,-0.683718 0.865553,-1.358941 1.320284,-2.025114 l -8.597311,-5.863308 c -0.997786,1.463125 -1.938549,2.965124 -2.818473,4.502431 l 2.556618,1.463244 c 0.145014,-0.253435 0.291777,-0.505884 0.440271,-0.757328 l 1.979528,1.169206 c 0.775714,0.458174 1.271774,0.8165 1.484179,1.067401 0.216533,0.246392 0.251011,0.495102 0.105328,0.749275 -0.13303,0.232097 -0.338526,0.320763 -0.619258,0.266182 -0.286494,-0.05825 -0.812614,-0.299219 -1.571374,-0.723132 l -8.122821,-4.538148 c -0.864995,-0.483264 -1.373874,-0.829527 -1.529749,-1.0429 -0.155205,-0.212452 -0.157704,-0.452475 -0.0055,-0.717972 0.175685,-0.306416 0.409958,-0.428536 0.698182,-0.368172 0.289627,0.06066 0.909593,0.371931 1.867174,0.934826 l 1.517452,0.892004 c 0.787675,-1.339744 1.620223,-2.652384 2.495266,-3.9357 l -0.692682,-0.472404 c -1.314851,-0.89672 -2.387992,-1.459803 -3.242015,-1.683434 -0.856456,-0.226991 -1.811893,-0.104362 -2.854008,0.401605 -1.04066,0.505262 -1.963359,1.421806 -2.715286,2.739216 z M 68.335663,57.091832 c -1.014655,0.458583 -1.826987,1.056582 -2.426162,1.773348 -0.595931,0.706533 -0.949558,1.463066 -1.067684,2.257014 -0.111172,0.790581 -0.03316,1.51628 0.220217,2.178219 0.250506,0.657372 0.709292,1.593951 1.378624,2.823825 l 2.709019,4.977727 c 0.906223,1.665153 1.708546,2.863731 2.374029,3.579205 0.66537,0.712374 1.453069,1.130297 2.354645,1.272952 0.904131,0.143059 1.851575,-0.02356 2.880853,-0.486239 0.990076,-0.445054 1.7071,-1.081663 2.171883,-1.945575 0.469853,-0.864915 0.678724,-1.725713 0.598469,-2.590713 -0.07369,-0.860886 -0.449162,-2.249106 -1.132584,-4.128122 l -0.258034,-0.709447 c -1.369107,0.497989 -2.722556,1.039123 -4.05749,1.622358 l 0.973826,2.228831 c 0.424877,0.97243 0.650748,1.613373 0.677454,1.914352 0.03277,0.299877 -0.08887,0.510191 -0.364155,0.634202 -0.286996,0.129286 -0.530794,0.08378 -0.733785,-0.139397 -0.202113,-0.222211 -0.504055,-0.762765 -0.90075,-1.616669 l -3.796382,-8.171875 c -0.414375,-0.89196 -0.634798,-1.492412 -0.660313,-1.807298 -0.02542,-0.31362 0.146243,-0.556437 0.516279,-0.722998 0.327279,-0.147315 0.588517,-0.126335 0.780368,0.05968 0.196559,0.176325 0.489354,0.713535 0.883086,1.614684 l 1.352923,3.09648 c 1.396193,-0.610046 2.81164,-1.175972 4.243483,-1.696733 L 76.422657,61.375238 C 75.801581,59.667633 75.213959,58.469765 74.635872,57.768147 74.058101,57.062791 73.214533,56.607494 72.09755,56.4321 c -1.115107,-0.175102 -2.384095,0.03703 -3.761887,0.659732 z m 31.547346,-7.154274 c -0.693216,0.01247 -1.336657,0.10491 -1.925031,0.273523 -0.363164,0.104865 -0.70516,0.238847 -1.025199,0.401162 -0.829209,0.415982 -1.45349,0.973312 -1.874844,1.657266 -0.41361,0.683568 -0.626278,1.381708 -0.652931,2.089793 -0.02754,0.70285 0.02724,1.744016 0.160684,3.137556 l 0.540096,5.640009 c 0.180666,1.886618 0.448564,3.303662 0.779315,4.222641 0.331927,0.916245 0.890751,1.6096 1.659987,2.095609 0.383767,0.242467 0.807606,0.41918 1.274127,0.533205 0.467954,0.114368 0.97903,0.164938 1.538997,0.155752 1.0724,-0.01759 1.97317,-0.317109 2.7362,-0.92475 0.76799,-0.606514 1.29877,-1.312223 1.56918,-2.137276 0.27462,-0.818221 0.48498,-2.241351 0.60957,-4.236227 l 0.0471,-0.753333 c -1.45117,-0.09065 -2.90517,-0.13278 -4.3587,-0.12577 l 0.0117,2.431897 c 0.005,1.060931 -0.041,1.739018 -0.13493,2.025855 -0.0879,0.288332 -0.28142,0.433306 -0.58096,0.438441 -0.312291,0.0054 -0.516731,-0.132621 -0.614534,-0.417764 -0.09731,-0.283809 -0.161299,-0.899744 -0.18898,-1.840703 l -0.264939,-9.005833 c -0.02892,-0.983049 0.0056,-1.621568 0.107112,-1.920997 0.100997,-0.298148 0.356216,-0.453519 0.764461,-0.460228 0.36105,-0.0059 0.59341,0.116772 0.69652,0.363492 0.11132,0.239766 0.16837,0.848789 0.17309,1.832104 l 0.0162,3.378598 c 1.52502,-0.0073 3.05009,0.03687 4.57188,0.131909 l 0.11503,-1.841696 c 0.11326,-1.81339 0.0536,-3.145779 -0.19779,-4.020002 -0.24954,-0.87727 -0.84511,-1.631798 -1.80706,-2.237408 -0.96026,-0.604547 -2.22037,-0.914268 -3.745321,-0.886825 z m 35.149181,7.750978 c -1.01174,-0.492234 -1.98561,-0.73873 -2.89755,-0.747311 -0.91283,-0.0086 -1.7237,0.211884 -2.42716,0.648802 -0.69622,0.44001 -1.23136,1.027548 -1.61666,1.750879 -0.37738,0.72303 -0.91555,1.980961 -1.62943,3.798498 l -1.21252,3.087069 c -0.72745,1.852066 -1.20457,3.179052 -1.42385,3.944276 -0.22089,0.770979 -0.26913,1.545687 -0.16206,2.322115 0.10709,0.776725 0.37874,1.443974 0.81215,2.00979 0.44278,0.561735 1.00954,1.006072 1.71146,1.348407 0.73966,0.360741 1.45809,0.531909 2.17774,0.511051 0.71854,-0.02083 1.40433,-0.22545 2.06112,-0.621788 0.38925,-0.231154 0.7472,-0.50608 1.07172,-0.827277 0.22794,-0.225737 0.4394,-0.474123 0.63332,-0.745937 0.47664,-0.658222 1.221,-1.837397 2.20918,-3.509765 l 1.68775,-2.856284 c 1.01814,-1.723062 1.68611,-2.940747 2.01304,-3.681272 0.12895,-0.292138 0.22586,-0.592273 0.28965,-0.900915 0.0963,-0.468112 0.11588,-0.955272 0.0547,-1.461444 -0.10142,-0.839195 -0.44621,-1.614036 -1.03751,-2.310406 -0.5798,-0.698932 -1.35502,-1.291392 -2.31509,-1.758488 z m 11.73729,7.145737 c -0.89677,-0.662833 -1.80284,-1.081572 -2.69354,-1.256986 -0.89099,-0.175468 -1.7263,-0.109049 -2.49614,0.190334 -0.7637,0.303941 -1.39566,0.782266 -1.90596,1.422529 -0.50242,0.64141 -1.26011,1.779099 -2.29252,3.434945 l -1.75345,2.81228 c -1.05192,1.687127 -1.76242,2.904116 -2.1171,3.615556 -0.35731,0.716849 -0.54565,1.468207 -0.5812,2.248394 -0.0356,0.780594 0.11094,1.48311 0.43612,2.116082 0.33513,0.63063 0.81482,1.169688 1.44788,1.634738 0.66716,0.490109 1.34888,0.791607 2.06561,0.90416 0.71576,0.1124 1.43074,0.03753 2.14919,-0.232741 0.72293,-0.266089 1.37758,-0.674801 1.95475,-1.239271 0.58355,-0.562615 1.51908,-1.589332 2.78132,-3.059607 l 2.15501,-2.510192 c 1.29974,-1.513964 2.16846,-2.593532 2.61865,-3.262203 0.44753,-0.66479 0.7055,-1.413519 0.75786,-2.251722 0.0523,-0.8378 -0.14278,-1.654048 -0.59166,-2.437582 -0.43725,-0.784087 -1.08393,-1.499792 -1.93482,-2.128714 z m 9.76376,8.460873 c -0.84958,-0.857482 -1.73156,-1.435157 -2.61773,-1.732257 -0.88178,-0.303263 -1.69669,-0.319906 -2.43605,-0.06389 -0.73651,0.262352 -1.58744,0.949639 -2.57405,2.057836 -0.68251,0.766619 -1.15242,1.481052 -1.41474,2.132479 -0.25729,0.657258 -0.37875,1.246876 -0.36442,1.76889 0.0148,0.538967 0.14878,1.450407 0.35458,2.82669 0.20746,1.344703 0.2516,2.256158 0.19012,2.687521 -0.0678,0.437311 -0.51513,1.045328 -1.34057,1.834898 -0.37458,0.358297 -0.70563,0.579045 -0.98955,0.662725 -0.27984,0.08853 -0.51341,0.03516 -0.70286,-0.159325 -0.18944,-0.194487 -0.24939,-0.403069 -0.18008,-0.627813 0.0737,-0.219443 0.36706,-0.58752 0.87986,-1.100201 l 1.66636,-1.66597 c -0.945,-0.946966 -1.91484,-1.866486 -2.90914,-2.756216 l -0.84412,0.9445 c -0.96408,1.078737 -1.62213,1.999208 -1.97467,2.739986 -0.35393,0.7437 -0.42852,1.552912 -0.24395,2.432355 0.18917,0.884157 0.64245,1.684217 1.36634,2.432813 0.65983,0.682359 1.38294,1.144416 2.19384,1.389839 0.8161,0.239849 1.55404,0.252197 2.21716,0.01735 0.66434,-0.228964 1.52946,-0.791459 2.57723,-1.689818 1.44648,-1.240215 2.32781,-2.320617 2.63357,-3.275989 0.29961,-0.936107 0.30231,-2.637203 -0.17089,-5.035542 -0.16754,-0.840748 -0.20211,-1.429653 -0.0807,-1.772822 0.11542,-0.346453 0.40053,-0.749775 0.85638,-1.206795 0.35495,-0.355867 0.67057,-0.570295 0.9495,-0.641517 0.28405,-0.06563 0.53093,0.0063 0.73742,0.215925 0.19016,0.193024 0.25885,0.395866 0.2076,0.606374 -0.0514,0.211051 -0.31833,0.547659 -0.80122,1.012919 l -1.0342,0.99643 c 1.01317,1.048979 1.99768,2.125215 2.95313,3.226362 l 0.58012,-0.502118 c 1.16764,-1.010653 1.89466,-1.830251 2.18069,-2.476594 0.29577,-0.642498 0.29921,-1.450391 -0.0131,-2.417162 -0.30663,-0.959984 -0.92301,-1.924397 -1.85183,-2.861864 z m 13.88079,18.12735 c -0.60186,-1.026696 -1.30346,-1.79286 -2.08156,-2.291864 -0.77212,-0.503795 -1.55343,-0.717002 -2.33381,-0.650605 -0.77885,0.07314 -1.78099,0.526437 -3.02235,1.353064 -0.85908,0.572058 -1.49835,1.146247 -1.91962,1.712695 -0.41776,0.573258 -0.68549,1.115545 -0.80324,1.626834 -0.12076,0.524373 -0.2211,1.452061 -0.35826,2.841277 -0.12825,1.36359 -0.30273,2.261373 -0.46648,2.66872 -0.17073,0.410124 -0.75259,0.894875 -1.74672,1.463703 -0.45125,0.25819 -0.8274,0.39244 -1.12551,0.40382 -0.29519,0.0171 -0.51165,-0.0931 -0.65171,-0.33145 -0.14006,-0.238366 -0.14977,-0.458628 -0.0284,-0.661584 0.12441,-0.196753 0.49991,-0.483012 1.12493,-0.856395 l 2.03069,-1.213127 c -0.69341,-1.159335 -1.4135,-2.302673 -2.1599,-3.42767 l -1.06112,0.704153 c -1.21238,0.804526 -2.08442,1.533511 -2.6127,2.168638 -0.52999,0.637182 -0.80078,1.413952 -0.82944,2.328692 -0.0253,0.920623 0.23324,1.827593 0.7739,2.749513 0.49271,0.84017 1.10099,1.47585 1.84331,1.91654 0.74873,0.43652 1.47122,0.62696 2.17415,0.55652 0.70336,-0.0644 1.67677,-0.40762 2.90523,-1.03613 1.6951,-0.86725 2.80347,-1.71364 3.32448,-2.57048 0.51184,-0.84176 0.91268,-2.491823 1.04134,-4.935258 0.0435,-0.856279 0.15686,-1.435708 0.35981,-1.739013 0.19816,-0.308165 0.57485,-0.630688 1.13083,-0.963734 0.43286,-0.259293 0.79253,-0.390623 1.0802,-0.392861 0.29125,0.0044 0.51153,0.132248 0.65871,0.383973 0.13556,0.231832 0.15167,0.444803 0.0496,0.636304 -0.10221,0.191951 -0.44422,0.454535 -1.02695,0.790352 l -1.24815,0.719273 c 0.72398,1.259135 1.41744,2.534065 2.08002,3.822448 l 0.68162,-0.352228 c 1.37161,-0.708793 2.27213,-1.334799 2.70525,-1.893377 0.4418,-0.552927 0.64248,-1.332284 0.58069,-2.337601 -0.058,-0.997598 -0.41089,-2.070723 -1.06887,-3.193142 z M 37.77586,82.06851 c 4.652797,4.570283 9.446382,8.975447 14.373635,13.207244 0.760082,-1.088432 1.558841,-2.151989 2.393637,-3.188207 -0.857384,-0.787739 -1.711824,-1.57893 -2.563303,-2.373552 0.307582,-0.378976 0.619687,-0.754421 0.936206,-1.126231 0.929141,0.701151 1.855925,1.405268 2.780339,2.112338 0.856912,-0.999459 1.747877,-1.971111 2.670344,-2.912574 -5.136684,-3.997291 -10.431293,-7.812852 -15.873957,-11.43701 -1.660485,1.829157 -3.235183,3.737394 -4.716901,5.717992 z m 7.344316,-8.474892 13.711432,13.724664 c 1.465239,-1.462711 3.007134,-2.849971 4.615804,-4.152552 l -2.442955,-3.017783 c -0.648174,0.524784 -1.286089,1.062439 -1.91321,1.612465 L 48.857779,70.093247 c -1.283507,1.125876 -2.530167,2.293406 -3.737603,3.500371 z m 8.726958,-7.528847 c 3.157038,5.710224 6.495421,11.304221 10.008029,16.773744 1.043279,-0.829715 2.113913,-1.623982 3.209261,-2.380335 -0.597439,-0.999907 -1.191071,-2.002252 -1.780879,-3.007015 0.402973,-0.275883 0.809115,-0.546963 1.218315,-0.813138 0.690487,0.937328 1.377828,1.87683 2.062008,2.818491 0.03342,-0.02159 0.06686,-0.04314 0.100322,-0.06466 1.075877,-0.691774 2.175257,-1.349498 3.295344,-1.97215 -3.788306,-5.292269 -7.776149,-10.457865 -11.958564,-15.48486 -0.613226,0.371048 -1.221654,0.750459 -1.825071,1.138155 -1.476886,0.948858 -2.920664,1.946912 -4.328765,2.991763 z m 21.216259,-11.227445 1.283783,3.663988 c 0.904124,-0.316716 1.814167,-0.616547 2.729538,-0.899278 l 4.581201,14.825552 c 1.23556,-0.382151 2.482746,-0.725282 3.738703,-1.028349 L 83.762786,56.315598 c 0.935508,-0.225201 1.875381,-0.432792 2.81902,-0.622555 L 85.815984,51.88799 c -3.649445,0.733538 -7.243582,1.720282 -10.752591,2.949336 z m 11.896766,-3.170675 3.54931,19.067118 c 1.268279,-0.236476 2.542979,-0.43204 3.821242,-0.585648 L 92.014918,50.893238 c -1.693944,0.203861 -3.379815,0.462013 -5.054759,0.773413 z m 25.299361,-0.543666 -2.77201,19.198589 c 1.10948,0.160091 2.21452,0.352319 3.3129,0.576278 l 2.55991,-12.536173 c -0.28859,4.294085 -0.6807,8.57404 -1.17581,12.835999 0.7748,0.177753 1.54578,0.371382 2.31215,0.580741 1.58369,-4.091478 3.26381,-8.150881 5.03957,-12.1747 l -3.74919,12.543389 c 1.07299,0.320139 2.13594,0.671393 3.18663,1.053355 l 6.63177,-18.21957 c -2.10047,-0.765269 -4.23269,-1.437875 -6.38932,-2.016466 -1.1583,2.814593 -2.27308,5.644049 -3.3441,8.487334 0.19957,-1.646062 0.38428,-3.294917 0.55412,-4.946357 0.16974,-1.584753 0.28908,-2.970976 0.36404,-4.149775 -2.15793,-0.504466 -4.33721,-0.915788 -6.53066,-1.232644 z m 49.11319,28.107918 -14.95804,12.377384 c 1.45208,1.767166 2.82886,3.613402 4.12788,5.523445 l 3.21617,-2.191262 c -0.57805,-0.849306 -1.17141,-1.68696 -1.77987,-2.511806 l 3.43667,-2.541794 c 0.54678,0.739778 1.08154,1.489008 1.60415,2.246977 l 3.04511,-2.100257 c -0.54577,-0.790945 -1.10461,-1.573 -1.67643,-2.345452 l 2.96353,-2.191847 c 0.63761,0.860122 1.25934,1.73138 1.86507,2.612903 l 3.20847,-2.202363 c -1.578,-2.295041 -3.26296,-4.524874 -5.05271,-6.675928 z M 133.61665,60.648365 c 0.27557,0.134224 0.39801,0.338447 0.36812,0.60879 -0.0194,0.267716 -0.23115,0.802736 -0.63529,1.610254 l -3.9877,7.967853 c -0.51024,1.019519 -0.87019,1.650466 -1.0732,1.886423 -0.20424,0.237315 -0.42846,0.295253 -0.67421,0.175509 -0.24009,-0.116983 -0.33854,-0.309559 -0.29475,-0.580636 0.0493,-0.26671 0.31539,-0.912379 0.79671,-1.928349 l 3.87599,-8.181439 c 0.42758,-0.902532 0.74216,-1.414395 0.94891,-1.537827 0.21636,-0.126744 0.44233,-0.134109 0.67542,-0.02058 z m 11.22983,6.833479 c 0.24474,0.180874 0.32711,0.402779 0.24868,0.662364 -0.0677,0.258822 -0.37192,0.745477 -0.91364,1.464747 l -5.34557,7.097494 c -0.68405,0.908235 -1.15071,1.462065 -1.39284,1.656804 -0.24347,0.195782 -0.47487,0.211734 -0.69575,0.04932 -0.21577,-0.15866 -0.27831,-0.365602 -0.18663,-0.623679 0.0964,-0.252837 0.47406,-0.837946 1.13017,-1.747455 l 5.28324,-7.323717 c 0.58282,-0.807904 0.98389,-1.253116 1.2085,-1.33693 0.23465,-0.08533 0.45681,-0.05195 0.66384,0.10105 z M 43.539527,81.75903 c 2.639883,1.87324 4.8599,3.440476 6.677824,4.694521 -0.317738,0.37483 -0.631252,0.753172 -0.940449,1.134937 -1.231827,-1.134025 -3.231267,-3.118231 -5.737375,-5.829458 z M 59.461506,67.415986 c 1.995198,2.547662 3.679138,4.686436 5.062586,6.405901 -0.411374,0.268641 -0.81976,0.541948 -1.225063,0.819831 -0.856954,-1.437957 -2.209288,-3.912292 -3.837523,-7.225732 z"
         inkscape:path-effect="#path-effect8755"
         inkscape:original-d="m 46.437476,61.670654 c -1.208999,0 -2.196308,0.282614 -2.961577,0.848527 -0.75884,0.559484 -1.218473,1.176846 -1.379244,1.852084 -0.16077,0.675239 -0.241329,1.759009 -0.241329,3.250964 v 4.640027 c 0,1.073951 0.03859,1.88085 0.115756,2.421041 0.07717,0.533759 0.270096,1.045011 0.578776,1.533756 0.30868,0.488744 0.759183,0.900146 1.350822,1.23455 0.598066,0.327973 1.238109,0.49196 1.919779,0.49196 0.572345,0 1.067176,-0.118626 1.485181,-0.356568 0.424435,-0.24437 0.775089,-0.608059 1.051615,-1.090372 l 0.376204,1.119311 h 2.556434 v -8.382951 h -4.755782 v 2.372982 h 0.820104 v 1.852084 c 0,0.726684 -0.05501,1.215773 -0.164331,1.466577 -0.102892,0.250801 -0.302078,0.376204 -0.597896,0.376204 -0.270096,0 -0.449987,-0.109497 -0.540019,-0.328145 -0.09003,-0.225079 -0.135392,-0.688101 -0.135392,-1.389063 v -7.49515 c 0,-0.797424 0.04536,-1.292772 0.135392,-1.485697 0.09003,-0.192925 0.260279,-0.289388 0.51108,-0.289388 0.289389,0 0.472668,0.112883 0.549838,0.337964 0.07717,0.225079 0.115755,0.784563 0.115755,1.67845 v 1.418002 h 4.061251 v -0.675411 c 0,-1.279738 -0.119143,-2.254011 -0.357085,-2.922819 -0.237941,-0.675239 -0.749195,-1.257404 -1.533756,-1.746147 -0.784563,-0.488743 -1.77187,-0.732772 -2.961576,-0.732772 z m 39.115958,0 c -0.881026,0 -1.662375,0.150954 -2.344043,0.453203 -0.675239,0.295818 -1.205784,0.704349 -1.591634,1.225248 -0.379419,0.520897 -0.608059,1.06396 -0.685229,1.629874 -0.07717,0.559485 -0.115756,1.402098 -0.115756,2.527495 v 4.562512 c 0,1.530538 0.125403,2.678446 0.376205,3.443717 0.250803,0.758839 0.762056,1.354038 1.533756,1.784904 0.771702,0.430867 1.75275,0.645956 2.942456,0.645956 1.144689,0 2.10593,-0.253674 2.884062,-0.761711 0.784563,-0.508036 1.289557,-1.099848 1.514636,-1.775085 0.231511,-0.675239 0.347266,-1.819757 0.347266,-3.433899 v -0.607715 h -4.061251 v 1.95802 c 0,0.855302 -0.04823,1.398882 -0.144694,1.630391 -0.09003,0.231511 -0.286344,0.347266 -0.588594,0.347266 -0.315112,0 -0.517685,-0.115755 -0.607715,-0.347266 -0.09003,-0.231509 -0.134876,-0.726858 -0.134876,-1.485697 v -7.253821 c 0,-0.790994 0.04484,-1.305634 0.134876,-1.543575 0.09003,-0.237941 0.302248,-0.357084 0.636653,-0.357084 0.295818,0 0.485873,0.09985 0.569475,0.299207 0.09003,0.192925 0.134875,0.684885 0.134875,1.475878 v 2.720248 h 4.061251 v -1.485698 c 0,-1.459801 -0.122532,-2.533409 -0.366903,-3.221508 -0.244372,-0.694531 -0.755624,-1.273308 -1.533756,-1.736328 -0.778131,-0.463021 -1.764924,-0.694532 -2.96106,-0.694532 z m 25.735896,0 c -0.88102,0 -1.66237,0.150954 -2.34404,0.453203 -0.67524,0.295818 -1.20579,0.704349 -1.59164,1.225248 -0.37942,0.520897 -0.60754,1.06396 -0.68471,1.629874 -0.0772,0.559485 -0.11575,1.402098 -0.11575,2.527495 v 4.562512 c 0,1.530538 0.1254,2.678446 0.3762,3.443717 0.25081,0.758839 0.76206,1.354038 1.53376,1.784904 0.7717,0.430867 1.75223,0.645956 2.94194,0.645956 1.14469,0 2.10644,-0.253674 2.88457,-0.761711 0.78456,-0.508036 1.28904,-1.099848 1.51412,-1.775085 0.23152,-0.675239 0.34727,-1.819757 0.34727,-3.433899 v -0.607715 h -4.06073 v 1.95802 c 0,0.855302 -0.0482,1.398882 -0.1447,1.630391 -0.09,0.231511 -0.28634,0.347266 -0.58859,0.347266 -0.31512,0 -0.51768,-0.115755 -0.60772,-0.347266 -0.09,-0.231509 -0.13487,-0.726858 -0.13487,-1.485697 v -7.253821 c 0,-0.790994 0.0448,-1.305634 0.13487,-1.543575 0.09,-0.237941 0.30225,-0.357084 0.63666,-0.357084 0.29582,0 0.48535,0.09985 0.56895,0.299207 0.09,0.192925 0.1354,0.684885 0.1354,1.475878 v 2.720248 h 4.06073 v -1.485698 c 0,-1.459801 -0.12201,-2.533409 -0.36639,-3.221508 -0.24437,-0.694531 -0.75562,-1.273308 -1.53375,-1.736328 -0.77814,-0.463021 -1.76545,-0.694532 -2.96158,-0.694532 z m 28.54348,0 c -0.88103,0 -1.65273,0.144695 -2.31511,0.434082 -0.66238,0.289389 -1.18953,0.704178 -1.58181,1.244369 -0.38585,0.54019 -0.61737,1.13826 -0.69453,1.794206 -0.0707,0.649516 -0.10646,1.758838 -0.10646,3.327962 v 2.671671 c 0,1.607709 0.0386,2.733454 0.11576,3.376538 0.0772,0.643084 0.31832,1.237766 0.72347,1.784388 0.40514,0.546622 0.93907,0.958023 1.60145,1.23455 0.66881,0.270095 1.42122,0.405143 2.25723,0.405143 0.88102,0 1.65272,-0.144695 2.3151,-0.434082 0.66238,-0.289389 1.18667,-0.704178 1.57252,-1.244369 0.39228,-0.54019 0.62378,-1.134872 0.69453,-1.784387 0.0772,-0.655947 0.11575,-1.768657 0.11575,-3.337781 v -2.671671 c 0,-1.607711 -0.0386,-2.733456 -0.11575,-3.376538 -0.0772,-0.643086 -0.31833,-1.237768 -0.72347,-1.784388 -0.40514,-0.546622 -0.94246,-0.955151 -1.61127,-1.225248 -0.66238,-0.276525 -1.41141,-0.414445 -2.24741,-0.414445 z m 10.79417,0 c -0.88102,0 -1.65272,0.144695 -2.3151,0.434082 -0.66238,0.289389 -1.18954,0.704178 -1.58182,1.244369 -0.38584,0.54019 -0.61736,1.13826 -0.69453,1.794206 -0.0707,0.649516 -0.10645,1.758838 -0.10645,3.327962 v 2.671671 c 0,1.607709 0.0386,2.733454 0.11575,3.376538 0.0772,0.643084 0.31833,1.237766 0.72347,1.784388 0.40514,0.546622 0.93908,0.958023 1.60146,1.23455 0.6688,0.270095 1.42122,0.405143 2.25722,0.405143 0.88103,0 1.65273,-0.144695 2.31511,-0.434082 0.66238,-0.289389 1.18666,-0.704178 1.57251,-1.244369 0.39229,-0.54019 0.6238,-1.134872 0.69453,-1.784387 0.0772,-0.655947 0.11576,-1.768657 0.11576,-3.337781 v -2.671671 c 0,-1.607711 -0.0386,-2.733456 -0.11576,-3.376538 -0.0772,-0.643086 -0.31832,-1.237768 -0.72347,-1.784388 -0.40514,-0.546622 -0.94246,-0.955151 -1.61127,-1.225248 -0.66238,-0.276525 -1.4114,-0.414445 -2.24741,-0.414445 z m 10.28309,0 c -0.96463,0 -1.78795,0.157213 -2.46961,0.472323 -0.68167,0.308682 -1.17701,0.739893 -1.4857,1.292944 -0.30225,0.553053 -0.4532,1.427477 -0.4532,2.623613 0,0.829579 0.10611,1.511075 0.31833,2.044836 0.21864,0.533759 0.49213,0.951938 0.8201,1.254187 0.32797,0.30225 0.99644,0.787951 2.00608,1.456759 1.00964,0.662376 1.64343,1.135043 1.90066,1.418001 0.2508,0.282957 0.3762,0.883898 0.3762,1.803508 0,0.418004 -0.0675,0.73346 -0.20257,0.945678 -0.12861,0.212217 -0.32831,0.318327 -0.59841,0.318327 -0.27009,0 -0.45964,-0.08395 -0.56896,-0.251147 -0.1029,-0.167203 -0.15451,-0.543407 -0.15451,-1.128614 v -1.900142 h -3.77135 v 1.022677 c 0,1.170413 0.11863,2.073774 0.35657,2.710428 0.23795,0.636652 0.73955,1.160939 1.50482,1.572514 0.7717,0.411573 1.70113,0.617017 2.78794,0.617017 0.99035,0 1.85851,-0.176504 2.60449,-0.5302 0.74598,-0.360127 1.24759,-0.803856 1.50482,-1.331185 0.26366,-0.527328 0.39533,-1.347262 0.39533,-2.459798 0,-1.530541 -0.23438,-2.639863 -0.70384,-3.327963 -0.46944,-0.688099 -1.60771,-1.569298 -3.41478,-2.643249 -0.63022,-0.372988 -1.0132,-0.691317 -1.14825,-0.954981 -0.14148,-0.263666 -0.21187,-0.655775 -0.21187,-1.176672 0,-0.405144 0.0608,-0.707565 0.18293,-0.906921 0.12862,-0.199356 0.31529,-0.299207 0.55966,-0.299207 0.22508,0 0.38567,0.0743 0.48214,0.222209 0.0965,0.147909 0.1447,0.491788 0.1447,1.031978 v 1.157552 h 3.77186 v -0.617533 c 0,-1.241152 -0.12201,-2.118964 -0.36639,-2.633431 -0.23794,-0.520899 -0.7299,-0.951593 -1.47588,-1.292428 -0.73954,-0.340834 -1.63665,-0.51108 -2.69131,-0.51108 z m 18.4242,0 c -0.96462,0 -1.78795,0.157213 -2.46961,0.472323 -0.68168,0.308682 -1.1765,0.739893 -1.48518,1.292944 -0.30226,0.553053 -0.45372,1.427477 -0.45372,2.623613 0,0.829579 0.1061,1.511075 0.31832,2.044836 0.21866,0.533759 0.49214,0.951938 0.82011,1.254187 0.32797,0.30225 0.99695,0.787951 2.00659,1.456759 1.00964,0.662376 1.64291,1.135043 1.90015,1.418001 0.2508,0.282957 0.3762,0.883898 0.3762,1.803508 0,0.418004 -0.0675,0.73346 -0.20257,0.945678 -0.12862,0.212217 -0.3278,0.318327 -0.5979,0.318327 -0.27009,0 -0.46014,-0.08395 -0.56947,-0.251147 -0.10289,-0.167203 -0.154,-0.543407 -0.154,-1.128614 v -1.900142 h -3.77186 v 1.022677 c 0,1.170413 0.11914,2.073774 0.35708,2.710428 0.23794,0.636652 0.73955,1.160939 1.50482,1.572514 0.7717,0.411573 1.70062,0.617017 2.78743,0.617017 0.99035,0 1.85852,-0.176504 2.60449,-0.5302 0.74598,-0.360127 1.24759,-0.803856 1.50482,-1.331185 0.26367,-0.527328 0.39584,-1.347262 0.39584,-2.459798 0,-1.530541 -0.2349,-2.639863 -0.70435,-3.327963 -0.46945,-0.688099 -1.60771,-1.569298 -3.41478,-2.643249 -0.63022,-0.372988 -1.01268,-0.691317 -1.14773,-0.954981 -0.14147,-0.263666 -0.21239,-0.655775 -0.21239,-1.176672 0,-0.405144 0.0613,-0.707565 0.18345,-0.906921 0.12861,-0.199356 0.31477,-0.299207 0.55914,-0.299207 0.22508,0 0.3862,0.0743 0.48266,0.222209 0.0965,0.147909 0.14469,0.491788 0.14469,1.031978 v 1.157552 h 3.77135 v -0.617533 c 0,-1.241152 -0.12202,-2.118964 -0.36639,-2.633431 -0.23794,-0.520899 -0.7299,-0.951593 -1.47588,-1.292428 -0.73954,-0.340834 -1.63665,-0.51108 -2.69131,-0.51108 z M 54.000321,61.998283 51.935848,77.615934 h 4.205945 l 0.241329,-2.807064 h 1.456242 l 0.202571,2.807064 h 4.157886 L 59.874898,61.998283 Z m 8.894031,0 v 15.617651 h 6.530351 v -3.12539 H 66.955086 V 61.998283 Z m 9.144662,0 -2.064474,15.617651 h 4.205945 l 0.240812,-2.807064 h 1.456759 l 0.202571,2.807064 h 4.157369 L 77.91359,61.998283 Z m 19.13785,0 v 3.125391 h 2.40192 v 12.49226 h 4.061251 v -12.49226 h 2.411735 v -3.125391 z m 9.800956,0 v 15.617651 h 4.06073 V 61.998283 Z m 20.11246,0 v 15.617651 h 3.54966 V 67.313721 l 1.495,10.302213 h 2.51767 l 1.418,-10.543542 v 10.543542 h 3.55017 V 61.998283 h -5.2958 l -0.92604,7.292578 -0.55965,-3.973918 c -0.17364,-1.273306 -0.33762,-2.379757 -0.49196,-3.31866 z m 45.96412,0 v 15.617651 h 7.04195 v -3.12539 h -2.9807 v -3.434416 h 2.5368 V 68.08525 h -2.5368 v -2.961576 h 2.71043 v -3.125391 z m -27.20247,2.315104 c 0.2508,0 0.41479,0.103238 0.49196,0.309025 0.0836,0.199357 0.12557,0.662379 0.12557,1.389063 v 7.176823 c 0,0.919609 -0.0386,1.501257 -0.11575,1.745629 -0.0772,0.244371 -0.25419,0.366903 -0.53072,0.366903 -0.27009,0 -0.44373,-0.10611 -0.5209,-0.318327 -0.0707,-0.212218 -0.10594,-0.771703 -0.10594,-1.67845 v -7.292578 c 0,-0.803854 0.0545,-1.286169 0.16382,-1.44694 0.11575,-0.167202 0.27974,-0.251148 0.49196,-0.251148 z m 10.79417,0 c 0.2508,0 0.41479,0.103238 0.49196,0.309025 0.0836,0.199357 0.12558,0.662379 0.12558,1.389063 v 7.176823 c 0,0.919609 -0.0386,1.501257 -0.11576,1.745629 -0.0772,0.244371 -0.25419,0.366903 -0.53072,0.366903 -0.2701,0 -0.44373,-0.10611 -0.5209,-0.318327 -0.0707,-0.212218 -0.10593,-0.771703 -0.10593,-1.67845 v -7.292578 c 0,-0.803854 0.0545,-1.286169 0.16381,-1.44694 0.11576,-0.167202 0.27974,-0.251148 0.49196,-0.251148 z m -93.539508,1.177189 c 0.205786,2.598062 0.411229,4.780991 0.617016,6.549471 h -1.389062 c 0.102892,-1.38263 0.360471,-3.565559 0.772046,-6.549471 z m 18.038175,0 c 0.205788,2.598062 0.411746,4.780991 0.617534,6.549471 h -1.389063 c 0.102895,-1.38263 0.359956,-3.565559 0.771529,-6.549471 z"
         class="UnoptimicedTransforms"
         transform="translate(6.9224462,8.8709677)" /><path
         id="path11286"
         style="font-size:19.7556px;font-family:Impact;-inkscape-font-specification:Impact;fill:#ffffff;stroke:#000000"
         d="m 86.863524,192.30919 c -0.986536,-0.38183 -1.915475,-0.59192 -2.797251,-0.62539 -0.871536,-0.0365 -1.628335,0.089 -2.270989,0.38285 -0.635261,0.29688 -1.112644,0.68197 -1.427883,1.16246 -0.312139,0.47381 -0.696218,1.22709 -1.148668,2.25652 l -1.835552,4.1763 c -0.616105,1.40178 -0.92815,2.51714 -0.930083,3.35473 6.38e-4,0.82938 0.387008,1.65424 1.176178,2.46032 0.788069,0.80494 1.940296,1.52081 3.455949,2.11153 1.459703,0.56891 2.794572,0.78264 3.970678,0.65427 1.185144,-0.12553 2.028541,-0.47469 2.530387,-1.02192 0.512466,-0.54702 1.012572,-1.58744 1.51532,-3.12876 l 0.189038,-0.57955 c -1.677349,-0.54601 -3.339805,-1.13594 -4.985936,-1.76128 l -0.697797,1.83774 c -0.304963,0.80316 -0.558207,1.28984 -0.762064,1.46123 -0.195318,0.17404 -0.483198,0.18861 -0.860864,0.0414 -0.393666,-0.15345 -0.60307,-0.36201 -0.629292,-0.62227 -0.02627,-0.26081 0.101857,-0.74426 0.383049,-1.45229 l 2.686884,-6.7655 c 0.292853,-0.73739 0.535622,-1.19757 0.726394,-1.37868 0.191179,-0.18151 0.477524,-0.19706 0.860155,-0.0491 0.338464,0.13091 0.520336,0.30726 0.545075,0.53086 0.03432,0.21989 -0.08928,0.70199 -0.371044,1.44406 l -0.969439,2.55314 c 1.611707,0.61179 3.235546,1.18887 4.870087,1.72274 l 0.462145,-1.41684 c 0.453414,-1.39006 0.643906,-2.46531 0.580522,-3.21183 -0.06157,-0.75524 -0.459298,-1.50091 -1.181491,-2.24912 -0.72311,-0.74915 -1.744815,-1.36951 -3.083508,-1.88764 z m 12.189042,3.88668 c -0.982534,-0.23341 -1.875937,-0.31928 -2.696395,-0.24465 -0.819477,0.0745 -1.5292,0.29895 -2.129763,0.68429 -0.593192,0.38751 -1.035347,0.87777 -1.317205,1.47914 -0.271317,0.59495 -0.64168,1.64956 -1.102182,3.15081 l -0.785323,2.56016 c -0.473255,1.54282 -0.754486,2.63196 -0.843406,3.28085 -0.08861,0.64659 0.05019,1.31187 0.429667,1.99236 0.379289,0.68014 0.978439,1.27877 1.800072,1.78232 0.831506,0.49933 1.826137,0.88762 2.975116,1.14847 1.21108,0.27495 2.313766,0.35017 3.285924,0.23875 0.97284,-0.1115 1.771169,-0.398 2.387759,-0.84447 0.62604,-0.44547 1.02793,-0.98575 1.21806,-1.61151 0.20074,-0.63397 0.41006,-1.71728 0.63626,-3.26678 l 0.38439,-2.63307 c 0.23076,-1.58074 0.34666,-2.70458 0.35012,-3.34788 0.003,-0.64714 -0.189,-1.27422 -0.5634,-1.88779 -0.37439,-0.61357 -0.90834,-1.11947 -1.60585,-1.53103 -0.68924,-0.41653 -1.492119,-0.72862 -2.423844,-0.94997 z m 6.859094,1.55999 -1.79233,15.44776 c 1.9207,0.22284 3.86224,0.37435 5.82317,0.44599 l 0.19631,-6.54383 c 0.58528,0.0182 1.1715,0.0279 1.75862,0.0286 0.50743,-8.9e-4 1.01432,-0.009 1.52056,-0.025 l -0.0893,-2.96525 c -0.47716,0.0137 -0.95466,0.0202 -1.43242,0.0194 -0.55657,0.002 -1.11277,-0.006 -1.66857,-0.0214 l 0.0886,-2.95437 c 0.52641,0.0132 1.05269,0.0181 1.57881,0.0142 0.56747,0.003 1.13501,-0.005 1.70241,-0.0245 l -0.11831,-3.11766 c -0.52885,0.0164 -1.05736,0.0221 -1.5853,0.0168 -1.98337,0.0254 -3.97859,-0.0882 -5.9823,-0.32072 z m 8.63,0.25684 0.97459,15.54697 c 1.98493,-0.13179 3.95255,-0.35755 5.8982,-0.67105 l -1.04457,-6.45255 c 1.07594,-0.17403 2.1465,-0.37928 3.21059,-0.61428 l -0.64005,-2.89259 c -1.0098,0.22407 -2.02471,0.41941 -3.04362,0.58456 l -0.47159,-2.91316 c 1.08039,-0.17551 2.15745,-0.38783 3.22961,-0.63486 l -0.69435,-3.03874 c -2.46213,0.5709 -4.94263,0.94294 -7.41881,1.0857 z m 8.47432,-1.34285 3.80016,15.11307 c 3.29558,-0.81892 6.51191,-1.88405 9.62459,-3.16275 l -1.19509,-2.89291 c -1.261,0.51911 -2.53854,1.00147 -3.83078,1.44461 l -1.12021,-3.24692 c 1.04312,-0.35928 2.07722,-0.74576 3.10115,-1.15791 l -1.11187,-2.7592 c -0.97771,0.39461 -1.9642,0.76459 -2.95831,1.10841 l -0.96599,-2.7999 c 1.00995,-0.35089 2.01279,-0.73046 3.00711,-1.13685 l -1.17966,-2.89889 c -2.35494,0.96564 -4.75254,1.77173 -7.1711,2.38924 z m 8.66446,-3.02532 6.29895,14.32256 c 3.07766,-1.34858 6.04763,-2.90532 8.88552,-4.63759 l -1.61594,-2.67553 c -1.15586,0.70274 -2.33336,1.37555 -3.53065,2.01596 l -1.61952,-3.03558 c 0.97277,-0.51935 1.93283,-1.06098 2.87903,-1.62335 l -1.51667,-2.55611 c -0.90902,0.53807 -1.8305,1.05644 -2.7633,1.55359 l -1.39655,-2.61766 c 0.95407,-0.50752 1.89681,-1.03808 2.82682,-1.58982 l -1.60355,-2.68379 c -2.21967,1.30982 -4.50827,2.49527 -6.84414,3.52732 z m -33.201674,5.12797 c 0.289936,0.0682 0.457025,0.21163 0.502013,0.43256 0.05368,0.21566 0.0033,0.67912 -0.153007,1.387 l -1.544473,6.99626 c -0.198057,0.89718 -0.373498,1.45176 -0.529658,1.66802 -0.15557,0.21543 -0.419028,0.28316 -0.787659,0.19888 -0.359983,-0.0823 -0.566075,-0.24046 -0.618543,-0.47073 -0.04413,-0.22908 0.04144,-0.78224 0.255166,-1.66344 l 1.717694,-7.08213 c 0.189238,-0.78024 0.367098,-1.23371 0.530913,-1.35864 0.173331,-0.12979 0.382117,-0.16551 0.627554,-0.10778 z"
         inkscape:path-effect="#path-effect11306"
         inkscape:original-d="m 78.173006,182.76455 c -0.881026,0 -1.662372,0.15096 -2.344043,0.45321 -0.675239,0.29582 -1.205783,0.70435 -1.591634,1.22525 -0.379421,0.52089 -0.608059,1.06396 -0.685229,1.62987 -0.07717,0.55949 -0.115756,1.4021 -0.115756,2.52749 v 4.56252 c 0,1.53054 0.125402,2.67844 0.376205,3.44371 0.250803,0.75884 0.762054,1.35404 1.533756,1.78491 0.771702,0.43086 1.752748,0.64595 2.942456,0.64595 1.144692,0 2.105929,-0.25367 2.884062,-0.76171 0.784565,-0.50804 1.289557,-1.09984 1.514636,-1.77508 0.231511,-0.67524 0.347266,-1.81976 0.347266,-3.4339 v -0.60772 h -4.061251 v 1.95802 c 0,0.85531 -0.04823,1.39888 -0.144694,1.6304 -0.09003,0.2315 -0.286344,0.34726 -0.588594,0.34726 -0.315112,0 -0.517683,-0.11576 -0.607715,-0.34726 -0.09003,-0.23152 -0.134876,-0.72686 -0.134876,-1.4857 v -7.25382 c 0,-0.791 0.04484,-1.30564 0.134876,-1.54358 0.09003,-0.23794 0.302249,-0.35708 0.636653,-0.35708 0.29582,0 0.485874,0.0999 0.569475,0.2992 0.09003,0.19293 0.134875,0.68488 0.134875,1.47588 v 2.72025 h 4.061251 v -1.4857 c 0,-1.4598 -0.12253,-2.53341 -0.366903,-3.22151 -0.244372,-0.69453 -0.755623,-1.2733 -1.533756,-1.73632 -0.778133,-0.46302 -1.764921,-0.69454 -2.96106,-0.69454 z m 10.90011,0 c -0.881027,0 -1.652726,0.1447 -2.315104,0.43409 -0.662377,0.28938 -1.189533,0.70417 -1.581816,1.24437 -0.385851,0.54019 -0.61736,1.13826 -0.694531,1.7942 -0.07074,0.64951 -0.106453,1.75883 -0.106453,3.32796 v 2.67167 c 0,1.60772 0.03858,2.73346 0.115755,3.37654 0.07717,0.64309 0.318326,1.23776 0.72347,1.78439 0.405143,0.54662 0.939074,0.95802 1.601452,1.23455 0.668809,0.27009 1.421216,0.40514 2.257227,0.40514 0.881027,0 1.652726,-0.14469 2.315104,-0.43408 0.662378,-0.28939 1.186663,-0.70417 1.572514,-1.24437 0.392282,-0.54019 0.623792,-1.13487 0.694531,-1.78438 0.07717,-0.65595 0.115756,-1.76865 0.115756,-3.33779 v -2.67167 c 0,-1.60771 -0.03859,-2.73345 -0.115756,-3.37653 -0.07717,-0.64309 -0.318325,-1.23777 -0.72347,-1.78439 -0.405143,-0.54662 -0.942462,-0.95516 -1.611271,-1.22525 -0.662378,-0.27653 -1.411397,-0.41445 -2.247408,-0.41445 z m 6.212024,0.32763 v 15.61765 h 4.061251 v -6.5598 h 2.507859 v -2.97088 h -2.507859 v -2.96158 h 2.816879 v -3.12539 z m 7.86205,0 v 15.61765 h 4.06074 v -6.5598 h 2.50837 v -2.97088 h -2.50837 v -2.96158 h 2.81688 v -3.12539 z m 7.86154,0 v 15.61765 h 7.04195 v -3.12539 h -2.9807 v -3.43441 h 2.53679 v -2.97088 h -2.53679 v -2.96158 h 2.71043 v -3.12539 z m 8.2088,0 v 15.61765 h 7.04195 v -3.12539 h -2.9807 v -3.43441 h 2.5368 v -2.97088 h -2.5368 v -2.96158 h 2.71043 v -3.12539 z m -30.125294,2.31511 c 0.250804,0 0.41479,0.10324 0.49196,0.30902 0.0836,0.19936 0.125574,0.66237 0.125574,1.38907 v 7.17682 c 0,0.91961 -0.03859,1.50125 -0.115756,1.74563 -0.07717,0.24437 -0.254189,0.3669 -0.530716,0.3669 -0.270096,0 -0.443729,-0.10611 -0.520899,-0.31833 -0.07074,-0.21221 -0.105937,-0.77169 -0.105937,-1.67845 v -7.29257 c 0,-0.80386 0.05449,-1.28617 0.163815,-1.44694 0.115755,-0.1672 0.279742,-0.25115 0.491959,-0.25115 z"
         class="UnoptimicedTransforms"
         transform="translate(-1.0583333,1.5875)" /><path
         sodipodi:type="star"
         style="fill:#ffffff;fill-opacity:1;stroke:#000000;stroke-width:1;stroke-dasharray:none"
         id="path11377"
         inkscape:flatsided="false"
         sodipodi:sides="5"
         sodipodi:cx="38.677418"
         sodipodi:cy="128.45161"
         sodipodi:r1="10.931105"
         sodipodi:r2="5.4655528"
         sodipodi:arg1="0.94677327"
         sodipodi:arg2="1.5750918"
         inkscape:rounded="0"
         inkscape:randomized="0"
         d="m 45.064514,137.32258 -6.410573,-3.40546 -6.439593,3.35026 1.257813,-7.14916 -5.176236,-5.08913 7.187944,-1.01296 3.240503,-6.49552 3.184581,6.52312 7.178977,1.07467 -5.219765,5.04448 z"
         inkscape:transform-center-x="-0.014509151"
         inkscape:transform-center-y="-1.0300202"
         transform="translate(3.1750001,10.583334)" /><path
         sodipodi:type="star"
         style="fill:#ffffff;fill-opacity:1;stroke:#000000;stroke-width:1;stroke-dasharray:none"
         id="path11377-5"
         inkscape:flatsided="false"
         sodipodi:sides="5"
         sodipodi:cx="38.677418"
         sodipodi:cy="128.45161"
         sodipodi:r1="10.931105"
         sodipodi:r2="5.4655528"
         sodipodi:arg1="0.94677327"
         sodipodi:arg2="1.5750918"
         inkscape:rounded="0"
         inkscape:randomized="0"
         d="m 45.064514,137.32258 -6.410573,-3.40546 -6.439593,3.35026 1.257813,-7.14916 -5.176236,-5.08913 7.187944,-1.01296 3.240503,-6.49552 3.184581,6.52312 7.178977,1.07467 -5.219765,5.04448 z"
         inkscape:transform-center-x="-0.014509151"
         inkscape:transform-center-y="-1.0300202"
         transform="translate(136.0739,11.071957)" /><ellipse
         style="fill:#000000;fill-opacity:1;stroke:#000000;stroke-width:1;stroke-dasharray:none"
         id="path11472"
         cx="108.46815"
         cy="138.49554"
         rx="45.064518"
         ry="45.241936" /><path
         style="fill:#ffffff;fill-opacity:1;stroke:#ffffff;stroke-width:0.812513;stroke-dasharray:none;stroke-opacity:1"
         d="m 91.173753,97.220519 c -0.560596,-0.254932 -1.444017,-0.424821 -2.565411,0.06784 -1.121394,0.492657 -2.480476,1.647875 -3.635763,3.465785 -1.155288,1.81791 -2.106649,4.29825 -2.565322,6.69375 -0.458672,2.3955 -0.424695,4.70594 -0.01689,6.6597 0.407802,1.95375 1.189277,3.55068 2.07274,4.94377 0.883463,1.39308 1.8688,2.58228 3.126027,3.53361 1.257226,0.95133 2.786198,1.66485 4.451127,2.39537 1.664929,0.73052 3.465716,1.47802 5.079668,2.02164 1.613951,0.54362 3.040995,0.88339 4.247085,0.57756 1.2061,-0.30584 2.19145,-1.25721 2.36146,-1.88574 0.17,-0.62852 -0.47556,-0.93431 -0.91734,-1.34198 -0.44179,-0.40767 -0.67963,-0.91734 -0.66272,-1.6819 0.0169,-0.76456 0.28873,-1.78388 0.76444,-2.71833 0.4757,-0.93446 1.15525,-1.78389 1.3422,-2.51431 0.18695,-0.73041 -0.11884,-1.34199 -0.52651,-1.7498 -0.40767,-0.40781 -0.91733,-0.61168 -1.39317,-0.45882 -0.47584,0.15286 -0.91754,0.66252 -1.44422,1.44404 -0.52667,0.78153 -1.138261,1.83482 -1.664854,2.46336 -0.526594,0.62854 -0.968287,0.8324 -1.359005,0.66265 -0.390719,-0.16975 -0.730492,-0.71338 -0.849504,-1.40997 -0.119011,-0.69659 -0.01708,-1.54601 0.492583,-2.95615 0.509665,-1.41014 1.427053,-3.38082 1.74991,-4.70587 0.322858,-1.32505 0.05104,-2.00459 -0.322686,-2.29355 -0.373729,-0.28896 -0.849417,-0.18703 -1.291214,0.0848 -0.441797,0.27185 -0.849522,0.71355 -1.39319,1.58003 -0.543667,0.86648 -1.223211,2.15761 -1.851808,3.36383 -0.628596,1.20623 -1.206204,2.32747 -1.783733,2.956 -0.577528,0.62853 -1.155138,0.76443 -1.461009,0.57768 -0.305871,-0.18675 -0.339848,-0.69641 -0.203962,-1.37602 0.135885,-0.67962 0.441677,-1.52904 1.206193,-2.93917 0.764516,-1.41013 1.987692,-3.3808 2.701227,-4.72288 0.713534,-1.34209 0.917394,-2.0556 0.968406,-2.65017 0.05101,-0.59457 -0.05092,-1.07024 -0.356644,-1.30821 -0.305726,-0.23797 -0.815382,-0.23797 -1.461056,0.0508 -0.645674,0.28881 -1.427145,0.86642 -2.242662,2.02174 -0.815517,1.15532 -1.664941,2.88814 -2.48033,3.89042 -0.81539,1.00228 -1.596864,1.2741 -2.123499,1.22327 -0.526635,-0.0508 -0.798447,-0.42457 -0.883488,-1.10416 -0.08504,-0.67959 0.01689,-1.66492 0.866346,-3.17704 0.849458,-1.51211 2.446376,-3.55073 3.414741,-5.09669 0.968365,-1.54596 1.308133,-2.599247 1.359205,-3.295737 0.05107,-0.69649 -0.186768,-1.036262 -0.747364,-1.291194 z"
         id="path18106"
         inkscape:path-effect="#path-effect18108"
         inkscape:original-d="m 91.496334,97.135428 c -0.883209,-0.169673 -1.76663,-0.339563 -2.650268,-0.509666 -1.358921,1.155482 -2.718005,2.310697 -4.07733,3.465728 -0.951182,2.48066 -1.902541,4.961 -2.854133,7.44115 0.03419,2.31075 0.06817,4.62119 0.101933,6.93146 0.781718,1.5972 1.563192,3.19413 2.344466,4.79087 0.98559,1.18945 1.970926,2.37865 2.956066,3.56766 1.529245,0.71376 3.058213,1.42729 4.586998,2.1406 1.801072,0.74775 3.601861,1.49524 5.402462,2.24253 1.427311,0.34 2.854352,0.67977 4.281212,1.01933 0.98558,-0.95117 1.97093,-1.90254 2.95607,-2.85413 -0.64538,-0.30559 -1.29094,-0.61138 -1.93674,-0.9174 -0.23763,-0.50946 -0.47548,-1.01912 -0.71354,-1.529 0.27205,-1.01913 0.54387,-2.03845 0.81548,-3.058 0.67978,-0.84924 1.35933,-1.69867 2.03867,-2.54833 -0.3056,-0.6114 -0.61138,-1.22298 -0.9174,-1.8348 -0.50946,-0.20365 -1.01912,-0.40751 -1.52901,-0.6116 -0.44151,0.50989 -0.88321,1.01955 -1.32514,1.529 -0.61139,1.05355 -1.222987,2.10684 -1.834804,3.15994 -0.441507,0.20408 -0.8832,0.40794 -1.325125,0.6116 -0.339574,-0.54344 -0.679342,-1.08708 -1.019338,-1.63094 0.102149,-0.84925 0.204079,-1.69867 0.305797,-2.54833 0.917636,-1.97053 1.835019,-3.94121 2.752203,-5.91212 -0.27161,-0.67936 -0.543427,-1.3589 -0.815467,-2.03867 -0.475477,0.10215 -0.951166,0.20408 -1.427063,0.3058 -0.407532,0.44193 -0.81525,0.88364 -1.223205,1.32514 -0.67935,1.29138 -1.358895,2.58251 -2.038664,3.87345 -0.577418,1.12151 -1.155028,2.24275 -1.732865,3.3638 -0.577418,0.13613 -1.15503,0.27203 -1.732867,0.40773 -0.03376,-0.50946 -0.06774,-1.01912 -0.101932,-1.529 0.306021,-0.84925 0.611814,-1.69867 0.917399,-2.54833 1.22344,-1.97053 2.446615,-3.9412 3.6696,-5.91212 0.204087,-0.71334 0.407946,-1.42685 0.611602,-2.1406 -0.101726,-0.47549 -0.203656,-0.95116 -0.305805,-1.42707 -0.509462,2.1e-4 -1.019118,2.1e-4 -1.528997,0 -0.78129,0.57785 -1.562762,1.15546 -2.344467,1.73287 -0.849246,1.73312 -1.698673,3.46594 -2.548332,5.19859 -0.781289,0.27204 -1.562762,0.54386 -2.344467,0.81547 -0.27161,-0.37356 -0.543428,-0.7473 -0.815464,-1.12127 0.102148,-0.98516 0.204079,-1.97049 0.305798,-2.95606 1.597202,-2.03849 3.194126,-4.07711 4.790865,-6.11601 0.34,-1.05313 0.679771,-2.106414 1.019332,-3.159938 -0.237634,-0.339569 -0.475473,-0.679341 -0.71353,-1.019334 z" /><path
         style="fill:#ffffff;fill-opacity:1;stroke:#ffffff;stroke-width:0.812513;stroke-dasharray:none;stroke-opacity:1"
         d="m 126.57719,97.497012 c 0.5606,-0.254929 1.44402,-0.424817 2.56541,0.06784 1.1214,0.492656 2.48048,1.647871 3.63577,3.465779 1.15529,1.81791 2.10665,4.29825 2.56532,6.69375 0.45868,2.3955 0.4247,4.70594 0.0169,6.6597 -0.4078,1.95376 -1.18927,3.55068 -2.07273,4.94377 -0.88346,1.39308 -1.8688,2.58228 -3.12603,3.53361 -1.25723,0.95133 -2.7862,1.66485 -4.45113,2.39537 -1.66493,0.73052 -3.46572,1.47802 -5.07967,2.02164 -1.61395,0.54362 -3.04099,0.88339 -4.24708,0.57756 -1.2061,-0.30584 -2.19145,-1.25721 -2.36146,-1.88574 -0.17,-0.62852 0.47556,-0.93431 0.91734,-1.34198 0.44179,-0.40767 0.67963,-0.91734 0.66272,-1.6819 -0.0169,-0.76456 -0.28873,-1.78388 -0.76444,-2.71833 -0.4757,-0.93446 -1.15525,-1.78389 -1.3422,-2.51431 -0.18695,-0.73041 0.11884,-1.34199 0.52651,-1.7498 0.40767,-0.40781 0.91733,-0.61168 1.39317,-0.45882 0.47584,0.15286 0.91754,0.66252 1.44422,1.44404 0.52667,0.78153 1.13826,1.83483 1.66485,2.46336 0.5266,0.62854 0.96829,0.8324 1.35901,0.66265 0.39072,-0.16974 0.73049,-0.71338 0.8495,-1.40997 0.11902,-0.69659 0.0171,-1.54601 -0.49258,-2.95615 -0.50967,-1.41014 -1.42705,-3.38082 -1.74991,-4.70587 -0.32286,-1.32505 -0.051,-2.00459 0.32268,-2.29355 0.37373,-0.28896 0.84942,-0.18703 1.29122,0.0848 0.4418,0.27185 0.84952,0.71355 1.39319,1.58003 0.54366,0.86648 1.22321,2.15761 1.8518,3.36383 0.6286,1.20623 1.20621,2.32747 1.78374,2.956 0.57753,0.62853 1.15514,0.76443 1.46101,0.57768 0.30587,-0.18675 0.33985,-0.6964 0.20396,-1.37602 -0.13588,-0.67962 -0.44168,-1.52904 -1.20619,-2.93917 -0.76452,-1.41013 -1.9877,-3.3808 -2.70123,-4.72289 -0.71353,-1.34208 -0.91739,-2.05559 -0.9684,-2.65016 -0.051,-0.59457 0.0509,-1.07024 0.35664,-1.30821 0.30572,-0.23797 0.81538,-0.23797 1.46105,0.0508 0.64568,0.28881 1.42715,0.86642 2.24267,2.02174 0.81552,1.15532 1.66494,2.88814 2.48033,3.89042 0.81539,1.00228 1.59686,1.2741 2.1235,1.22327 0.52663,-0.0508 0.79844,-0.42457 0.88348,-1.10416 0.085,-0.67959 -0.0169,-1.66492 -0.86634,-3.17704 -0.84946,-1.51211 -2.44638,-3.55073 -3.41474,-5.09669 -0.96837,-1.54596 -1.30814,-2.599248 -1.35921,-3.295739 -0.0511,-0.696492 0.18677,-1.03626 0.74736,-1.291189 z"
         id="path18106-3"
         inkscape:path-effect="#path-effect18108-0"
         inkscape:original-d="m 126.25461,97.411925 c 0.88321,-0.169667 1.76663,-0.339557 2.65027,-0.509667 1.35892,1.155484 2.71801,2.310688 4.07733,3.465722 0.95118,2.48066 1.90254,4.961 2.85414,7.44115 -0.0342,2.31075 -0.0682,4.62119 -0.10194,6.93146 -0.78172,1.5972 -1.56319,3.19413 -2.34446,4.79087 -0.98559,1.18945 -1.97093,2.37865 -2.95607,3.56766 -1.52925,0.71376 -3.05821,1.42729 -4.587,2.1406 -1.80107,0.74775 -3.60186,1.49524 -5.40246,2.24253 -1.42731,0.34 -2.85435,0.67977 -4.28121,1.01933 -0.98558,-0.95117 -1.97093,-1.90254 -2.95607,-2.85413 0.64538,-0.30559 1.29094,-0.61138 1.93674,-0.9174 0.23763,-0.50946 0.47548,-1.01912 0.71354,-1.529 -0.27205,-1.01913 -0.54387,-2.03845 -0.81548,-3.058 -0.67978,-0.84924 -1.35933,-1.69867 -2.03867,-2.54833 0.3056,-0.6114 0.61138,-1.22298 0.9174,-1.8348 0.50946,-0.20365 1.01912,-0.40751 1.52901,-0.6116 0.44151,0.50989 0.88321,1.01955 1.32514,1.529 0.61139,1.05355 1.22299,2.10684 1.8348,3.15994 0.44151,0.20408 0.8832,0.40794 1.32513,0.6116 0.33957,-0.54344 0.67934,-1.08708 1.01934,-1.63094 -0.10215,-0.84925 -0.20408,-1.69867 -0.3058,-2.54833 -0.91764,-1.97053 -1.83502,-3.94121 -2.7522,-5.91212 0.27161,-0.67936 0.54342,-1.3589 0.81546,-2.03867 0.47548,0.10215 0.95117,0.20408 1.42707,0.3058 0.40753,0.44193 0.81525,0.88364 1.2232,1.32514 0.67935,1.29138 1.3589,2.58251 2.03866,3.87345 0.57742,1.12151 1.15503,2.24275 1.73287,3.3638 0.57742,0.13613 1.15503,0.27203 1.73287,0.40773 0.0338,-0.50946 0.0677,-1.01912 0.10193,-1.529 -0.30602,-0.84925 -0.61182,-1.69867 -0.9174,-2.54833 -1.22344,-1.97053 -2.44662,-3.9412 -3.6696,-5.91212 -0.20409,-0.71334 -0.40795,-1.42685 -0.6116,-2.1406 0.10172,-0.47549 0.20365,-0.95116 0.3058,-1.42707 0.50946,2.1e-4 1.01912,2.1e-4 1.529,0 0.78129,0.57785 1.56276,1.15546 2.34447,1.73287 0.84924,1.73312 1.69867,3.46594 2.54833,5.19859 0.78129,0.27204 1.56276,0.54386 2.34447,0.81547 0.27161,-0.37356 0.54342,-0.7473 0.81546,-1.12127 -0.10215,-0.98516 -0.20408,-1.97049 -0.3058,-2.95606 -1.5972,-2.03849 -3.19412,-4.07711 -4.79086,-6.11601 -0.34,-1.05313 -0.67977,-2.106417 -1.01934,-3.159941 0.23764,-0.339567 0.47548,-0.679334 0.71353,-1.019324 z" /><path
         style="fill:#ffffff;fill-opacity:1;stroke:#ffffff;stroke-width:1;stroke-dasharray:none;stroke-opacity:1"
         d="m 96.140136,129.59466 c -0.878271,0.20917 -0.20918,1.79826 0.543644,2.71815 0.752825,0.91989 1.589169,1.17079 2.467226,0.96163 0.878054,-0.20916 1.798034,-0.87824 1.045424,-1.79815 -0.752618,-0.91992 -3.178023,-2.09081 -4.056294,-1.88163 z"
         id="path19724"
         inkscape:path-effect="#path-effect19726"
         inkscape:original-d="m 94.592638,128.21442 c 0.669356,1.58936 1.338445,3.17845 2.007272,4.76727 0.836644,0.25118 1.672989,0.50208 2.509088,0.75273 0.920282,-0.66884 1.840262,-1.33792 2.759992,-2.00727 -2.42523,-1.17067 -4.850634,-2.34156 -7.276352,-3.51273 z" /><path
         style="fill:#ffffff;fill-opacity:1;stroke:#ffffff;stroke-width:1;stroke-dasharray:none;stroke-opacity:1"
         d="m 120.94296,130.12156 c 0.87827,0.20917 0.20918,1.79826 -0.54364,2.71815 -0.75282,0.91989 -1.58917,1.17079 -2.46723,0.96163 -0.87805,-0.20916 -1.79803,-0.87824 -1.04542,-1.79815 0.75262,-0.91992 3.17802,-2.09081 4.05629,-1.88163 z"
         id="path19724-5"
         inkscape:path-effect="#path-effect19726-3"
         inkscape:original-d="m 122.49046,128.74132 c -0.66935,1.58936 -1.33844,3.17845 -2.00727,4.76727 -0.83664,0.25118 -1.67299,0.50208 -2.50909,0.75273 -0.92028,-0.66884 -1.84026,-1.33792 -2.75999,-2.00727 2.42523,-1.17067 4.85063,-2.34156 7.27635,-3.51273 z" /><path
         style="fill:#ffffff;fill-opacity:1;stroke:#ffffff;stroke-width:1;stroke-dasharray:none;stroke-opacity:1"
         d="m 105.71636,126.3535 c 1.25464,-0.89911 2.34192,-1.15003 3.26198,-1.19179 0.92006,-0.0417 1.67277,0.12552 2.25819,0.502 0.58541,0.37649 1.00358,0.96193 1.58909,1.46368 0.58551,0.50176 1.33822,0.91993 1.90274,1.33817 0.56452,0.41824 0.94088,0.83641 0.878,1.40085 -0.0629,0.56444 -0.56469,1.27534 -0.79466,1.96546 -0.22997,0.69012 -0.18815,1.3592 0.272,1.96552 0.46016,0.60632 1.33832,1.14994 1.77725,2.17454 0.43894,1.0246 0.43894,2.53002 0.14619,5.12276 -0.29275,2.59274 -0.87819,6.27266 -1.40091,8.34256 -0.52272,2.06989 -0.9827,2.52988 -1.60986,2.2582 -0.62717,-0.27169 -1.4217,-1.27531 -2.25804,-1.81907 -0.83635,-0.54377 -1.71451,-0.62741 -2.42549,-0.56472 -0.71099,0.0627 -1.25461,0.27178 -1.77744,0.75275 -0.52283,0.48098 -1.02463,1.23368 -1.60994,1.61001 -0.58531,0.37634 -1.25438,0.37635 -1.81894,0.10467 -0.56457,-0.27168 -1.02456,-0.81531 -1.44285,-2.73897 -0.41829,-1.92367 -0.79464,-5.22723 -1.10828,-7.79907 -0.31363,-2.57183 -0.56454,-4.41179 -0.29268,-5.54106 0.27185,-1.12927 1.06638,-1.54744 1.21276,-2.3209 0.14638,-0.77346 -0.35542,-1.90254 0.10452,-3.24088 0.45994,-1.33835 1.88172,-2.88559 3.13637,-3.78471 z"
         id="path19754"
         inkscape:path-effect="#path-effect19756"
         inkscape:original-d="m 105.88354,125.70534 c 1.08753,-0.25065 2.17481,-0.50156 3.26181,-0.75273 0.75301,0.16754 1.50572,0.33481 2.25818,0.50182 0.41846,0.58573 0.83663,1.17117 1.25455,1.75636 0.753,0.41845 1.50571,0.83663 2.25818,1.25454 0.37663,0.41846 0.75299,0.83663 1.12909,1.25455 -0.50157,0.71118 -1.00338,1.42208 -1.50546,2.13272 0.0421,0.66937 0.0839,1.33845 0.12546,2.00727 0.87846,0.54392 1.75662,1.08754 2.63454,1.63091 2.6e-4,1.50575 2.6e-4,3.01117 0,4.51636 -0.5852,3.68034 -1.17064,7.36026 -1.75636,11.03999 -0.45975,0.46028 -0.91974,0.92026 -1.38,1.38 -0.7943,-1.00339 -1.58883,-2.00701 -2.38363,-3.01091 -0.87794,-0.0834 -1.7561,-0.167 -2.63455,-0.25091 -0.54338,0.20936 -1.087,0.41845 -1.63091,0.62728 -0.50156,0.753 -1.00336,1.5057 -1.50545,2.25817 -0.66884,2.7e-4 -1.33791,2.7e-4 -2.00727,1e-5 -0.45974,-0.54339 -0.91973,-1.08701 -1.38,-1.63091 -0.3761,-3.30344 -0.75246,-6.607 -1.12909,-9.9109 -0.25065,-1.83977 -0.50155,-3.67973 -0.75273,-5.51999 0.79483,-0.41793 1.58936,-0.8361 2.38364,-1.25455 -0.50156,-1.12885 -1.00337,-2.25792 -1.50545,-3.38727 1.42211,-1.54704 2.84389,-3.09428 4.26545,-4.64181 z"
         sodipodi:nodetypes="ccccccccccccccccccccccc" /><path
         style="fill:#ffffff;fill-opacity:1;stroke:none;stroke-width:1;stroke-dasharray:none;stroke-opacity:1"
         d="m 104.20443,153.2164 c 0.41412,0.0148 1.24208,0.0444 1.996,-0.19223 0.75393,-0.23659 1.43402,-0.73926 1.96628,-1.15324 0.53225,-0.41398 0.91665,-0.73924 1.49342,-0.72437 0.57676,0.0149 1.34556,0.36971 2.04045,0.76894 0.69489,0.39923 1.31585,0.84277 1.81851,1.04964 0.50267,0.20687 0.88707,0.17731 0.87213,0.73923 -0.0149,0.56193 -0.42891,1.71514 -0.63587,2.29167 -0.20696,0.57654 -0.91664,-0.13314 -0.90187,-0.34001 0.0148,-0.20687 0.0443,-0.62084 -0.0592,-0.62091 -0.10351,-8e-5 -0.34007,0.41389 -0.44352,0.7097 -0.10344,0.2958 -0.0739,0.47322 0.0741,0.72456 0.14794,0.25134 0.41406,0.5766 0.2661,0.97565 -0.14796,0.39905 -0.70977,0.87215 -1.22711,0.96096 -0.51734,0.0888 -0.99044,-0.20688 -1.43411,-0.23657 -0.44366,-0.0297 -0.85763,0.20687 -1.33896,0.21685 -0.48133,0.01 -1.03024,-0.20679 -1.14127,-0.61065 -0.11103,-0.40386 0.21616,-0.9947 0.19782,-1.63609 -0.0183,-0.64139 -0.38243,-1.33339 -0.49383,-1.22411 -0.1114,0.10927 0.03,1.01987 -0.11466,1.55588 -0.1447,0.53601 -0.57563,0.69774 -1.03351,0.51933 -0.45788,-0.17841 -0.94277,-0.69728 -1.33315,-1.38547 -0.39038,-0.6882 -0.68607,-1.5457 -0.83398,-1.97463 -0.1479,-0.42892 -0.14788,-0.42892 0.26623,-0.41413 z"
         id="path20437"
         inkscape:path-effect="#path-effect20439"
         inkscape:original-d="m 103.79032,153.20161 c 0.82822,0.0298 1.65618,0.0594 2.48387,0.0887 0.68039,-0.50243 1.36048,-1.00511 2.04033,-1.50806 0.38468,-0.32501 0.76908,-0.65028 1.15322,-0.97581 0.7691,0.35511 1.5379,0.70994 2.30645,1.06452 0.62125,0.44382 1.2422,0.88736 1.86291,1.33064 0.38468,-0.0293 0.76908,-0.0589 1.15322,-0.0887 -0.41372,1.15351 -0.82769,2.30672 -1.24193,3.45968 l -0.70968,-0.70968 c 0.0298,-0.41372 0.0594,-0.82769 0.0887,-1.24193 -0.2363,0.41425 -0.47286,0.82822 -0.70968,1.24193 0.0298,0.17769 0.0594,0.3551 0.0887,0.53226 0.2664,0.32554 0.53252,0.6508 0.79839,0.97581 -0.56158,0.47339 -1.12339,0.9465 -1.68549,1.41935 -0.47286,-0.29544 -0.94597,-0.59113 -1.41935,-0.8871 -0.41372,0.23683 -0.82769,0.47339 -1.24194,0.70968 -0.54865,-0.21651 -1.09755,-0.43329 -1.64674,-0.65033 0.32749,-0.59064 0.65469,-1.18148 0.98166,-1.77266 -0.36387,-0.69182 -0.72797,-1.38382 -1.09235,-2.07614 0.14171,0.91089 0.28315,1.82149 0.42433,2.73186 -0.43068,0.162 -0.86161,0.32373 -1.29283,0.4852 -0.48465,-0.51862 -0.96954,-1.03749 -1.45471,-1.55664 -0.29544,-0.85728 -0.59113,-1.71479 -0.8871,-2.57258 z"
         sodipodi:nodetypes="scccccccccccccccccccccss" /><path
         style="fill:#ffffff;fill-opacity:1;stroke:none;stroke-width:1;stroke-dasharray:none;stroke-opacity:1"
         d="m 83.385502,174.92546 c -0.669271,-2.7182 0.752547,-6.3982 2.592589,-9.49284 1.840043,-3.09463 4.098177,-5.60367 6.440032,-7.9037 2.341855,-2.30003 4.767262,-4.3909 6.98372,-3.59615 2.216457,0.79475 4.223687,4.47467 6.774657,6.18904 2.55098,1.71438 5.64546,1.46347 7.56895,0.16718 1.92349,-1.29629 2.6762,-3.63806 3.59634,-4.93453 0.92013,-1.29647 2.00738,-1.54737 3.59653,-0.71084 1.58915,0.83653 3.68002,2.76012 5.39453,4.8929 1.71451,2.13278 3.05266,4.47455 4.26536,7.4855 1.21269,3.01094 2.29994,6.69086 0.37625,9.86888 -1.92368,3.17803 -6.85812,5.85433 -12.50356,7.44344 -5.64543,1.58911 -12.00166,2.09092 -16.9362,1.38009 C 96.600154,185.0036 93.0875,183.08 89.951108,181.24 c -3.136392,-1.84001 -5.896335,-3.59633 -6.565606,-6.31454 z"
         id="path21069"
         inkscape:path-effect="#path-effect21071"
         inkscape:original-d="m 81.294469,175.88711 c 1.422083,-3.67973 2.843898,-7.35973 4.265451,-11.03999 2.258489,-2.50888 4.516623,-5.01792 6.77454,-7.52727 2.425763,-2.09068 4.851167,-4.18155 7.276356,-6.27272 2.007574,3.68034 4.014804,7.36026 6.021814,11.03999 3.09487,-0.25065 6.18935,-0.50155 9.28363,-0.75273 0.753,-2.34159 1.50571,-4.68336 2.25817,-7.02544 1.08756,-0.25065 2.17481,-0.50156 3.26182,-0.75273 2.09121,1.92394 4.18208,3.84753 6.27272,5.7709 1.33847,2.34213 2.67663,4.6839 4.01454,7.02545 1.08756,3.68034 2.17481,7.36026 3.26182,11.03999 -4.93438,2.67668 -9.86882,5.35299 -14.80362,8.02908 -6.35622,0.5021 -12.71245,1.0039 -19.06908,1.50546 -3.512526,-1.92341 -7.025179,-3.84701 -10.538169,-5.77091 -2.759789,-1.75613 -5.519729,-3.51246 -8.279992,-5.26908 z" /><ellipse
         style="display:inline;fill:#ffffff;fill-opacity:1;stroke:#000000;stroke-width:1;stroke-dasharray:none;stroke-opacity:1"
         id="path21125"
         cx="104.4762"
         cy="133.73442"
         rx="3.3872697"
         ry="3.2618151" /><ellipse
         style="display:inline;fill:#ffffff;fill-opacity:1;stroke:#000000;stroke-width:1;stroke-dasharray:none;stroke-opacity:1"
         id="path21125-6"
         cx="112.58257"
         cy="133.2326"
         rx="5.2839527"
         ry="4.5312262" /><ellipse
         style="display:inline;fill:#ffffff;fill-opacity:1;stroke:#000000;stroke-width:1;stroke-dasharray:none;stroke-opacity:1"
         id="path21187"
         cx="112.78352"
         cy="133.93065"
         rx="0.87818098"
         ry="1.0036354" /><ellipse
         style="display:inline;fill:#ffffff;fill-opacity:1;stroke:#000000;stroke-width:1;stroke-dasharray:none;stroke-opacity:1"
         id="path21187-6"
         cx="104.85255"
         cy="133.98534"
         rx="0.87818098"
         ry="1.0036354" /><path
         style="fill:#ffffff;fill-opacity:1;stroke:#ffffff;stroke-width:1;stroke-dasharray:none;stroke-opacity:1"
         d="m 132.70821,166.06973 c 0.20919,-1.46376 1.71464,-1.12922 3.22009,-0.96198 1.50545,0.16724 3.01087,0.16724 4.22353,-0.0419 1.21266,-0.20912 2.13264,-0.62729 2.55076,0.29288 0.41812,0.92018 0.33449,3.17831 -0.50186,4.89272 -0.83636,1.71442 -2.42542,2.8853 -3.80531,3.42896 -1.37989,0.54366 -2.55077,0.46003 -3.67997,-1.21258 -1.12919,-1.67261 -2.21644,-4.93436 -2.00724,-6.39812 z"
         id="path23585"
         inkscape:path-effect="#path-effect23587"
         inkscape:original-d="m 131.41164,164.27136 c 1.50572,0.33481 3.01117,0.66935 4.51636,1.00363 1.50575,2.7e-4 3.01117,2.7e-4 4.51636,0 0.92028,-0.41792 1.84026,-0.83609 2.76,-1.25454 -0.0834,2.25849 -0.16701,4.51662 -0.25091,6.77454 -1.58886,1.17119 -3.17792,2.34208 -4.76727,3.51272 -1.17067,-0.0834 -2.34155,-0.16701 -3.51273,-0.2509 -1.08703,-3.26162 -2.17428,-6.52337 -3.26181,-9.78545 z" /><path
         style="fill:none;fill-opacity:1;stroke:#ffffff;stroke-width:1;stroke-linecap:round;stroke-dasharray:none;stroke-opacity:1"
         d="m 138.50806,161.04033 c 0.7392,-2.42456 1.47845,-4.84929 1.56722,-7.15569 0.0888,-2.3064 -0.47305,-4.49453 -0.32526,-6.56454 0.14779,-2.07 1.0053,-4.02158 1.86288,-5.97332"
         id="path24029"
         inkscape:path-effect="#path-effect24031"
         inkscape:original-d="m 138.50806,161.04033 c 0.73952,-2.42446 1.47876,-4.8492 2.21775,-7.27419 -0.56158,-2.18795 -1.1234,-4.37608 -1.68549,-6.56452 0.85781,-1.95138 1.71532,-3.90296 2.57258,-5.85484" /><path
         style="fill:none;fill-opacity:1;stroke:#ffffff;stroke-width:1;stroke-linecap:round;stroke-dasharray:none;stroke-opacity:1"
         d="m 139.83871,163.43549 c 0.29565,-1.12347 0.59135,-2.24713 1.24189,-3.59263 0.65055,-1.34551 1.65591,-2.91268 1.83344,-4.25799 0.17752,-1.34532 -0.473,-2.46896 -0.51747,-3.57795 -0.0445,-1.10898 0.51735,-2.20304 1.07923,-3.29723"
         id="path24033"
         inkscape:path-effect="#path-effect24035"
         inkscape:original-d="m 139.83871,163.43549 c 0.29596,-1.12339 0.59166,-2.24705 0.88709,-3.37097 1.00566,-1.56697 2.01102,-3.13414 3.01613,-4.70161 -0.65028,-1.12341 -1.30081,-2.24705 -1.95161,-3.37097 0.5621,-1.09384 1.12392,-2.1879 1.68548,-3.28225"
         sodipodi:nodetypes="ccccc" /><path
         style="fill:none;fill-opacity:1;stroke:#ffffff;stroke-width:1;stroke-linecap:round;stroke-linejoin:round;stroke-dasharray:none;stroke-opacity:1"
         d="m 136.20161,163.87904 c -0.67999,-1.92173 -1.3601,-3.84378 -1.04968,-5.69205 0.31043,-1.84827 1.61147,-3.62243 1.99594,-5.33736 0.38448,-1.71494 -0.14777,-3.37082 -0.68013,-5.02705"
         id="path24037"
         inkscape:path-effect="#path-effect24039"
         inkscape:original-d="m 136.20161,163.87904 c -0.67984,-1.92178 -1.35995,-3.84383 -2.04032,-5.76613 1.30136,-1.77397 2.60241,-3.54813 3.90322,-5.32259 -0.532,-1.65568 -1.06425,-3.31156 -1.59677,-4.96774"
         inkscape:export-filename="logo.png"
         inkscape:export-xdpi="71.051964"
         inkscape:export-ydpi="71.051964" /></g></g></svg>
