<?xml version="1.0" encoding="UTF-8" standalone="no"?>
<!-- Created with Inkscape (http://www.inkscape.org/) -->

<svg
   width="40.862576mm"
   height="65.458229mm"
   viewBox="0 0 40.862576 65.458229"
   version="1.1"
   id="svg5"
   inkscape:version="1.2.1 (9c6d41e410, 2022-07-14)"
   sodipodi:docname="bg.svg"
   xmlns:inkscape="http://www.inkscape.org/namespaces/inkscape"
   xmlns:sodipodi="http://sodipodi.sourceforge.net/DTD/sodipodi-0.dtd"
   xmlns="http://www.w3.org/2000/svg"
   xmlns:svg="http://www.w3.org/2000/svg">
  <sodipodi:namedview
     id="namedview7"
     pagecolor="#ffffff"
     bordercolor="#666666"
     borderopacity="1.0"
     inkscape:showpageshadow="2"
     inkscape:pageopacity="0.0"
     inkscape:pagecheckerboard="0"
     inkscape:deskcolor="#d1d1d1"
     inkscape:document-units="mm"
     showgrid="false"
     inkscape:zoom="1.6819304"
     inkscape:cx="47.564394"
     inkscape:cy="103.74983"
     inkscape:window-width="1600"
     inkscape:window-height="838"
     inkscape:window-x="-6"
     inkscape:window-y="-6"
     inkscape:window-maximized="1"
     inkscape:current-layer="layer1" />
  <defs
     id="defs2">
    <inkscape:path-effect
       effect="skeletal"
       id="path-effect5787"
       is_visible="true"
       lpeversion="1"
       pattern="M 0,4.9921382 C 0,2.2364779 2.2364779,0 4.9921382,0 c 2.7556604,0 4.9921383,2.2364779 4.9921383,4.9921382 0,2.7556604 -2.2364779,4.9921383 -4.9921383,4.9921383 C 2.2364779,9.9842765 0,7.7477986 0,4.9921382 Z"
       copytype="single_stretched"
       prop_scale="1"
       scale_y_rel="false"
       spacing="0"
       normal_offset="0"
       tang_offset="0"
       prop_units="false"
       vertical_pattern="false"
       hide_knot="false"
       fuse_tolerance="0" />
    <inkscape:path-effect
       effect="skeletal"
       id="path-effect5775"
       is_visible="true"
       lpeversion="1"
       pattern="M 0,4.9921382 C 0,2.2364779 2.2364779,0 4.9921382,0 c 2.7556604,0 4.9921383,2.2364779 4.9921383,4.9921382 0,2.7556604 -2.2364779,4.9921383 -4.9921383,4.9921383 C 2.2364779,9.9842765 0,7.7477986 0,4.9921382 Z"
       copytype="single_stretched"
       prop_scale="1"
       scale_y_rel="false"
       spacing="0"
       normal_offset="0"
       tang_offset="0"
       prop_units="false"
       vertical_pattern="false"
       hide_knot="false"
       fuse_tolerance="0" />
    <inkscape:path-effect
       effect="skeletal"
       id="path-effect5771"
       is_visible="true"
       lpeversion="1"
       pattern="M 0,4.9921382 C 0,2.2364779 2.2364779,0 4.9921382,0 c 2.7556604,0 4.9921383,2.2364779 4.9921383,4.9921382 0,2.7556604 -2.2364779,4.9921383 -4.9921383,4.9921383 C 2.2364779,9.9842765 0,7.7477986 0,4.9921382 Z"
       copytype="single_stretched"
       prop_scale="1"
       scale_y_rel="false"
       spacing="0"
       normal_offset="0"
       tang_offset="0"
       prop_units="false"
       vertical_pattern="false"
       hide_knot="false"
       fuse_tolerance="0" />
    <inkscape:path-effect
       effect="skeletal"
       id="path-effect5698"
       is_visible="true"
       lpeversion="1"
       pattern="M 0,4.9921382 C 0,2.2364779 2.2364779,0 4.9921382,0 c 2.7556604,0 4.9921383,2.2364779 4.9921383,4.9921382 0,2.7556604 -2.2364779,4.9921383 -4.9921383,4.9921383 C 2.2364779,9.9842765 0,7.7477986 0,4.9921382 Z"
       copytype="single_stretched"
       prop_scale="1"
       scale_y_rel="false"
       spacing="0"
       normal_offset="0"
       tang_offset="0"
       prop_units="false"
       vertical_pattern="false"
       hide_knot="false"
       fuse_tolerance="0" />
  </defs>
  <g
     inkscape:label="Calque 1"
     inkscape:groupmode="layer"
     id="layer1"
     transform="translate(-74.486387,-36.597352)">
    <path
       id="rect111"
       style="opacity:0.999;fill:#f7f6db;stroke:#000000;stroke-width:0.665001;stop-color:#000000"
       d="m 74.972046,36.929852 h 30.700714 l 5.33926,15.12789 4.00444,-5.339257 V 101.72308 H 74.972046 Z"
       sodipodi:nodetypes="ccccccc" />
    <path
       style="fill:none;stroke:#000000;stroke-width:0.264583px;stroke-linecap:butt;stroke-linejoin:miter;stroke-opacity:1"
       d="m 105.89523,37.041084 9.23246,9.121227"
       id="path4581" />
    <path
       style="fill:#faf9e7;fill-opacity:1;stroke:#000000;stroke-width:0.420414;stroke-opacity:1"
       d="m 419.85361,193.5043 c -0.27799,-0.4498 -17.938,-50.48179 -17.938,-50.81956 0,-0.12739 7.28367,6.92373 16.18593,15.66915 8.90226,8.74542 16.18593,16.07534 16.18593,16.28871 0,0.30862 -12.6584,17.53356 -13.88166,18.88949 -0.17463,0.19357 -0.42312,0.18106 -0.5522,-0.0278 z"
       id="path4652"
       transform="scale(0.26458333)" />
    <path
       style="fill:#756420;fill-opacity:1;stroke:none;stroke-width:0.264583px;stroke-linecap:butt;stroke-linejoin:miter;stroke-opacity:1"
       d="m 78.30908,61.290202 c -0.459572,-0.765954 -0.509407,-2.239397 1.350494,-3.481161 0.90018,-0.269108 1.565114,-0.405572 1.430367,-0.529846 0.14392,-0.06802 0.292294,-0.134465 0.444939,-0.199269 0.118797,-0.239505 0.715652,-0.542267 2.421704,-0.522532 1.72909,0.530078 2.778438,1.065757 2.91702,1.396333 0.924577,0.964081 1.27891,1.408106 1.075832,1.041816 -0.890451,-1.034343 -0.621094,-0.796922 0.536406,0.564339 0,0 10e-6,1.1e-5 10e-6,1.1e-5 0.439191,0.676262 0.651443,1.039337 0.658749,0.984266 0.322265,0.548764 0.217825,0.399208 -0.297711,-0.510927 0,0 -5e-6,-10e-6 -5e-6,-10e-6 -0.733899,-0.826323 -0.694212,-0.85733 0.167346,0.07888 0,0 8e-6,8e-6 8e-6,8e-6 0.574661,0.75792 0.650434,0.882012 0.262271,0.30181 -0.583893,-0.653706 -0.573333,-0.734817 0.467216,0.420459 0.696601,0.916317 0.579069,0.834283 -0.199935,-0.211593 -2.718499,-1.532227 -3.019347,-1.997814 -0.576073,-0.73891 0,0 10e-6,6e-6 10e-6,6e-6 2.762052,2.085534 2.823153,2.290652 -0.244723,-0.0017 -1.162989,-0.265522 -1.255366,-0.383484 0.04899,-0.104845 0.462665,0.09103 0.936981,0.217705 1.41894,0.383754 0.399464,0.137627 0.797475,0.299999 1.191899,0.486889 0.866635,0.419582 1.347277,0.745274 1.518171,0.864698 0.344896,0.181156 0.513318,0.304372 0.542431,0.348385 1.443071,1.131421 0.14998,2.576767 -3.831112,4.266542 l 0,0 c 0.01041,0.06074 0.0091,0.115999 0.01011,0.174567 0.0027,0.161095 0.0017,0.32245 -0.0012,0.482055 0,0 0,1e-5 0,1e-5 -0.02268,1.250457 -0.176982,2.408383 -0.446273,3.465176 0.70679,-1.421224 1.382447,-2.845988 2.028196,-4.274424 0,0 3e-6,-8e-6 3e-6,-8e-6 0.06416,-0.145407 0.127813,-0.290509 0.191358,-0.435958 0.02568,-0.05878 0.04723,-0.115508 0.07761,-0.177325 0.04884,-0.07598 0.09728,-0.13875 0.145938,-0.206729 0,0 5e-6,-7e-6 5e-6,-7e-6 0.136754,-0.190293 0.271999,-0.379157 0.406237,-0.567617 0,0 5e-6,-7e-6 5e-6,-7e-6 0.604556,-0.848749 1.18627,-1.684939 1.746853,-2.509757 0.494855,0.349151 0.948517,0.70211 1.36099,1.050159 0,0 0,10e-7 0,10e-7 0.461347,0.434561 0.895408,0.890058 1.141365,1.137544 0.522199,0.296718 0.703386,0.468876 0.64546,0.516777 0.223259,0.308872 0.599138,0.694503 0.970865,1.129114 0.476186,0.409059 0.417797,0.573418 0.182293,0.576396 -0.277345,0.09625 -0.01885,0.333893 0.317352,0.653915 0.444869,0.279365 0.413185,0.372089 0.176889,0.346158 -0.229293,0.272248 0.272793,0.782716 0.344604,1.207956 0.32811,0.444409 -0.129999,0.709896 -0.246033,0.825939 -0.120888,0.120897 -0.638175,0.289694 -0.468513,0.603459 -0.14679,0.23572 -0.274882,0.734805 -0.99021,0.763016 -0.386844,-0.08472 -0.544075,-0.09073 -0.26805,0.123692 -0.05197,0.166913 -0.273956,0.326897 -1.017459,0.208975 -0.608508,-0.163898 -1.001518,-0.274806 -0.930053,-0.09101 -0.282849,0.06559 -0.679972,0.108826 -1.253825,0.01677 -0.348176,-0.09697 -0.449715,-0.09769 -0.244421,0.07184 -0.773596,-0.133806 -1.523279,-0.307398 -2.195663,-0.419735 0,0 -10e-7,0 -10e-7,0 -0.533766,-0.124416 -1.069212,-0.268787 -1.607797,-0.427907 0.360635,-0.923196 0.741186,-1.8588 1.141289,-2.803905 0,0 3e-6,-8e-6 3e-6,-8e-6 0.08883,-0.209828 0.178656,-0.420212 0.269117,-0.630282 0,0 3e-6,-8e-6 3e-6,-8e-6 0.03244,-0.07492 0.06551,-0.155437 0.09848,-0.222975 0.03214,-0.04778 0.07332,-0.100881 0.11065,-0.152214 0.09234,-0.12697 0.185564,-0.254783 0.279202,-0.382703 0,0 5e-6,-7e-6 5e-6,-7e-6 0.739158,-1.373317 1.509282,-2.74409 2.310603,-4.110747 -0.07096,1.171599 -0.02247,2.439845 0.145497,3.822811 0,0 2e-6,1.1e-5 2e-6,1.1e-5 0.02145,0.176581 0.04505,0.354607 0.06909,0.536439 0.0087,0.06607 0.0203,0.135973 0.02071,0.200771 l 0,0 c -4.049963,1.717773 -5.419206,3.100784 -4.045988,4.206064 -0.571912,-0.180381 -0.974249,-0.330554 -1.231512,-0.422502 -0.854648,-0.344953 -1.389884,-0.62455 -1.596398,-0.69258 -0.08653,-0.03173 -0.184431,-0.06467 -0.29337,-0.10039 -0.131454,-0.0431 -0.276624,-0.08953 -0.432821,-0.141313 0.812357,0.16592 0.343818,0.106346 -1.285823,-0.327315 -3.178721,-2.300688 -3.350846,-2.504747 -0.689659,-0.446615 0,0 8e-6,5e-6 8e-6,5e-6 1.942837,1.007446 1.210478,0.720276 -1.910889,-1.183849 -0.973336,-1.24249 -1.177532,-1.576714 -0.644869,-0.878999 0.765633,0.807949 0.662624,0.744727 -0.200194,-0.246953 -0.564709,-0.802456 -0.582814,-0.904606 -0.182663,-0.365596 0,0 7e-6,6e-6 7e-6,6e-6 0.716428,0.757048 0.594302,0.64175 -0.277593,-0.366053 0,0 -6e-6,-1.1e-5 -6e-6,-1.1e-5 -0.618477,-1.048377 -0.765721,-1.352268 -0.520182,-0.955864 -0.22028,-0.510657 -0.186886,-0.609513 -0.0087,-0.350552 0,0 9e-6,1e-5 9e-6,1e-5 1.076539,1.219009 1.077997,1.28151 0.09147,0.119406 -0.621532,-0.908741 -0.501935,-1.01906 -0.03651,-0.515468 -0.257244,-0.06692 0.373323,0.0757 1.582201,0.506459 0.505331,-0.197307 0.0062,-0.278568 -0.915325,-0.522532 -0.152645,-0.0648 -0.301019,-0.131252 -0.444939,-0.199269 -0.782972,-0.125563 -0.698965,-0.374089 -0.349385,-0.529846 -0.649559,-0.762269 -1.907459,-1.050518 -2.431476,-1.923881 z"
       id="path5696"
       inkscape:path-effect="#path-effect5698"
       inkscape:original-d="m 78.30908,61.290202 c 0.721717,-0.43303 0.864373,-0.573318 1.890985,-0.77864 0.290864,-0.05817 0.593251,0 0.889876,0 0.148312,0 0.296624,0 0.444939,0 0.556173,0 1.122167,-0.104068 1.668515,0 0.262652,0.05003 0.478346,0.255873 0.667409,0.444937 0.225536,0.225539 0.36035,0.52687 0.556173,0.778642 0.06438,0.08278 0.166886,0.133535 0.222467,0.222467 0.131826,0.210923 0.222469,0.444939 0.333703,0.667409 0.03708,0.07415 0.06149,0.156141 0.111236,0.222469 0.06292,0.0839 0.156956,0.140576 0.22247,0.222467 0.08351,0.104394 0.138954,0.229312 0.222467,0.333703 0.09827,0.122839 0.239318,0.207857 0.333705,0.333706 0.08021,0.10695 0.127937,0.23917 0.222467,0.333703 0.142463,0.14246 0.541695,0.159613 0.667409,0.22247 0.0938,0.0469 0.124272,0.185645 0.222467,0.222467 0.211177,0.07919 0.447646,0.06052 0.667409,0.111236 0.471188,0.108736 1.244214,0.363307 1.668515,0.556173 0.528347,0.240154 1.028938,0.538482 1.557285,0.778639 2.938724,1.335786 -1.998184,-1.165942 2.335924,1.001112 2.993493,1.496745 -0.459031,-0.07238 1.668515,0.77864 0.153961,0.06158 0.296627,0.148315 0.44494,0.222469 0.370781,0.185391 0.749966,0.354852 1.112345,0.556173 0.188992,0.104997 0.359349,0.24424 0.556173,0.333703 0.213481,0.09704 0.447833,0.140129 0.667406,0.22247 0.07763,0.02911 0.145489,0.08044 0.222469,0.111233 0.217731,0.08709 0.457661,0.117597 0.667407,0.22247 0.0469,0.02344 0.07416,0.07416 0.111233,0.111233"
       class="UnoptimicedTransforms"
       transform="translate(-2.7808622,-6.0066621)" />
    <path
       style="fill:#a0892c;fill-opacity:1;stroke:none;stroke-width:0.264583px;stroke-linecap:butt;stroke-linejoin:miter;stroke-opacity:1"
       d="m 101.89079,94.771783 c -0.40089,-0.08022 -1.69372,-0.08378 -1.65467,-1.27938 0,-10e-7 0,-10e-7 0,-10e-7 0.41825,-1.467229 1.29553,-2.896028 -0.20565,-1.452418 0,2e-6 0,10e-7 0,10e-7 -0.250402,0.190584 -0.458072,0.189214 -0.417968,-0.277753 -0.09616,-0.421524 -0.17457,-0.903956 -0.27073,-1.32548 0,0 0,-10e-7 0,-10e-7 -0.07712,-0.817635 -0.04757,-1.669311 0.07604,-2.512062 -0.03883,-0.06833 0.0014,-0.520485 0.270968,-1.408222 0.05716,-0.188238 0.123959,-0.393543 0.201322,-0.615069 0.666482,-1.433167 0.964592,-1.767146 0.847192,-1.439379 0.0661,0.02188 0.33878,-0.450615 0.84814,-1.197797 0.81964,-1.249262 0.95746,-1.124423 0.54328,-0.276877 0,0 -1e-5,1.6e-5 -1e-5,1.6e-5 -0.43012,3.286227 -0.49635,3.187486 0.0286,-0.04625 0.76328,-1.337105 0.9867,-1.410669 0.78649,-0.824082 -0.03,0.370416 0.13663,0.203586 0.47041,-0.2517 0.44757,-0.71707 0.54928,-0.517013 0.41179,0.08322 0.23899,-0.179895 0.48484,-0.347714 0.74101,-0.493629 0.6043,-0.489285 1.22151,0.342339 1.76564,2.008091 l -0.002,-9.13e-4 c -0.24092,0.0184 -0.44652,0.03846 -0.62684,0.05017 -0.28406,0.01973 -0.50118,0.02658 -0.66408,0.01807 -0.55687,-0.02909 -0.42832,-0.266217 0.0154,-0.518854 l 0,0 c -0.35181,-1.377421 -0.0309,-1.44245 0.29752,-1.263738 0.39406,-0.237287 1.10766,-0.324121 1.54373,-0.324123 0.70241,-2e-6 0.88339,0.164216 1.52453,0.391354 0.34363,0.362674 0.5628,0.509516 0.31672,-0.644379 l 0,0 c 0.51043,-0.143832 0.72655,-0.228764 0.3154,-0.305696 -0.12276,-0.02297 -0.30634,-0.04301 -0.55856,-0.05357 -0.16136,-0.0059 -0.35521,-0.01101 -0.5724,-0.0044 l 0,0 c 0.56087,1.770625 1.09912,2.706127 1.66627,2.323535 0.13824,0.20022 0.26797,0.418957 0.37841,0.660353 -0.23138,0.91625 -0.32995,1.358333 -0.0332,0.973104 0.1755,-0.104289 0.2432,0.111219 0.0255,0.860644 -0.39799,0.990393 -0.46856,1.175191 0.11909,0.288264 0.5885,-3.996167 0.4061,-1.905353 0.0286,0.62116 0,0 -1e-5,1.6e-5 -1e-5,1.6e-5 -0.64515,1.363596 -0.8804,1.778883 -0.3466,1.057935 0.10278,0.015 0.0857,0.390118 -0.2642,1.249361 -0.46093,1.022686 -0.64197,1.231454 -0.26515,0.562845 0.006,-0.03001 0.008,-0.04064 0.006,-0.03133 -0.009,0.04376 -0.1218,0.534414 -0.42369,1.345073 -0.40616,0.939353 -0.91665,1.735561 -1.48124,2.38226 0,0 0,0 0,0 -0.38501,0.509825 -0.77932,0.864253 -1.16061,1.121675 -0.10742,-0.06403 -0.42613,0.320457 -0.86291,0.834593 0,0 0,0 0,0 -2.0793,2.304342 -1.79953,0.777607 -1.54045,-0.117605 0,0 0,0 0,0 -0.29672,-1.20936 -1.20947,-0.03342 -1.87715,-0.167035 z"
       id="path5785"
       inkscape:path-effect="#path-effect5787"
       inkscape:original-d="m 101.89079,94.771783 c 0.0371,-0.185391 0.0194,-0.390903 0.11124,-0.556173 0.0897,-0.32386 0.51131,-0.394242 0.6674,-0.667406 0.0991,-0.173365 0.15236,-0.369213 0.22247,-0.556173 0.15239,-0.406357 0.3077,-0.81186 0.44494,-1.223578 0.2707,-0.812089 0.5347,-1.626638 0.77864,-2.447161 0.16403,-0.551741 0.24283,-1.129559 0.44494,-1.668515 0.13404,-0.357439 0.38545,-0.65967 0.55617,-1.001112 0.20036,-0.400719 0.34655,-0.827627 0.55617,-1.223579 0.1251,-0.236302 0.33635,-0.423077 0.44494,-0.667406 0.0452,-0.101648 -0.0391,-0.229553 0,-0.333703 0.0759,-0.202435 0.23702,-0.362797 0.3337,-0.556173 0.0893,-0.178594 0.14138,-0.37371 0.22247,-0.556172 0.0674,-0.151527 0.17482,-0.286113 0.22247,-0.44494 0.39811,-1.327015 0.20602,-0.366596 0,-0.778639 -0.0256,-0.05122 0,-0.552122 0,-0.667409"
       class="UnoptimicedTransforms" />
    <path
       style="fill:none;stroke:#e4e187;stroke-width:0.264583px;stroke-linecap:butt;stroke-linejoin:miter;stroke-opacity:1"
       d="m 97.531779,36.967691 -7.078919,6.449682 -13.528601,2.51695 -2.35964,1.730402"
       id="path5858" />
    <path
       style="fill:none;stroke:#e4e187;stroke-width:0.264583px;stroke-linecap:butt;stroke-linejoin:miter;stroke-opacity:1"
       d="m 80.69968,85.418961 7.23623,3.460805 5.663136,-0.471929 4.247351,-0.943856"
       id="path5860" />
    <path
       style="fill:none;stroke:#e4e187;stroke-width:0.264583px;stroke-linecap:butt;stroke-linejoin:miter;stroke-opacity:1"
       d="m 90.138241,68.429554 c 0,0 6.292374,-0.786545 6.921608,0.629238 0.629238,1.415783 6.449681,-0.629238 6.449681,-0.629238 l 4.24735,-3.303494 4.40467,1.573093"
       id="path5862" />
    <path
       style="fill:none;stroke:#e4e187;stroke-width:0.264583px;stroke-linecap:butt;stroke-linejoin:miter;stroke-opacity:1"
       d="m 92.812498,51.597456 c 0,0 15.888242,4.876591 16.517482,5.033899 0.62924,0.157311 5.0339,-0.471927 5.0339,-0.471927"
       id="path5864" />
    <path
       style="fill:none;stroke:#e4e187;stroke-width:0.264583px;stroke-linecap:butt;stroke-linejoin:miter;stroke-opacity:1"
       d="m 75.980403,79.441206 2.831565,-2.516947 3.618117,2.202328 10.382413,-4.247351 4.404662,2.67426"
       id="path5866" />
  </g>
</svg>
