<?xml version="1.0" encoding="UTF-8" standalone="no"?>
<!-- Created with Inkscape (http://www.inkscape.org/) -->

<svg
   width="21.90176mm"
   height="68.18071mm"
   viewBox="0 0 21.90176 68.18071"
   version="1.1"
   id="svg6974"
   inkscape:version="1.2.1 (9c6d41e410, 2022-07-14)"
   sodipodi:docname="CaramelSirop.svg"
   xmlns:inkscape="http://www.inkscape.org/namespaces/inkscape"
   xmlns:sodipodi="http://sodipodi.sourceforge.net/DTD/sodipodi-0.dtd"
   xmlns="http://www.w3.org/2000/svg"
   xmlns:svg="http://www.w3.org/2000/svg">
  <sodipodi:namedview
     id="namedview6976"
     pagecolor="#ffffff"
     bordercolor="#666666"
     borderopacity="1.0"
     inkscape:showpageshadow="2"
     inkscape:pageopacity="0.0"
     inkscape:pagecheckerboard="0"
     inkscape:deskcolor="#d1d1d1"
     inkscape:document-units="mm"
     showgrid="false"
     inkscape:zoom="0.84096521"
     inkscape:cx="134.36941"
     inkscape:cy="138.5313"
     inkscape:window-width="1600"
     inkscape:window-height="838"
     inkscape:window-x="-6"
     inkscape:window-y="-6"
     inkscape:window-maximized="1"
     inkscape:current-layer="layer1" />
  <defs
     id="defs6971" />
  <g
     inkscape:label="Calque 1"
     inkscape:groupmode="layer"
     id="layer1"
     transform="translate(-112.72659,-67.584846)">
    <path
       id="rect440-7"
       style="opacity:0.999;fill:none;stroke:#000000;stroke-width:0.665001;stop-color:#000000"
       d="m 112.92247,103.93851 c 7.07892,2.3368 14.15784,2.67909 21.23676,0"
       sodipodi:nodetypes="cc" />
    <path
       id="rect3619"
       style="opacity:0.999;fill:#784421;stroke:#333333;stroke-width:0.665001;stop-color:#000000"
       d="m 130.4374,72.878195 h -13.5706 c -2.09521,0 -3.78197,1.68676 -3.78197,3.781972 V 130.9426 c 0,2.09521 1.71857,3.41827 3.78197,3.78197 4.52353,0.79733 9.04707,1.08123 13.5706,0 2.03782,-0.48709 3.78198,-1.68676 3.78198,-3.78197 V 76.660167 c 0,-2.095212 -1.68676,-3.781972 -3.78198,-3.781972 z"
       sodipodi:nodetypes="sssssssss" />
    <rect
       style="opacity:0.999;fill:#333333;stroke-width:0.665001;stop-color:#000000"
       id="rect3621"
       width="10.067795"
       height="5.5844808"
       x="-129.05391"
       y="67.584846"
       ry="2.7922404"
       transform="scale(-1,1)" />
    <path
       id="path3625"
       style="opacity:0.999;fill:#9a572a;stroke-width:0.665001;stop-color:#000000"
       d="m 125.64383,73.208657 h 3.77542 c 1.25973,1.677966 1.10116,3.159115 1.10116,5.151881 V 131.2763 c 0.0209,1.23853 -0.40882,1.86749 -0.41292,3.10602 l -4.01138,0.62923 c 0.22649,-1.40033 0.69459,-2.34841 0.6489,-3.51278 V 78.281883 c 0,-2.05324 -0.0262,-3.500133 -1.10116,-5.073226 z"
       sodipodi:nodetypes="cccccccccc" />
    <path
       id="path3627"
       style="opacity:0.999;fill:#af6330;fill-opacity:1;stroke:#333333;stroke-width:0.665001;stop-color:#000000"
       d="m 113.05909,93.304922 c 7.07892,1.486506 14.15784,2.053568 21.23676,0 v 14.629768 c -6.95723,2.06874 -13.98483,2.94127 -21.23676,0 z"
       sodipodi:nodetypes="ccccc" />
    <g
       aria-label="caramel"
       transform="translate(-0.11123438,-1.6129)"
       id="text3631"
       style="font-size:3.88056px;line-height:1.25;-inkscape-font-specification:'sans-serif, Normal';text-align:center;letter-spacing:0px;word-spacing:0px;text-anchor:middle;stroke-width:0.264583">
      <path
         d="m 116.3376,104.96631 q -0.27066,-0.0658 -0.47961,-0.18486 -0.20711,-0.11861 -0.34013,-0.29331 -0.13119,-0.17425 -0.17171,-0.40055 -0.0405,-0.22631 0.0262,-0.50064 0.0703,-0.28906 0.21706,-0.47567 0.14862,-0.18617 0.35526,-0.28217 0.19933,-0.09 0.4332,-0.0975 0.23387,-0.007 0.46954,0.0498 0.21174,0.0515 0.37914,0.14093 0.1674,0.0895 0.30415,0.20071 l -0.13744,0.56523 -0.0939,-0.0228 q -0.0306,-0.0425 -0.0751,-0.10016 -0.0426,-0.0572 -0.11153,-0.11877 -0.0656,-0.0589 -0.14959,-0.10657 -0.0835,-0.0495 -0.20317,-0.0787 -0.26513,-0.0645 -0.44993,0.07 -0.1825,0.13308 -0.25279,0.42214 -0.0725,0.29827 0.0353,0.48829 0.10969,0.19047 0.3785,0.25583 0.1252,0.0304 0.23134,0.027 0.10842,-0.005 0.18411,-0.0274 0.0716,-0.0216 0.12927,-0.0505 0.0577,-0.0289 0.10762,-0.0577 l 0.0939,0.0228 -0.13743,0.56524 q -0.17441,0.0356 -0.35593,0.0363 -0.18013,0.003 -0.38634,-0.0471 z"
         style="font-weight:bold"
         id="path274" />
      <path
         d="m 118.86068,104.84739 0.0756,-0.43689 q -0.13823,-0.0124 -0.30049,-0.0193 -0.16193,-0.009 -0.2486,0.003 -0.10632,0.0143 -0.17113,0.0665 -0.0626,0.0507 -0.0798,0.14965 -0.0113,0.0653 -0.007,0.10836 0.004,0.043 0.0424,0.0881 0.0365,0.0448 0.093,0.0738 0.0568,0.0272 0.1838,0.0491 0.10082,0.0174 0.21062,-0.006 0.11166,-0.023 0.20171,-0.0766 z m -0.0562,0.32486 q -0.0613,0.0317 -0.15156,0.0757 -0.0903,0.044 -0.16707,0.0653 -0.10671,0.0277 -0.21668,0.0298 -0.1103,0.004 -0.23726,-0.018 -0.29873,-0.0517 -0.46836,-0.27146 -0.16964,-0.21975 -0.11987,-0.50727 0.0398,-0.22965 0.16766,-0.3575 0.1279,-0.12785 0.33102,-0.17922 0.20125,-0.0517 0.48371,-0.0393 0.28246,0.0124 0.58223,0.047 l 0.002,-0.0112 q 0.0301,-0.17363 -0.10052,-0.26354 -0.13026,-0.0918 -0.40658,-0.13962 -0.16617,-0.0288 -0.36508,-0.002 -0.19859,0.0252 -0.28624,0.0427 l -0.0616,-0.0107 0.0876,-0.50597 q 0.11127,-0.01 0.35671,-0.006 0.24764,0.002 0.48848,0.0442 0.57318,0.0992 0.79639,0.32057 0.2254,0.21978 0.16011,0.59692 l -0.24696,1.42641 -0.66653,-0.11539 z"
         style="font-weight:bold"
         id="path276" />
      <path
         d="m 121.74297,104.27577 -0.0603,-0.006 q -0.0418,-0.0196 -0.1371,-0.0372 -0.0953,-0.0176 -0.1594,-0.0242 -0.14511,-0.0151 -0.25827,-0.008 -0.11316,0.007 -0.24603,0.0391 l -0.14782,1.4172 -0.67845,-0.0708 0.22075,-2.11638 0.67845,0.0708 -0.0324,0.31095 q 0.24431,-0.16883 0.41664,-0.21372 0.17253,-0.0468 0.31199,-0.0322 0.0358,0.004 0.0808,0.0103 0.045,0.007 0.0786,0.0139 z"
         style="font-weight:bold"
         id="path278" />
      <path
         d="m 123.28098,105.2615 0.014,-0.44316 q -0.13861,0.007 -0.30025,0.0228 -0.16157,0.0139 -0.24574,0.0378 -0.10328,0.029 -0.16017,0.0897 -0.0549,0.0589 -0.0581,0.15931 -0.002,0.0663 0.008,0.1083 0.01,0.042 0.0543,0.0813 0.0424,0.0393 0.10237,0.0601 0.0601,0.019 0.18885,0.023 0.10227,0.003 0.20774,-0.0352 0.10737,-0.0383 0.18906,-0.104 z m -0.0104,0.32953 q -0.0562,0.0399 -0.13952,0.0961 -0.0833,0.0561 -0.15633,0.088 -0.1018,0.0423 -0.21041,0.0597 -0.10867,0.0193 -0.23745,0.0153 -0.30302,-0.01 -0.50165,-0.20348 -0.19863,-0.19394 -0.18944,-0.48559 0.007,-0.23295 0.11616,-0.37739 0.10882,-0.14444 0.30278,-0.22363 0.19207,-0.0793 0.4735,-0.10641 0.28143,-0.0271 0.58309,-0.0347 l 3.6e-4,-0.0114 q 0.006,-0.17613 -0.1363,-0.24695 -0.14178,-0.0727 -0.42208,-0.0815 -0.16855,-0.005 -0.36174,0.0493 -0.19313,0.0527 -0.27748,0.0823 l -0.0625,-0.002 0.0162,-0.51324 q 0.10884,-0.025 0.35245,-0.0552 0.24556,-0.0321 0.48987,-0.0244 0.58142,0.0183 0.83332,0.20635 0.25385,0.1862 0.24179,0.56876 l -0.0456,1.44692 -0.67611,-0.0213 z"
         style="font-weight:bold"
         id="path280" />
      <path
         d="m 126.51975,104.19206 0.12399,1.50316 -0.68359,0.0564 -0.0874,-1.05939 q -0.0128,-0.15485 -0.0292,-0.26186 -0.0166,-0.10891 -0.0562,-0.17409 -0.0396,-0.0652 -0.11196,-0.0896 -0.0706,-0.0265 -0.19526,-0.0162 -0.10009,0.008 -0.19108,0.0576 -0.0912,0.0474 -0.16295,0.099 l 0.124,1.50316 -0.67982,0.0561 -0.17493,-2.12067 0.67982,-0.0561 0.0193,0.23417 q 0.16425,-0.15234 0.31838,-0.24301 0.15412,-0.0907 0.34863,-0.10671 0.20961,-0.0173 0.37791,0.0639 0.16815,0.0793 0.27374,0.2531 0.18978,-0.18867 0.37429,-0.30276 0.18452,-0.11408 0.36958,-0.12935 0.34369,-0.0283 0.53817,0.16284 0.19638,0.19104 0.22831,0.57816 l 0.11388,1.38041 -0.6836,0.0564 -0.0874,-1.05938 q -0.0129,-0.15674 -0.0294,-0.26376 -0.0145,-0.10717 -0.0542,-0.17234 -0.0377,-0.0653 -0.11007,-0.0898 -0.0725,-0.0263 -0.19904,-0.0159 -0.085,0.007 -0.16369,0.0439 -0.0789,0.035 -0.19033,0.11267 z"
         style="font-weight:bold"
         id="path282" />
      <path
         d="m 130.52326,104.11312 -1.53043,0.30901 q 0.0644,0.24217 0.26149,0.33768 0.19898,0.0951 0.5333,0.0276 0.21173,-0.0427 0.39509,-0.15903 0.18336,-0.11627 0.28088,-0.22682 l 0.0743,-0.015 0.10838,0.53677 q -0.20822,0.13676 -0.40056,0.21812 -0.19234,0.0814 -0.43565,0.13049 -0.62777,0.12676 -1.01909,-0.088 -0.39133,-0.21481 -0.49671,-0.73672 -0.10425,-0.51633 0.15074,-0.88097 0.25647,-0.36688 0.8081,-0.47826 0.5089,-0.10275 0.81734,0.10366 0.30807,0.20456 0.40557,0.68746 z m -0.74405,-0.25764 q -0.048,-0.20875 -0.16776,-0.29474 -0.11981,-0.086 -0.32783,-0.044 -0.19317,0.039 -0.29736,0.16442 -0.10418,0.12542 -0.0744,0.34944 z"
         style="font-weight:bold"
         id="path284" />
      <path
         d="m 131.82947,104.7146 -0.65791,0.18015 -0.77867,-2.84363 0.65791,-0.18015 z"
         style="font-weight:bold"
         id="path286" />
    </g>
    <path
       style="fill:#636363;fill-opacity:1;stroke:none;stroke-width:0.264583px;stroke-linecap:butt;stroke-linejoin:miter;stroke-opacity:1"
       d="m 124.20838,68.23375 c 1.18172,1.541576 1.20079,3.295999 0.4326,4.93558 l 1.98603,-0.01967 c 0.44647,-1.66623 0.96377,-3.355013 -0.60957,-4.915916 z"
       id="path3637"
       sodipodi:nodetypes="ccccc" />
  </g>
</svg>
