<?xml version="1.0" encoding="UTF-8" standalone="no"?>
<!-- Created with Inkscape (http://www.inkscape.org/) -->

<svg
   width="21.90176mm"
   height="68.651924mm"
   viewBox="0 0 21.90176 68.651924"
   version="1.1"
   id="svg5"
   sodipodi:docname="ChocolateSirop.svg"
   inkscape:version="1.2.1 (9c6d41e410, 2022-07-14)"
   xmlns:inkscape="http://www.inkscape.org/namespaces/inkscape"
   xmlns:sodipodi="http://sodipodi.sourceforge.net/DTD/sodipodi-0.dtd"
   xmlns="http://www.w3.org/2000/svg"
   xmlns:svg="http://www.w3.org/2000/svg">
  <sodipodi:namedview
     id="namedview7"
     pagecolor="#ffffff"
     bordercolor="#666666"
     borderopacity="1.0"
     inkscape:showpageshadow="2"
     inkscape:pageopacity="0.0"
     inkscape:pagecheckerboard="0"
     inkscape:deskcolor="#d1d1d1"
     inkscape:document-units="mm"
     showgrid="false"
     inkscape:zoom="4.7572176"
     inkscape:cx="20.39007"
     inkscape:cy="151.45408"
     inkscape:window-width="1600"
     inkscape:window-height="838"
     inkscape:window-x="-6"
     inkscape:window-y="-6"
     inkscape:window-maximized="1"
     inkscape:current-layer="layer1" />
  <defs
     id="defs2">
    <inkscape:path-effect
       effect="lattice2"
       gridpoint0="110.19642,40.984578"
       gridpoint1="127.67743,40.984578"
       gridpoint2="108.72256,44.264998"
       gridpoint3="129.15129,44.264998"
       gridpoint4="113.82974,40.984578"
       gridpoint5="124.04411,40.984578"
       gridpoint6="113.82974,44.264998"
       gridpoint7="124.04411,44.264998"
       gridpoint8x9="118.93693,40.984578"
       gridpoint10x11="118.93693,44.264998"
       gridpoint12="109.75148,41.804683"
       gridpoint13="128.76197,41.804683"
       gridpoint14="109.8349,43.444893"
       gridpoint15="129.73527,43.444893"
       gridpoint16="113.82974,41.804683"
       gridpoint17="124.04411,41.804683"
       gridpoint18="113.82974,43.444893"
       gridpoint19="124.04411,43.444893"
       gridpoint20x21="118.93693,41.804683"
       gridpoint22x23="118.93693,43.444893"
       gridpoint24x26="109.77929,42.624788"
       gridpoint25x27="129.40157,42.624788"
       gridpoint28x30="113.82974,42.624788"
       gridpoint29x31="124.04411,42.624788"
       gridpoint32x33x34x35="118.93693,42.624788"
       id="path-effect613"
       is_visible="true"
       lpeversion="1"
       horizontal_mirror="false"
       vertical_mirror="false"
       perimetral="false"
       live_update="true" />
    <inkscape:path-effect
       effect="perspective-envelope"
       up_left_point="108.72256,40.984578"
       up_right_point="129.15129,40.984578"
       down_left_point="108.72256,44.264998"
       down_right_point="129.15129,44.264998"
       id="path-effect609"
       is_visible="true"
       lpeversion="1"
       deform_type="perspective"
       horizontal_mirror="false"
       vertical_mirror="false"
       overflow_perspective="false" />
  </defs>
  <g
     inkscape:label="Calque 1"
     inkscape:groupmode="layer"
     id="layer1"
     transform="translate(-14.102255,-18.955772)">
    <path
       id="rect111"
       style="opacity:0.999;fill:#4d2b15;stroke:#333333;stroke-width:0.665001;stop-color:#000000"
       transform="scale(-1,1)"
       d="m -31.813067,24.249119 h 13.570607 c 2.095213,0 3.781973,1.68676 3.781973,3.781972 v 54.28243 c 0,2.095213 -1.833926,3.01059 -3.781973,3.781972 -4.91259,1.945274 -9.278514,1.157215 -13.570607,0 -2.022975,-0.545426 -3.781972,-1.686759 -3.781972,-3.781972 v -54.28243 c 0,-2.095212 1.686759,-3.781972 3.781972,-3.781972 z"
       sodipodi:nodetypes="sssssssss" />
    <rect
       style="opacity:0.999;fill:#333333;stroke-width:0.665001;stop-color:#000000"
       id="rect113"
       width="10.067795"
       height="5.5844808"
       x="-30.429575"
       y="18.955772"
       ry="2.7922404"
       transform="scale(-1,1)" />
    <path
       id="rect746"
       style="opacity:0.999;fill:#6a3c1d;fill-opacity:1;stroke-width:0.665001;stop-color:#000000"
       d="m 27.019496,24.579581 h 3.775423 c 1.259735,1.677966 1.101165,3.159115 1.101165,5.151881 v 52.915763 c 0.02091,1.23853 -0.09421,1.867487 -0.491592,3.106017 l -4.011387,0.945493 c 0.777076,-1.164374 0.773243,-2.664667 0.727556,-3.829041 V 29.652807 c 0,-2.05324 -0.02622,-3.500133 -1.101165,-5.073226 z"
       sodipodi:nodetypes="ccccccccc" />
    <path
       id="rect440"
       style="opacity:0.999;fill:#aa4400;stroke:#333333;stroke-width:0.665001;stop-color:#000000"
       d="m 14.434755,44.675846 c 7.07892,1.486506 14.15784,2.053568 21.23676,0 v 14.629767 c -6.957229,2.068739 -13.984824,2.941275 -21.23676,0 z"
       sodipodi:nodetypes="ccccc" />
    <path
       id="rect440-7"
       style="opacity:0.999;fill:none;stroke:none;stroke-width:0.665001;stop-color:#000000"
       d="m 14.630353,54.642021 c 7.07892,2.336799 14.15784,2.679094 21.23676,0"
       sodipodi:nodetypes="cc" />
    <g
       aria-label="chocolate"
       transform="translate(-0.49742468,-1.6129001)"
       id="text617"
       style="font-size:3.88056px;line-height:1.25;-inkscape-font-specification:'sans-serif, Normal';text-align:center;letter-spacing:0px;word-spacing:0px;text-anchor:middle;stroke-width:0.264583">
      <path
         d="m 16.341092,55.227454 q -0.267462,-0.07776 -0.470923,-0.205974 -0.201643,-0.127687 -0.32678,-0.308115 -0.123318,-0.1799 -0.153757,-0.407781 -0.03044,-0.227881 0.04838,-0.498982 0.08305,-0.285657 0.237963,-0.46557 0.156735,-0.179384 0.367438,-0.266122 0.203128,-0.08105 0.437101,-0.07814 0.233974,0.0029 0.466866,0.07061 0.209239,0.06083 0.372504,0.157628 0.163264,0.0968 0.294941,0.214009 l -0.162394,0.558578 -0.09279,-0.02698 q -0.02869,-0.04386 -0.07058,-0.103395 -0.04007,-0.05901 -0.10614,-0.123601 -0.06296,-0.06172 -0.14471,-0.113108 -0.08122,-0.05321 -0.199485,-0.0876 -0.262004,-0.07617 -0.452588,0.04996 -0.188236,0.124841 -0.271284,0.410498 -0.08569,0.294754 0.01361,0.489378 0.101124,0.195153 0.366767,0.272383 0.123724,0.03597 0.22991,0.03724 0.108535,-1.8e-5 0.185144,-0.01918 0.07244,-0.01841 0.131385,-0.04468 0.05894,-0.02627 0.11008,-0.05285 l 0.09279,0.02698 -0.162393,0.558578 q -0.175814,0.02782 -0.357191,0.02047 -0.180087,-0.005 -0.383868,-0.06424 z"
         style="font-weight:bold"
         id="path333" />
      <path
         d="m 19.575279,55.952806 -0.669678,-0.14838 0.228309,-1.030416 q 0.02787,-0.125796 0.04239,-0.252611 0.01492,-0.128665 -0.0034,-0.194831 -0.02183,-0.07665 -0.08701,-0.12408 -0.06333,-0.04703 -0.190975,-0.07531 -0.09065,-0.02008 -0.191552,-0.01139 -0.09906,0.0091 -0.222548,0.04967 l -0.326273,1.472552 -0.665978,-0.147561 0.63779,-2.878505 0.665978,0.14756 -0.228309,1.030417 q 0.208336,-0.0994 0.387526,-0.137324 0.18104,-0.03752 0.380833,0.0068 0.336689,0.0746 0.481935,0.312503 0.147095,0.238312 0.06061,0.628649 z"
         style="font-weight:bold"
         id="path335" />
      <path
         d="m 22.496166,55.317881 q -0.07369,0.519661 -0.420179,0.776727 -0.344343,0.255456 -0.892145,0.177771 -0.547802,-0.07769 -0.809418,-0.419074 -0.259475,-0.342999 -0.18578,-0.862661 0.07423,-0.523413 0.420446,-0.778603 0.348095,-0.254924 0.892144,-0.177771 0.551554,0.07822 0.809153,0.42095 0.259474,0.342999 0.185779,0.862661 z m -0.903713,0.394299 q 0.0771,-0.07136 0.124956,-0.179397 0.05,-0.10965 0.07846,-0.310385 0.02634,-0.185728 0.01039,-0.316211 -0.01594,-0.130483 -0.06534,-0.214038 -0.04912,-0.08543 -0.129024,-0.129295 -0.0799,-0.04387 -0.177452,-0.0577 -0.09755,-0.01384 -0.178196,0.0015 -0.07877,0.01562 -0.159353,0.08457 -0.07229,0.06439 -0.127897,0.186636 -0.05374,0.122515 -0.08114,0.315747 -0.02448,0.172595 -0.01067,0.304688 0.01407,0.130217 0.06507,0.215914 0.04966,0.08168 0.127414,0.127153 0.07963,0.04574 0.186566,0.06091 0.09193,0.01304 0.178728,-0.0053 0.08894,-0.01992 0.157478,-0.08484 z"
         style="font-weight:bold"
         id="path337" />
      <path
         d="m 23.937809,56.536929 q -0.277961,-0.01788 -0.504394,-0.0989 -0.224541,-0.0809 -0.385842,-0.229883 -0.15941,-0.148861 -0.238563,-0.36471 -0.07915,-0.21585 -0.06103,-0.497594 0.0191,-0.29687 0.13129,-0.506107 0.114084,-0.209116 0.300951,-0.339499 0.180708,-0.123185 0.409739,-0.17111 0.22903,-0.04792 0.471065,-0.03235 0.217453,0.01399 0.397829,0.07306 0.180376,0.05907 0.334346,0.144925 l -0.03734,0.580505 -0.09644,-0.0062 q -0.03752,-0.03659 -0.09133,-0.08562 -0.05192,-0.04891 -0.130428,-0.09763 -0.07485,-0.04659 -0.165801,-0.07902 -0.09083,-0.03432 -0.213738,-0.04223 -0.272289,-0.01752 -0.43097,0.146959 -0.156668,0.162705 -0.175764,0.459576 -0.01971,0.306325 0.119458,0.47477 0.141054,0.168566 0.417125,0.186325 0.128581,0.0083 0.232514,-0.01352 0.105945,-0.02356 0.176572,-0.05889 0.06672,-0.03368 0.118562,-0.07212 0.05184,-0.03844 0.09599,-0.07547 l 0.09644,0.0062 -0.03734,0.580505 q -0.165592,0.0653 -0.344243,0.09748 -0.176881,0.03419 -0.388662,0.02057 z"
         style="font-weight:bold"
         id="path339" />
      <path
         d="m 27.27172,55.437389 q 0.0092,0.52478 -0.292359,0.833296 -0.299722,0.306589 -0.85292,0.316312 -0.553197,0.0097 -0.865403,-0.28611 -0.310344,-0.297761 -0.319568,-0.822541 -0.0093,-0.528569 0.292326,-0.83519 0.303511,-0.306655 0.85292,-0.316312 0.556986,-0.0098 0.865436,0.288004 0.310344,0.297761 0.319568,0.822541 z m -0.830178,0.531953 q 0.06488,-0.08263 0.09508,-0.196866 0.03207,-0.116165 0.02851,-0.318878 -0.0033,-0.187556 -0.03963,-0.313889 -0.03633,-0.126333 -0.09829,-0.201048 -0.06199,-0.07661 -0.147809,-0.107318 -0.08582,-0.03071 -0.184333,-0.02898 -0.09851,0.0017 -0.175724,0.02962 -0.07531,0.02786 -0.144013,0.108657 -0.06122,0.07498 -0.09685,0.204478 -0.03373,0.129459 -0.0303,0.324594 0.0031,0.174295 0.03753,0.302556 0.03444,0.126366 0.09832,0.202942 0.06192,0.07282 0.145881,0.105457 0.08585,0.0326 0.19384,0.0307 0.09283,-0.0016 0.175656,-0.03341 0.08469,-0.0337 0.142119,-0.108623 z"
         style="font-weight:bold"
         id="path341" />
      <path
         d="m 28.457185,56.388521 -0.679604,0.05865 -0.253483,-2.937399 0.679604,-0.05865 z"
         style="font-weight:bold"
         id="path343" />
      <path
         d="m 30.287243,55.585695 -0.06833,-0.438088 q -0.134917,0.03255 -0.290839,0.07796 -0.156215,0.04354 -0.234502,0.0826 -0.09613,0.0476 -0.14079,0.117844 -0.04308,0.06809 -0.0276,0.167311 0.01022,0.06553 0.02788,0.104962 0.01766,0.03944 0.06843,0.06987 0.0489,0.03073 0.111729,0.04011 0.06254,0.0075 0.189845,-0.01235 0.101097,-0.01577 0.197643,-0.07302 0.09842,-0.05754 0.166536,-0.137202 z m 0.05081,0.325757 q -0.04787,0.04966 -0.11932,0.12025 -0.07145,0.07059 -0.137337,0.115388 -0.09222,0.06041 -0.195719,0.09765 -0.103209,0.03911 -0.230517,0.05897 -0.299547,0.04672 -0.53065,-0.107089 -0.231102,-0.153808 -0.276071,-0.442122 -0.03592,-0.230277 0.04428,-0.392367 0.08019,-0.162089 0.256142,-0.275829 0.174077,-0.113448 0.44561,-0.192235 0.271533,-0.07879 0.56658,-0.142066 l -0.0018,-0.01123 q -0.02716,-0.174111 -0.179661,-0.217445 -0.152797,-0.04521 -0.429878,-0.002 -0.166623,0.02599 -0.346368,0.11539 -0.180037,0.08753 -0.257449,0.132204 l -0.06178,0.0096 -0.07913,-0.507358 q 0.102334,-0.04473 0.336132,-0.119547 0.235377,-0.07698 0.476887,-0.114652 0.574756,-0.08964 0.857112,0.0485 0.283935,0.13598 0.34292,0.514158 l 0.223089,1.430338 -0.668364,0.104245 z"
         style="font-weight:bold"
         id="path345" />
      <path
         d="m 32.973882,55.563274 q -0.100463,0.05285 -0.216876,0.09582 -0.115979,0.04482 -0.289352,0.08563 -0.387324,0.09117 -0.614199,-0.02089 -0.225031,-0.112492 -0.314463,-0.492438 l -0.227922,-0.96831 -0.272971,0.06425 -0.10593,-0.450034 0.272972,-0.06425 -0.139358,-0.592052 0.663983,-0.15629 0.139358,0.592052 0.621563,-0.146304 0.10593,0.450034 -0.621563,0.146304 0.172786,0.734071 q 0.02561,0.10882 0.04656,0.189539 0.02095,0.08072 0.06381,0.138761 0.04102,0.05848 0.114688,0.08201 0.07508,0.02126 0.2005,-0.0083 0.05164,-0.01216 0.129431,-0.05383 0.07963,-0.0421 0.108491,-0.06836 l 0.05533,-0.01302 z"
         style="font-weight:bold"
         id="path347" />
      <path
         d="m 35.088963,53.953343 -1.488809,0.470283 q 0.08979,0.233932 0.295969,0.307902 0.207984,0.0734 0.533209,-0.02933 0.205976,-0.06506 0.375904,-0.200211 0.169929,-0.135147 0.255126,-0.255452 l 0.07227,-0.02283 0.164942,0.522167 q -0.192465,0.158163 -0.375044,0.259552 -0.182579,0.101389 -0.41927,0.176155 -0.610701,0.192907 -1.022677,0.021 -0.411977,-0.171903 -0.572352,-0.679615 -0.158664,-0.502292 0.05603,-0.892019 0.215934,-0.392105 0.752556,-0.561612 0.495065,-0.156381 0.823736,0.016 0.3281,0.170578 0.47649,0.640348 z m -0.767262,-0.176914 q -0.06991,-0.202457 -0.198205,-0.275197 -0.128293,-0.07274 -0.330655,-0.0088 -0.187908,0.05936 -0.278144,0.195163 -0.09024,0.135807 -0.03677,0.355382 z"
         style="font-weight:bold"
         id="path349" />
    </g>
    <path
       style="fill:#636363;fill-opacity:1;stroke:none;stroke-width:0.264583px;stroke-linecap:butt;stroke-linejoin:miter;stroke-opacity:1"
       d="m 25.584052,19.604674 c 1.18172,1.541576 1.200787,3.295999 0.432598,4.93558 l 1.986032,-0.01967 c 0.446465,-1.66623 0.963765,-3.355013 -0.609573,-4.915916 z"
       id="path3459"
       sodipodi:nodetypes="ccccc" />
  </g>
</svg>
