<?xml version="1.0" encoding="UTF-8" standalone="no"?>
<svg
   xmlns:dc="http://purl.org/dc/elements/1.1/"
   xmlns:cc="http://creativecommons.org/ns#"
   xmlns:rdf="http://www.w3.org/1999/02/22-rdf-syntax-ns#"
   xmlns:svg="http://www.w3.org/2000/svg"
   xmlns="http://www.w3.org/2000/svg"
   xmlns:sodipodi="http://sodipodi.sourceforge.net/DTD/sodipodi-0.dtd"
   xmlns:inkscape="http://www.inkscape.org/namespaces/inkscape"
   width="93.973473mm"
   height="26.750076mm"
   viewBox="0 0 93.973473 26.750076"
   version="1.1"
   id="svg3846"
   inkscape:version="1.0.1 (3bc2e813f5, 2020-09-07)"
   sodipodi:docname="CoffeeContainer.svg">
  <defs
     id="defs3840">
    <filter
       inkscape:collect="always"
       style="color-interpolation-filters:sRGB"
       id="filter851"
       x="-2.650102e-06"
       width="1.0000052"
       y="-2.5430601e-05"
       height="1.0000509">
      <feGaussianBlur
         inkscape:collect="always"
         stdDeviation="3.2138452e-05"
         id="feGaussianBlur853" />
    </filter>
  </defs>
  <sodipodi:namedview
     id="base"
     pagecolor="#ffffff"
     bordercolor="#666666"
     borderopacity="1.0"
     inkscape:pageopacity="0.0"
     inkscape:pageshadow="2"
     inkscape:zoom="0.46281382"
     inkscape:cx="467.43519"
     inkscape:cy="-220.7049"
     inkscape:document-units="mm"
     inkscape:current-layer="g3818"
     inkscape:document-rotation="0"
     showgrid="false"
     fit-margin-top="0"
     fit-margin-left="0"
     fit-margin-right="0"
     fit-margin-bottom="0"
     inkscape:window-width="1600"
     inkscape:window-height="838"
     inkscape:window-x="-6"
     inkscape:window-y="-6"
     inkscape:window-maximized="1" />
  <metadata
     id="metadata3843">
    <rdf:RDF>
      <cc:Work
         rdf:about="">
        <dc:format>image/svg+xml</dc:format>
        <dc:type
           rdf:resource="http://purl.org/dc/dcmitype/StillImage" />
        <dc:title></dc:title>
      </cc:Work>
    </rdf:RDF>
  </metadata>
  <g
     inkscape:label="Calque 1"
     inkscape:groupmode="layer"
     id="layer1"
     transform="translate(-19.464294,-61.982788)">
    <g
       id="g3818"
       transform="translate(7.5128628,-26.779022)">
      <path
         id="path842"
         style="opacity:0.999;fill:#6d6d6d;fill-opacity:1;stroke-width:0.665001;stop-color:#000000"
         d="m 98.710675,115.51178 h -3.621579 c -7.283677,-3.01065 -14.703072,-3.64624 -22.367143,0 h -3.11668 c 2e-6,-4.01862 6.515468,-7.27635 14.552703,-7.27635 8.037233,0 14.552699,3.25773 14.552699,7.27635 z"
         sodipodi:nodetypes="ccccsc" />
      <g
         id="g3021"
         transform="translate(56.678822,-121.95718)"
         style="fill:#4d4d4d">
        <g
           id="g3009"
           transform="rotate(-90,179.45365,236.21583)"
           style="fill:#4d4d4d">
          <g
             id="g3007"
             style="fill:#4d4d4d">
            <g
               id="g3003"
               transform="translate(-1.0399719)"
               style="fill:#4d4d4d" />
            <path
               id="path3005"
               style="opacity:0.999;fill:#6b4747;fill-opacity:1;stroke:none;stroke-width:0.765;stroke-opacity:1;stop-color:#000000"
               d="m 195.00009,13.819992 c 0,-2.355714 9.9504,-2.404701 9.9504,0 v 38.31593 c -1.14234,0.83358 0,0.644765 0,1.485649 -4.52522,1.462825 -7.1036,0.568943 -9.9504,0 0,-1.011256 1.32947,-0.847873 0,-1.796598 z"
               sodipodi:nodetypes="ccccccc" />
          </g>
        </g>
      </g>
      <g
         id="g3084"
         style="fill:#6d6d6d;fill-opacity:1"
         transform="translate(10.553987)">
        <rect
           style="opacity:0.999;fill:#6d6d6d;fill-opacity:1;stroke:none;stroke-width:0.765;stroke-opacity:1;stop-color:#000000"
           id="rect2999"
           width="5.2769928"
           height="12.324968"
           x="198.47359"
           y="53.649437"
           transform="rotate(-90,142.05746,152.6948)" />
        <rect
           style="opacity:0.999;fill:#6d6d6d;fill-opacity:1;stroke:none;stroke-width:0.765;stroke-opacity:1;stop-color:#000000"
           id="rect3001"
           width="2.8330986"
           height="10.019495"
           x="197.07309"
           y="55.97097"
           ry="2"
           transform="rotate(-90,142.05746,152.6948)" />
        <path
           id="rect3011"
           style="opacity:0.999;fill:#6d6d6d;fill-opacity:1;stroke:none;stroke-width:0.765;stroke-opacity:1;stop-color:#000000"
           d="M 7.5176578,212.91969 H 47.779167 c 0,0 3.300566,12.94818 0,14.85376 -9.714754,5.60882 -30.461242,5.65819 -40.2615092,0 -4.0622338,-2.34533 0,-14.85376 0,-14.85376 z"
           sodipodi:nodetypes="ccssc"
           transform="translate(46.124834,-121.95718)" />
      </g>
      <path
         id="rect3086"
         style="opacity:0.999;fill:#b2b2b2;fill-opacity:1;stroke:none;stroke-width:0.765;stroke-miterlimit:4;stroke-dasharray:none;stroke-opacity:1;stop-color:#000000"
         d="m 85.702285,91.055154 h 13.192484 v 6.618087 c 2.015471,3.690959 1.274681,6.221779 0.487877,10.422239 -3.79463,0.81926 -7.564829,1.73369 -12.019083,1.81745 1.072882,-4.36492 0.391875,-7.87476 -1.661278,-12.239689 z"
         sodipodi:nodetypes="ccccccc" />
      <path
         id="path845"
         style="opacity:0.999;fill:#7f7f7f;fill-opacity:1;stroke-width:0.429344;filter:url(#filter851);stop-color:#000000"
         d="m 96.184164,115.51178 h -1.095068 c -8.951174,-3.78146 -14.703072,-1.51989 -22.367143,0 h -2.055545 c 2e-6,-1.67511 2.877292,-4.14347 10.914527,-4.14347 8.037233,0 14.603229,2.46836 14.603229,4.14347 z"
         sodipodi:nodetypes="ccccsc" />
    </g>
  </g>
</svg>
