<?xml version="1.0" encoding="UTF-8" standalone="no"?>
<!-- Created with Inkscape (http://www.inkscape.org/) -->

<svg
   width="88.762894mm"
   height="72.011497mm"
   viewBox="0 0 88.762894 72.011497"
   version="1.1"
   id="svg5"
   xml:space="preserve"
   inkscape:version="1.2.1 (9c6d41e410, 2022-07-14)"
   sodipodi:docname="Hand.svg"
   xmlns:inkscape="http://www.inkscape.org/namespaces/inkscape"
   xmlns:sodipodi="http://sodipodi.sourceforge.net/DTD/sodipodi-0.dtd"
   xmlns="http://www.w3.org/2000/svg"
   xmlns:svg="http://www.w3.org/2000/svg"><sodipodi:namedview
     id="namedview7"
     pagecolor="#ffffff"
     bordercolor="#666666"
     borderopacity="1.0"
     inkscape:showpageshadow="2"
     inkscape:pageopacity="0.0"
     inkscape:pagecheckerboard="0"
     inkscape:deskcolor="#d1d1d1"
     inkscape:document-units="mm"
     showgrid="false"
     inkscape:zoom="0.84096521"
     inkscape:cx="472.07661"
     inkscape:cy="238.41652"
     inkscape:window-width="1600"
     inkscape:window-height="838"
     inkscape:window-x="-6"
     inkscape:window-y="-6"
     inkscape:window-maximized="1"
     inkscape:current-layer="layer1" /><defs
     id="defs2" /><g
     inkscape:label="Calque 1"
     inkscape:groupmode="layer"
     id="layer1"
     transform="translate(-61.722532,-92.982275)"><g
       id="g452"
       style="stroke:#c87137"><path
         style="fill:#e9c6af;stroke:#c87137;stroke-width:0.264583px;stroke-linecap:butt;stroke-linejoin:miter;stroke-opacity:1"
         d="m 66.541842,161.71398 c 6.486761,-6.75903 18.066671,-14.01095 19.460282,-20.27709 0.318021,-7.16349 -5.135706,-18.2005 -4.515896,-20.93795 -0.03829,-3.82182 6.667954,-16.56407 7.523037,-17.21978 2.920105,-2.89204 4.498266,-3.25722 5.815255,-4.670661 1.186368,-2.771224 2.579062,-4.65819 4.284023,-5.206873 l 0.559591,-0.274509 c 3.777946,1.532819 3.079526,6.266215 2.240496,10.640603 -2.636981,3.61358 -6.407381,4.42695 -6.73649,13.74234 0.04314,2.42439 4.511609,2.74147 7.37446,3.82314 1.17892,-0.5981 2.27433,-1.40498 3.15795,-2.74134 l 4.8437,-7.03882 5.01693,-6.82041 c 2.0504,-2.56385 3.66914,-6.152914 6.82147,-6.099687 1.76003,0.261319 2.83848,1.099354 2.67426,2.988877 -0.28063,2.88304 -2.57759,5.00996 -3.91903,7.4952 l -6.93531,11.38192 2.20233,2.35964 5.209,-5.81975 5.48694,-7.58596 c 0.88369,-1.86498 1.26526,-3.64628 2.94853,-5.64453 1.31346,-3.6604 6.00514,-0.85872 5.74901,1.60008 -2.59358,8.2623 -6.30356,14.27394 -11.99995,20.91096 l 0.47193,0.47193 6.91391,-6.50152 c 1.36525,-3.04213 2.94145,-5.45141 4.75162,-7.1588 -0.17337,-3.6408 1.23724,-6.5424 3.27886,-9.14953 1.42453,-1.99966 5.82204,0.90973 5.51537,3.48153 -3.02151,6.15651 -2.09785,11.25431 -9.4481,20.11487 1.73749,-2.31665 4.78308,-4.56286 5.7301,-5.92533 1.64643,-2.3687 1.43561,-6.25283 4.65231,-7.91789 2.01491,-1.40921 4.76589,1.13925 4.68275,2.37872 -3.74843,7.24062 -5.07399,13.4546 -17.06411,24.18747 -1.29304,1.09385 -9.13332,13.39853 -11.5471,14.96183 -4.34996,1.2613 -6.79931,6.60861 -9.89304,9.4402 l -49.709749,0.15731 z"
         id="path299"
         sodipodi:nodetypes="cccccccccccccccccccccccccccccsccccccc" /><path
         style="fill:none;stroke:#c87137;stroke-width:0.264583px;stroke-linecap:butt;stroke-linejoin:miter;stroke-opacity:1"
         d="m 99.999804,122.35794 c 4.339006,3.02996 8.555736,6.22804 10.567276,12.45826 0.8027,5.78357 -5.02011,5.29034 -9.56617,6.00666"
         id="path397"
         sodipodi:nodetypes="ccc" /><path
         style="fill:none;stroke:#c87137;stroke-width:0.264583px;stroke-linecap:butt;stroke-linejoin:miter;stroke-opacity:1"
         d="m 114.79399,126.02867 c 2.54317,10.08526 12.09826,8.93051 14.57172,18.24246"
         id="path399"
         sodipodi:nodetypes="cc" /><path
         style="fill:none;stroke:#c87137;stroke-width:0.264583px;stroke-linecap:butt;stroke-linejoin:miter;stroke-opacity:1"
         d="m 116.09428,105.55455 c 1.29312,1.24467 2.49873,2.59872 4.6013,2.83157"
         id="path401"
         sodipodi:nodetypes="cc" /><path
         style="fill:none;stroke:#c87137;stroke-width:0.264583px;stroke-linecap:butt;stroke-linejoin:miter;stroke-opacity:1"
         d="m 112.08289,111.02105 c -0.0794,0.63099 4.14475,3.04875 4.32601,2.59561"
         id="path403"
         sodipodi:nodetypes="cc" /><path
         style="fill:none;stroke:#c87137;stroke-width:0.264583px;stroke-linecap:butt;stroke-linejoin:miter;stroke-opacity:1"
         d="m 108.46478,117.2741 c 1.53244,0.3525 3.08302,0.90451 4.71927,2.39897"
         id="path405"
         sodipodi:nodetypes="cc" /><path
         style="fill:none;stroke:#c87137;stroke-width:0.264583px;stroke-linecap:butt;stroke-linejoin:miter;stroke-opacity:1"
         d="m 118.17863,123.09454 c 1.59931,0.58921 3.19862,1.39856 4.79793,3.02821"
         id="path407"
         sodipodi:nodetypes="cc" /><path
         style="fill:none;stroke:#c87137;stroke-width:0.264583px;stroke-linecap:butt;stroke-linejoin:miter;stroke-opacity:1"
         d="m 122.89791,117.07746 c 1.05606,1.32607 2.48436,2.23853 4.48331,2.51695"
         id="path409"
         sodipodi:nodetypes="cc" /><path
         style="fill:none;stroke:#c87137;stroke-width:0.264583px;stroke-linecap:butt;stroke-linejoin:miter;stroke-opacity:1"
         d="m 127.61719,110.11652 c 0.86227,1.33134 2.06117,2.0375 3.65744,2.0057"
         id="path411"
         sodipodi:nodetypes="cc" /><path
         style="fill:none;stroke:#c87137;stroke-width:0.264583px;stroke-linecap:butt;stroke-linejoin:miter;stroke-opacity:1"
         d="m 135.87593,113.1054 c 0.89069,1.19543 2.39495,1.86494 4.01138,2.4383"
         id="path413"
         sodipodi:nodetypes="cc" /><path
         style="fill:none;stroke:#c87137;stroke-width:0.264583px;stroke-linecap:butt;stroke-linejoin:miter;stroke-opacity:1"
         d="m 131.82521,120.10567 c 0.62177,1.24588 2.05593,2.02755 3.38215,2.87089"
         id="path415"
         sodipodi:nodetypes="cc" /><path
         style="fill:none;stroke:#c87137;stroke-width:0.264583px;stroke-linecap:butt;stroke-linejoin:miter;stroke-opacity:1"
         d="m 141.10646,122.58329 c 0.53588,1.15317 1.06775,2.30802 2.83157,2.94955"
         id="path417"
         sodipodi:nodetypes="cc" /><path
         style="fill:none;stroke:#c87137;stroke-width:0.264583px;stroke-linecap:butt;stroke-linejoin:miter;stroke-opacity:1"
         d="m 136.22987,127.73517 c -0.15619,0.52064 2.12257,4.53947 2.4383,4.1687"
         id="path419"
         sodipodi:nodetypes="cc" /><path
         style="fill:none;stroke:#c87137;stroke-width:0.264583px;stroke-linecap:butt;stroke-linejoin:miter;stroke-opacity:1"
         d="m 125.02158,127.3419 c 1.55566,0.65964 3.13035,1.24316 4.48332,2.71358"
         id="path421"
         sodipodi:nodetypes="cc" /><path
         style="fill:none;stroke:#c87137;stroke-width:0.264583px;stroke-linecap:butt;stroke-linejoin:miter;stroke-opacity:1"
         d="m 130.21279,132.13983 c 1.36911,1.75309 2.2555,4.35093 3.22484,6.80363"
         id="path423"
         sodipodi:nodetypes="cc" /><path
         style="fill:none;stroke:#c87137;stroke-width:0.264583px;stroke-linecap:butt;stroke-linejoin:miter;stroke-opacity:1"
         d="m 130.48808,138.35355 c 0.70176,0.82085 1.23153,1.6847 1.10117,2.71358"
         id="path425"
         sodipodi:nodetypes="cc" /><path
         style="fill:none;stroke:#c87137;stroke-width:0.264583px;stroke-linecap:butt;stroke-linejoin:miter;stroke-opacity:1"
         d="m 94.385592,105.43657 c 1.243055,1.0627 3.106072,1.89292 2.79224,3.53946"
         id="path427"
         sodipodi:nodetypes="cc" /><path
         style="fill:none;stroke:#c87137;stroke-width:0.264583px;stroke-linecap:butt;stroke-linejoin:miter;stroke-opacity:1"
         d="m 91.082097,110.35249 c 1.711472,0.24993 3.54441,0.20835 4.758605,1.65175"
         id="path429"
         sodipodi:nodetypes="cc" /><path
         style="fill:none;stroke:#c87137;stroke-width:0.264583px;stroke-linecap:butt;stroke-linejoin:miter;stroke-opacity:1"
         d="m 94.385592,116.44822 c 0,-0.67551 -5.702461,2.68268 -5.820444,2.91023"
         id="path431"
         sodipodi:nodetypes="cc" /></g></g></svg>
