<?xml version="1.0" encoding="UTF-8" standalone="no"?>
<!-- Created with Inkscape (http://www.inkscape.org/) -->

<svg
   width="21.919889mm"
   height="68.337006mm"
   viewBox="0 0 21.919889 68.337006"
   version="1.1"
   id="svg6834"
   inkscape:version="1.2.1 (9c6d41e410, 2022-07-14)"
   sodipodi:docname="NutsSirop.svg"
   xmlns:inkscape="http://www.inkscape.org/namespaces/inkscape"
   xmlns:sodipodi="http://sodipodi.sourceforge.net/DTD/sodipodi-0.dtd"
   xmlns="http://www.w3.org/2000/svg"
   xmlns:svg="http://www.w3.org/2000/svg">
  <sodipodi:namedview
     id="namedview6836"
     pagecolor="#ffffff"
     bordercolor="#666666"
     borderopacity="1.0"
     inkscape:showpageshadow="2"
     inkscape:pageopacity="0.0"
     inkscape:pagecheckerboard="0"
     inkscape:deskcolor="#d1d1d1"
     inkscape:document-units="mm"
     showgrid="false"
     inkscape:zoom="1.1893044"
     inkscape:cx="30.269795"
     inkscape:cy="154.29187"
     inkscape:window-width="1600"
     inkscape:window-height="838"
     inkscape:window-x="-6"
     inkscape:window-y="-6"
     inkscape:window-maximized="1"
     inkscape:current-layer="layer1" />
  <defs
     id="defs6831" />
  <g
     inkscape:label="Calque 1"
     inkscape:groupmode="layer"
     id="layer1"
     transform="translate(-118.19814,-126.73315)">
    <path
       id="rect440-7"
       style="opacity:0.999;fill:none;stroke:#000000;stroke-width:0.665001;stop-color:#000000"
       d="m 118.30237,162.4194 c 7.07892,2.3368 14.15784,2.67909 21.23676,0"
       sodipodi:nodetypes="cc" />
    <path
       id="rect3599"
       style="opacity:0.999;fill:#bd8034;stroke:#333333;stroke-width:0.665001;stop-color:#000000"
       d="m 135.92709,132.0265 h -13.57061 c -2.09521,0 -3.78197,1.68676 -3.78197,3.78197 v 54.28243 c 0,2.09521 1.75385,3.25602 3.78197,3.78197 4.74738,1.23113 9.24232,1.07384 13.57061,0 2.03356,-0.50452 3.78197,-1.68676 3.78197,-3.78197 v -54.28243 c 0,-2.09521 -1.68676,-3.78197 -3.78197,-3.78197 z"
       sodipodi:nodetypes="sssssssss" />
    <rect
       style="opacity:0.999;fill:#333333;stroke-width:0.665001;stop-color:#000000"
       id="rect3601"
       width="10.067795"
       height="5.5844808"
       x="-134.54359"
       y="126.73315"
       ry="2.7922404"
       transform="scale(-1,1)" />
    <path
       id="path3605"
       style="opacity:0.999;fill:#d38f3b;fill-opacity:1;stroke-width:0.665001;stop-color:#000000"
       d="m 131.13352,132.35696 h 3.77542 c 1.25973,1.67797 1.10116,3.15912 1.10116,5.15188 v 52.91576 c 0.0209,1.23853 -0.0942,1.86749 -0.49159,3.10602 l -3.95577,0.63319 c 0.77708,-1.16437 0.71763,-2.35236 0.67194,-3.51674 v -53.21688 c 0,-2.05324 -0.0262,-3.50014 -1.10116,-5.07323 z"
       sodipodi:nodetypes="ccccccccc" />
    <path
       id="path3607"
       style="opacity:0.999;fill:#eb9f41;fill-opacity:1;stroke:#333333;stroke-width:0.665001;stop-color:#000000"
       d="m 118.54878,152.45323 c 7.07892,1.4865 14.15783,2.05356 21.23675,0 v 14.62976 c -6.95722,2.06874 -13.98482,2.94128 -21.23675,0 z"
       sodipodi:nodetypes="ccccc" />
    <g
       aria-label="nuts"
       transform="translate(0.17493779,-1.6129)"
       id="text3611"
       style="font-size:3.88056px;line-height:1.25;-inkscape-font-specification:'sans-serif, Normal';text-align:center;letter-spacing:0px;word-spacing:0px;text-anchor:middle;stroke-width:0.264583">
      <path
         d="m 126.59293,164.2008 -0.68092,-0.0827 0.12721,-1.04771 q 0.0155,-0.12791 0.0177,-0.25553 0.002,-0.12951 -0.0223,-0.19358 -0.0292,-0.0742 -0.0986,-0.11505 -0.0676,-0.0407 -0.19739,-0.0564 -0.0922,-0.0112 -0.19175,0.007 -0.0977,0.0187 -0.21668,0.071 l -0.18178,1.49727 -0.67716,-0.0822 0.25647,-2.11236 0.67715,0.0822 -0.0283,0.23324 q 0.19771,-0.11915 0.37237,-0.17429 0.17654,-0.0549 0.37969,-0.0303 0.34234,0.0416 0.50999,0.26424 0.16954,0.22291 0.12135,0.6198 z"
         style="font-weight:bold"
         id="path374" />
      <path
         d="m 129.33839,164.32086 -0.68175,-0.0226 0.008,-0.23483 q -0.19415,0.13765 -0.35384,0.2082 -0.15963,0.0686 -0.37741,0.0614 -0.35224,-0.0117 -0.5368,-0.22064 -0.18266,-0.20891 -0.16955,-0.60471 l 0.0459,-1.38434 0.68555,0.0227 -0.035,1.05483 q -0.005,0.16097 5.6e-4,0.26923 0.008,0.10643 0.0434,0.17775 0.0337,0.0713 0.10456,0.10584 0.0728,0.0346 0.20346,0.039 0.0871,0.003 0.19423,-0.0258 0.10712,-0.0287 0.20767,-0.0879 l 0.0499,-1.50744 0.68176,0.0226 z"
         style="font-weight:bold"
         id="path376" />
      <path
         d="m 131.34151,164.22231 q -0.10858,0.0331 -0.23097,0.0536 -0.12232,0.0223 -0.30027,0.03 -0.39754,0.0171 -0.59944,-0.13543 -0.20001,-0.15261 -0.21678,-0.54258 l -0.0427,-0.99385 -0.28018,0.012 -0.0199,-0.46191 0.28018,-0.0121 -0.0261,-0.60767 0.6815,-0.0293 0.0261,0.60767 0.63796,-0.0274 0.0199,0.46191 -0.63796,0.0274 0.0324,0.75343 q 0.005,0.11169 0.0103,0.19491 0.005,0.0832 0.0367,0.14825 0.0293,0.0651 0.0973,0.10202 0.0698,0.0349 0.1985,0.0294 0.053,-0.002 0.13722,-0.0286 0.0861,-0.0265 0.11936,-0.0469 l 0.0568,-0.002 z"
         style="font-weight:bold"
         id="path378" />
      <path
         d="m 133.51,163.33092 q 0.0374,0.32757 -0.23332,0.56252 -0.27092,0.23306 -0.7811,0.29127 -0.28239,0.0322 -0.51808,0.006 -0.23569,-0.0265 -0.38231,-0.0746 l -0.0636,-0.55725 0.0621,-0.007 q 0.0549,0.03 0.12574,0.0658 0.0725,0.0337 0.20045,0.0687 0.11037,0.0313 0.24768,0.048 0.1371,0.0149 0.28959,-0.003 0.19956,-0.0228 0.29063,-0.077 0.0909,-0.0561 0.081,-0.14273 -0.009,-0.0772 -0.0692,-0.10463 -0.0606,-0.0293 -0.22235,-0.0433 -0.0772,-0.008 -0.20929,-0.0123 -0.13037,-0.006 -0.23902,-0.0223 -0.29663,-0.0424 -0.45398,-0.18468 -0.15757,-0.14412 -0.18464,-0.38133 -0.0348,-0.30498 0.23026,-0.53928 0.26672,-0.2364 0.76749,-0.29353 0.2372,-0.0271 0.45929,-0.003 0.22375,0.0221 0.35234,0.0628 l 0.061,0.53465 -0.0584,0.007 q -0.16243,-0.0864 -0.36364,-0.12824 -0.19954,-0.044 -0.39721,-0.0214 -0.16378,0.0187 -0.27158,0.0768 -0.10592,0.0579 -0.0965,0.14069 0.009,0.0753 0.0639,0.10904 0.0553,0.0337 0.24811,0.0518 0.10591,0.009 0.22687,0.0161 0.12264,0.005 0.24656,0.0214 0.27527,0.0392 0.42047,0.17516 0.14499,0.13411 0.17055,0.35814 z"
         style="font-weight:bold"
         id="path380" />
    </g>
    <path
       style="fill:#636363;fill-opacity:1;stroke:none;stroke-width:0.264583px;stroke-linecap:butt;stroke-linejoin:miter;stroke-opacity:1"
       d="m 129.69807,127.38205 c 1.18172,1.54158 1.20079,3.296 0.4326,4.93558 l 1.98603,-0.0197 c 0.44647,-1.66623 0.96377,-3.35501 -0.60957,-4.91591 z"
       id="path3617"
       sodipodi:nodetypes="ccccc" />
  </g>
</svg>
