<?xml version="1.0" encoding="UTF-8" standalone="no"?>
<svg
   xmlns:dc="http://purl.org/dc/elements/1.1/"
   xmlns:cc="http://creativecommons.org/ns#"
   xmlns:rdf="http://www.w3.org/1999/02/22-rdf-syntax-ns#"
   xmlns:svg="http://www.w3.org/2000/svg"
   xmlns="http://www.w3.org/2000/svg"
   xmlns:sodipodi="http://sodipodi.sourceforge.net/DTD/sodipodi-0.dtd"
   xmlns:inkscape="http://www.inkscape.org/namespaces/inkscape"
   width="64.534882mm"
   height="55.992332mm"
   viewBox="0 0 64.534882 55.992332"
   version="1.1"
   id="svg2166"
   inkscape:version="1.0.1 (3bc2e813f5, 2020-09-07)"
   sodipodi:docname="teapot.svg">
  <defs
     id="defs2160" />
  <sodipodi:namedview
     id="base"
     pagecolor="#ffffff"
     bordercolor="#666666"
     borderopacity="1.0"
     inkscape:pageopacity="0.0"
     inkscape:pageshadow="2"
     inkscape:zoom="0.47862423"
     inkscape:cx="-80.129189"
     inkscape:cy="-12.053377"
     inkscape:document-units="mm"
     inkscape:current-layer="layer1"
     inkscape:document-rotation="0"
     showgrid="false"
     fit-margin-top="0"
     fit-margin-left="0"
     fit-margin-right="0"
     fit-margin-bottom="0"
     inkscape:window-width="1600"
     inkscape:window-height="838"
     inkscape:window-x="-6"
     inkscape:window-y="-6"
     inkscape:window-maximized="1" />
  <metadata
     id="metadata2163">
    <rdf:RDF>
      <cc:Work
         rdf:about="">
        <dc:format>image/svg+xml</dc:format>
        <dc:type
           rdf:resource="http://purl.org/dc/dcmitype/StillImage" />
        <dc:title></dc:title>
      </cc:Work>
    </rdf:RDF>
  </metadata>
  <g
     inkscape:label="Calque 1"
     inkscape:groupmode="layer"
     id="layer1"
     transform="translate(-75.344754,-163.39615)">
    <path
       id="path2732"
       style="opacity:0.999;fill:#ababab;fill-opacity:1;stroke:#999999;stroke-width:2.93993;stop-color:#000000"
       d="m 471.83594,634.74609 a 55.188238,68.484601 0 0 0 -55.00391,68.48438 55.188238,68.484601 0 0 0 55.18945,68.48437 55.188238,68.484601 0 0 0 55.1875,-68.48437 55.188238,68.484601 0 0 0 -55.1875,-68.48438 55.188238,68.484601 0 0 0 -0.18554,0 z m -0.0215,8.92774 a 47.993019,59.555856 0 0 1 0.20703,0 47.993019,59.555856 0 0 1 47.99219,59.55664 47.993019,59.555856 0 0 1 -47.99219,59.55469 47.993019,59.555856 0 0 1 -47.99414,-59.55469 47.993019,59.555856 0 0 1 47.78711,-59.55664 z"
       transform="scale(0.26458333)" />
    <path
       id="rect2729"
       style="opacity:0.999;fill:#ababab;fill-opacity:1;stroke:#999999;stroke-width:0.727761;stop-color:#000000"
       d="m 76.57089,163.76003 h 11.183561 30.544679 c 0,0 12.34586,55.12096 0,55.12581 -8.72984,0.004 -28.307738,0.3096 -37.037579,0 -10.502867,-0.37248 -3.323355,-36.71923 -0.894098,-48.52508 0.425024,-2.06556 -3.796563,-6.60073 -3.796563,-6.60073 z"
       sodipodi:nodetypes="cccsssc" />
  </g>
</svg>
